<?xml version="1.0" encoding="UTF-8"?>
<svg id="Livello_1" data-name="Livello 1" xmlns="http://www.w3.org/2000/svg" viewBox="0 0 144.07 85.63">
  <defs>
    <style>
      .cls-1 {
        fill: #fff;
      }

      .cls-2 {
        fill: #d7d5d6;
      }

      .cls-3 {
        fill: #3f4541;
      }

      .cls-4 {
        fill: #707472;
      }

      .cls-5 {
        fill: #606663;
      }
    </style>
  </defs>
  <g>
    <g>
      <g>
        <rect class="cls-4" x="62.8" y="5.54" width="16.2" height="63.13" transform="translate(8.38 -12.85) rotate(11)"/>
        <path class="cls-3" d="M73.23,70.23l-16.88-3.28,.09-.49L68.58,3.99l16.88,3.28-.09,.49-12.14,62.46Zm-15.71-4.07l14.92,2.9,11.86-60.99-14.92-2.9-11.86,60.99Z"/>
      </g>
      <g>
        <g>
          <circle class="cls-4" cx="72.44" cy="9.16" r="2.25"/>
          <path class="cls-3" d="M72.45,11.92c-.18,0-.35-.02-.53-.05-.72-.14-1.35-.55-1.76-1.16-.41-.61-.56-1.34-.42-2.07,.14-.72,.55-1.35,1.16-1.76,.61-.41,1.34-.56,2.07-.42,.72,.14,1.35,.55,1.76,1.16,.41,.61,.56,1.34,.42,2.07-.14,.72-.55,1.35-1.16,1.76-.46,.31-.99,.47-1.53,.47Zm0-4.51c-.35,0-.68,.1-.98,.3-.39,.26-.65,.66-.74,1.12-.09,.46,0,.93,.27,1.32,.26,.39,.66,.65,1.12,.74,.46,.09,.93,0,1.32-.27,.39-.26,.65-.66,.74-1.12h0c.09-.46,0-.93-.27-1.32-.26-.39-.66-.65-1.12-.74-.11-.02-.23-.03-.34-.03Z"/>
        </g>
        <g>
          <circle class="cls-4" cx="79.95" cy="10.62" r="2.25"/>
          <path class="cls-3" d="M79.95,13.38c-.18,0-.35-.02-.53-.05-1.49-.29-2.47-1.74-2.18-3.23,.29-1.49,1.74-2.46,3.23-2.18,1.49,.29,2.47,1.74,2.18,3.23h0c-.14,.72-.55,1.35-1.16,1.76-.46,.31-.99,.47-1.53,.47Zm0-4.51c-.82,0-1.56,.58-1.72,1.42-.18,.95,.44,1.87,1.39,2.06,.46,.09,.93,0,1.32-.27,.39-.26,.65-.66,.74-1.12h0c.18-.95-.44-1.87-1.39-2.06-.11-.02-.22-.03-.33-.03Z"/>
        </g>
      </g>
      <g>
        <g>
          <circle class="cls-4" cx="69.42" cy="24.7" r="2.25"/>
          <path class="cls-3" d="M69.42,27.45c-.17,0-.35-.02-.53-.05-.72-.14-1.35-.55-1.76-1.16-.41-.61-.56-1.34-.42-2.07,.14-.72,.55-1.35,1.16-1.76,.61-.41,1.34-.56,2.07-.42,1.49,.29,2.47,1.74,2.18,3.23h0c-.26,1.31-1.41,2.23-2.7,2.23Zm0-4.51c-.35,0-.68,.1-.98,.3-.39,.26-.65,.66-.74,1.12-.09,.46,0,.93,.27,1.32,.26,.39,.66,.65,1.12,.74,.95,.19,1.87-.44,2.06-1.39,.18-.95-.44-1.87-1.39-2.06-.11-.02-.23-.03-.34-.03Z"/>
        </g>
        <g>
          <circle class="cls-4" cx="76.93" cy="26.15" r="2.25"/>
          <path class="cls-3" d="M76.94,28.91c-.18,0-.35-.02-.53-.05-.72-.14-1.35-.55-1.76-1.16-.41-.61-.56-1.34-.42-2.07,.14-.72,.55-1.35,1.16-1.76,.61-.41,1.34-.56,2.07-.42,.72,.14,1.35,.55,1.76,1.16,.41,.61,.56,1.34,.42,2.07s-.55,1.35-1.16,1.76c-.46,.31-.99,.47-1.53,.47Zm-.01-4.51c-.35,0-.68,.1-.98,.3-.39,.26-.65,.66-.74,1.12-.09,.46,0,.93,.27,1.32,.26,.39,.66,.65,1.12,.74,.46,.09,.93,0,1.32-.27,.39-.26,.65-.66,.74-1.12h0c.09-.46,0-.93-.27-1.32-.26-.39-.66-.65-1.12-.74-.11-.02-.23-.03-.34-.03Z"/>
        </g>
      </g>
      <g>
        <g>
          <circle class="cls-4" cx="67.89" cy="32.58" r="2.25"/>
          <path class="cls-3" d="M67.89,35.34c-.18,0-.35-.02-.53-.05-.72-.14-1.35-.55-1.76-1.16-.41-.61-.56-1.34-.42-2.07,.14-.72,.55-1.35,1.16-1.76,.61-.41,1.34-.56,2.07-.42,1.49,.29,2.47,1.74,2.18,3.23h0c-.14,.72-.55,1.35-1.16,1.76-.46,.31-.99,.47-1.53,.47Zm-.01-4.51c-.35,0-.68,.1-.98,.3-.39,.26-.65,.66-.74,1.12-.09,.46,0,.93,.27,1.32,.26,.39,.66,.65,1.12,.74,.46,.09,.93,0,1.32-.27,.39-.26,.65-.66,.74-1.12,.18-.95-.44-1.87-1.39-2.06-.11-.02-.23-.03-.34-.03Z"/>
        </g>
        <g>
          <circle class="cls-4" cx="75.4" cy="34.04" r="2.25"/>
          <path class="cls-3" d="M75.4,36.8c-.17,0-.35-.02-.53-.05-.72-.14-1.35-.55-1.76-1.16-.41-.61-.56-1.34-.42-2.07,.14-.72,.55-1.35,1.16-1.76,.61-.41,1.34-.56,2.07-.42,1.49,.29,2.47,1.74,2.18,3.23h0c-.26,1.31-1.41,2.23-2.7,2.23Zm0-4.51c-.35,0-.68,.1-.98,.3-.39,.26-.65,.66-.74,1.12-.09,.46,0,.93,.27,1.32,.26,.39,.66,.65,1.12,.74,.95,.19,1.87-.44,2.06-1.39h0c.18-.95-.44-1.87-1.39-2.06-.11-.02-.23-.03-.34-.03Z"/>
        </g>
      </g>
      <g>
        <g>
          <circle class="cls-4" cx="66.36" cy="40.47" r="2.25"/>
          <path class="cls-3" d="M66.36,43.23c-.18,0-.35-.02-.53-.05-.72-.14-1.35-.55-1.76-1.16-.41-.61-.56-1.34-.42-2.07,.29-1.49,1.75-2.47,3.23-2.18,1.49,.29,2.47,1.74,2.18,3.23h0c-.14,.72-.55,1.35-1.16,1.76-.46,.31-.99,.47-1.53,.47Zm0-4.51c-.82,0-1.56,.58-1.72,1.42-.09,.46,0,.93,.27,1.32,.26,.39,.66,.65,1.12,.74,.46,.09,.93,0,1.32-.27,.39-.26,.65-.66,.74-1.12,.18-.95-.44-1.87-1.39-2.06-.11-.02-.22-.03-.33-.03Z"/>
        </g>
        <g>
          <circle class="cls-4" cx="73.86" cy="41.93" r="2.25"/>
          <path class="cls-3" d="M73.86,44.68c-.17,0-.35-.02-.53-.05-1.49-.29-2.47-1.74-2.18-3.23,.14-.72,.55-1.35,1.16-1.76,.61-.41,1.34-.56,2.07-.42,1.49,.29,2.47,1.74,2.18,3.23h0c-.26,1.31-1.41,2.23-2.7,2.23Zm0-4.51c-.35,0-.68,.1-.98,.3-.39,.26-.65,.66-.74,1.12-.18,.95,.44,1.87,1.39,2.06,.95,.19,1.87-.44,2.06-1.39h0c.18-.95-.44-1.87-1.39-2.06-.11-.02-.23-.03-.34-.03Z"/>
        </g>
      </g>
      <g>
        <g>
          <circle class="cls-4" cx="64.82" cy="48.36" r="2.25"/>
          <path class="cls-3" d="M64.83,51.11c-.18,0-.35-.02-.53-.05-.72-.14-1.35-.55-1.76-1.16-.41-.61-.56-1.34-.42-2.07,.29-1.49,1.74-2.47,3.23-2.18,1.49,.29,2.47,1.74,2.18,3.23h0c-.14,.72-.55,1.35-1.16,1.76-.46,.31-.99,.47-1.53,.47Zm0-4.51c-.82,0-1.56,.58-1.72,1.42-.09,.46,0,.93,.27,1.32,.26,.39,.66,.65,1.12,.74,.46,.09,.93,0,1.32-.27,.39-.26,.65-.66,.74-1.12,.09-.46,0-.93-.27-1.32s-.66-.65-1.12-.74c-.11-.02-.22-.03-.33-.03Z"/>
        </g>
        <g>
          <circle class="cls-4" cx="72.33" cy="49.82" r="2.25"/>
          <path class="cls-3" d="M72.33,52.57c-.17,0-.35-.02-.53-.05-1.49-.29-2.47-1.74-2.18-3.23,.14-.72,.55-1.35,1.16-1.76,.61-.41,1.34-.56,2.07-.42,.72,.14,1.35,.55,1.76,1.16,.41,.61,.56,1.34,.42,2.07h0c-.26,1.31-1.41,2.23-2.7,2.23Zm0-4.51c-.35,0-.68,.1-.98,.3-.39,.26-.65,.66-.74,1.12-.18,.95,.44,1.87,1.39,2.06,.95,.19,1.87-.44,2.06-1.39h0c.09-.46,0-.93-.27-1.32-.26-.39-.66-.65-1.12-.74-.11-.02-.23-.03-.34-.03Z"/>
        </g>
      </g>
      <g>
        <g>
          <circle class="cls-4" cx="61.86" cy="63.59" r="2.25"/>
          <path class="cls-3" d="M61.87,66.35c-.18,0-.35-.02-.53-.05-1.49-.29-2.47-1.74-2.18-3.23,.29-1.49,1.74-2.47,3.23-2.18,.72,.14,1.35,.55,1.76,1.16,.41,.61,.56,1.34,.42,2.07-.14,.72-.55,1.35-1.16,1.76-.46,.31-.99,.47-1.53,.47Zm0-4.51c-.82,0-1.56,.58-1.72,1.42-.18,.95,.44,1.87,1.39,2.06,.46,.09,.93,0,1.32-.27,.39-.26,.65-.66,.74-1.12h0c.09-.46,0-.93-.27-1.32-.26-.39-.66-.65-1.12-.74-.11-.02-.22-.03-.33-.03Z"/>
        </g>
        <g>
          <circle class="cls-4" cx="69.37" cy="65.05" r="2.25"/>
          <path class="cls-3" d="M69.37,67.81c-.18,0-.35-.02-.53-.05-1.49-.29-2.47-1.74-2.18-3.23,.14-.72,.55-1.35,1.16-1.76,.61-.41,1.34-.56,2.07-.42,.72,.14,1.35,.55,1.76,1.16,.41,.61,.56,1.34,.42,2.07h0c-.14,.72-.55,1.35-1.16,1.76-.46,.31-.99,.47-1.53,.47Zm-.01-4.51c-.35,0-.68,.1-.98,.3-.39,.26-.65,.66-.74,1.12-.18,.95,.44,1.87,1.39,2.06,.46,.09,.93,0,1.32-.27,.39-.26,.65-.66,.74-1.12h0c.09-.46,0-.93-.27-1.32-.26-.39-.66-.65-1.12-.74-.11-.02-.23-.03-.34-.03Z"/>
        </g>
      </g>
    </g>
    <g>
      <g>
        <path class="cls-4" d="M119.77,84.98l3.65-9.04-3.82-1.54,1.62-4.01,3.82,1.54,2.41-5.95-.96-.39,.91-2.26c0,.66,.39,1.3,1.04,1.56,.85,.34,1.82-.07,2.17-.92s-.07-1.82-.92-2.17c-.65-.26-1.37-.08-1.83,.4l.89-2.21,.96,.39,4.42-10.95c-.35,.13-.74,.14-1.11,0-.78-.32-1.16-1.2-.84-1.98s1.2-1.16,1.98-.84c.37,.15,.65,.43,.8,.77l8.45-20.91-7.68-3.1-23.65,58.53,7.68,3.1Z"/>
        <path class="cls-3" d="M120.05,85.63l-8.6-3.48,24.02-59.46,8.6,3.48-14.08,34.85-.96-.39-.22,.55c.36-.04,.72,0,1.07,.14,.54,.22,.96,.63,1.18,1.16,.23,.53,.23,1.12,.01,1.66-.45,1.11-1.71,1.65-2.82,1.2-.35-.14-.64-.36-.87-.64l-.24,.61,.96,.39-2.78,6.88-3.82-1.54-1.25,3.09,3.82,1.54-4.03,9.96Zm-7.3-4.03l6.75,2.73,3.28-8.11-3.82-1.54,2-4.94,3.82,1.54,2.03-5.03-.96-.39,.58-1.42h0s2.07-5.11,2.07-5.11l.96,.39,3.92-9.71c-.18-.02-.35-.06-.52-.13-1.04-.42-1.54-1.6-1.12-2.64,.2-.5,.59-.89,1.09-1.1,.5-.21,1.05-.22,1.55-.01,.17,.07,.32,.16,.47,.27l7.95-19.67-6.75-2.73-23.27,57.61Zm15.16-18.74v.46c0,.48,.28,.91,.72,1.09,.59,.24,1.28-.05,1.52-.65,.12-.29,.11-.61,0-.89-.12-.29-.35-.51-.64-.63-.44-.18-.95-.07-1.28,.28l-.31,.33Zm5.69-15.89c-.14,0-.27,.03-.4,.08-.25,.11-.45,.31-.55,.56-.21,.52,.04,1.12,.57,1.33,.24,.09,.5,.1,.75,0l1.03-.39-.47-1c-.11-.24-.3-.42-.54-.51-.12-.05-.25-.08-.38-.08Z"/>
      </g>
      <g>
        <circle class="cls-4" cx="138.27" cy="28.51" r="2.25"/>
        <path class="cls-3" d="M138.27,31.26c-.34,0-.69-.06-1.03-.2-.68-.28-1.22-.8-1.5-1.48-.29-.68-.29-1.43-.02-2.11,.28-.68,.8-1.22,1.48-1.5,.68-.29,1.42-.29,2.11-.02,.68,.28,1.22,.8,1.5,1.48,.29,.68,.29,1.43,.02,2.11h0c-.43,1.07-1.47,1.72-2.56,1.72Zm0-4.51c-.23,0-.46,.05-.69,.14-.43,.18-.77,.52-.94,.96-.18,.44-.17,.91,.01,1.34,.18,.43,.52,.77,.96,.94,.9,.36,1.92-.07,2.28-.97h0c.18-.43,.17-.91-.01-1.34-.18-.43-.52-.77-.96-.94-.21-.09-.43-.13-.66-.13Z"/>
      </g>
      <g>
        <circle class="cls-4" cx="132.34" cy="43.18" r="2.25"/>
        <path class="cls-3" d="M132.34,45.93c-.35,0-.7-.07-1.03-.2-.68-.28-1.22-.8-1.5-1.48-.29-.68-.29-1.43-.02-2.11,.57-1.41,2.18-2.09,3.59-1.52,.68,.28,1.22,.8,1.5,1.48,.29,.68,.29,1.43,.02,2.11h0c-.28,.68-.8,1.22-1.48,1.5-.35,.15-.71,.22-1.08,.22Zm0-4.51c-.69,0-1.35,.41-1.63,1.1-.18,.43-.17,.91,.01,1.34,.18,.43,.52,.77,.96,.94,.43,.18,.91,.17,1.34-.01,.43-.18,.77-.52,.94-.96h0c.18-.44,.17-.91-.01-1.34-.18-.43-.52-.77-.96-.94-.21-.09-.44-.13-.66-.13Z"/>
      </g>
      <g>
        <circle class="cls-4" cx="129.33" cy="50.63" r="2.25"/>
        <path class="cls-3" d="M129.33,53.38c-.35,0-.7-.07-1.03-.2-.68-.28-1.22-.8-1.5-1.48-.29-.68-.29-1.43-.02-2.11,.57-1.41,2.18-2.09,3.59-1.52,.68,.28,1.22,.8,1.5,1.48,.29,.68,.29,1.43,.02,2.11h0c-.28,.68-.8,1.22-1.48,1.5-.35,.15-.71,.22-1.08,.22Zm0-4.51c-.69,0-1.35,.41-1.63,1.1-.18,.43-.17,.91,.01,1.34,.18,.43,.52,.77,.96,.94,.43,.18,.91,.17,1.34-.01,.43-.18,.77-.52,.94-.96h0c.18-.44,.17-.91-.01-1.34-.18-.43-.52-.77-.96-.94-.21-.09-.44-.13-.65-.13Z"/>
      </g>
      <g>
        <circle class="cls-4" cx="126.32" cy="58.08" r="2.25"/>
        <path class="cls-3" d="M126.32,60.83c-.34,0-.69-.06-1.03-.2-.68-.28-1.22-.8-1.5-1.48-.29-.68-.29-1.43-.02-2.11,.28-.68,.8-1.22,1.48-1.5,.68-.29,1.42-.29,2.11-.02,.68,.28,1.22,.8,1.5,1.48,.29,.68,.29,1.43,.02,2.11h0c-.43,1.07-1.47,1.72-2.56,1.72Zm0-4.51c-.23,0-.46,.05-.69,.14-.43,.18-.77,.52-.94,.96-.18,.44-.17,.91,.01,1.34,.18,.43,.52,.77,.96,.94,.89,.36,1.92-.07,2.28-.97h0c.18-.43,.17-.91-.01-1.34-.18-.43-.52-.77-.96-.94-.21-.09-.43-.13-.66-.13Z"/>
      </g>
      <g>
        <circle class="cls-4" cx="123.31" cy="65.53" r="2.25"/>
        <path class="cls-3" d="M123.31,68.28c-.34,0-.69-.06-1.03-.2-1.41-.57-2.09-2.18-1.52-3.59,.28-.68,.8-1.22,1.48-1.5s1.42-.29,2.11-.02c.68,.28,1.22,.8,1.5,1.48,.29,.68,.29,1.43,.02,2.11h0c-.43,1.07-1.47,1.72-2.56,1.72Zm0-4.51c-.23,0-.46,.05-.69,.14-.43,.18-.77,.52-.94,.96-.36,.9,.07,1.92,.97,2.29,.9,.36,1.92-.07,2.28-.97h0c.18-.43,.17-.91-.01-1.34-.18-.43-.52-.77-.96-.94-.21-.09-.43-.13-.66-.13Z"/>
      </g>
      <g>
        <circle class="cls-4" cx="117.5" cy="79.92" r="2.25"/>
        <path class="cls-3" d="M117.5,82.67c-.34,0-.69-.06-1.03-.2-1.41-.57-2.09-2.18-1.52-3.59,.57-1.41,2.18-2.09,3.59-1.52,1.41,.57,2.09,2.18,1.52,3.59h0c-.43,1.07-1.47,1.72-2.56,1.72Zm0-4.51c-.69,0-1.35,.42-1.63,1.1-.36,.9,.07,1.92,.97,2.28,.89,.36,1.92-.07,2.28-.97h0c.36-.9-.07-1.92-.97-2.28-.21-.09-.44-.13-.66-.13Z"/>
      </g>
    </g>
    <g>
      <g>
        <path class="cls-4" d="M9.95,.5V10.25h4.12v4.33s-4.12,0-4.12,0v6.42h1.04s0,2.44,0,2.44c-.24-.62-.84-1.06-1.55-1.06-.92,0-1.67,.75-1.67,1.67,0,.92,.75,1.67,1.67,1.67,.7,0,1.3-.44,1.55-1.06v2.38h-1.04v11.81c.27-.25,.63-.41,1.03-.41,.84,0,1.52,.68,1.52,1.52,0,.84-.68,1.52-1.52,1.52-.4,0-.76-.16-1.03-.41v22.55h8.28V.5s-8.28,0-8.28,0Z"/>
        <path class="cls-3" d="M18.73,64.13H9.45V26.54h1.04v-.6c-.31,.17-.67,.27-1.05,.27-1.2,0-2.17-.97-2.17-2.17s.97-2.17,2.17-2.17c.38,0,.73,.1,1.05,.27v-.65h-1.04v-7.42h4.12v-3.33h-4.12V0h9.28V64.13Zm-8.28-1h7.28V1h-7.28V9.75h4.12v5.33h-4.12v5.42h1.04v7.04h-1.04v10.47c.17-.05,.35-.07,.53-.07,1.12,0,2.02,.91,2.02,2.02s-.91,2.02-2.02,2.02c-.18,0-.36-.02-.53-.07v21.21Zm-.97-23.17l.81,.75c.19,.18,.44,.28,.69,.28,.56,0,1.02-.46,1.02-1.02s-.46-1.02-1.02-1.02c-.25,0-.5,.1-.69,.28l-.81,.75Zm-.04-17.08c-.64,0-1.17,.52-1.17,1.17s.52,1.17,1.17,1.17c.48,0,.91-.29,1.08-.74l.17-.43-.17-.43c-.18-.45-.6-.74-1.08-.74Z"/>
      </g>
      <g>
        <circle class="cls-4" cx="13.95" cy="59.79" r="2.25"/>
        <path class="cls-3" d="M13.95,62.54c-1.52,0-2.75-1.24-2.75-2.75s1.24-2.75,2.75-2.75,2.75,1.24,2.75,2.75-1.24,2.75-2.75,2.75Zm0-4.51c-.97,0-1.75,.79-1.75,1.75s.79,1.75,1.75,1.75,1.75-.79,1.75-1.75-.79-1.75-1.75-1.75Z"/>
      </g>
      <g>
        <circle class="cls-4" cx="13.95" cy="43.97" r="2.25"/>
        <path class="cls-3" d="M13.95,46.72c-1.52,0-2.75-1.24-2.75-2.75s1.24-2.75,2.75-2.75,2.75,1.24,2.75,2.75-1.24,2.75-2.75,2.75Zm0-4.51c-.97,0-1.75,.79-1.75,1.75s.79,1.75,1.75,1.75,1.75-.79,1.75-1.75-.79-1.75-1.75-1.75Z"/>
      </g>
      <g>
        <circle class="cls-4" cx="13.95" cy="35.93" r="2.25"/>
        <path class="cls-3" d="M13.95,38.69c-1.52,0-2.75-1.24-2.75-2.75s1.24-2.75,2.75-2.75,2.75,1.24,2.75,2.75-1.24,2.75-2.75,2.75Zm0-4.51c-.97,0-1.75,.79-1.75,1.75s.79,1.75,1.75,1.75,1.75-.79,1.75-1.75-.79-1.75-1.75-1.75Z"/>
      </g>
      <g>
        <circle class="cls-4" cx="13.95" cy="27.9" r="2.25"/>
        <path class="cls-3" d="M13.95,30.65c-1.52,0-2.75-1.24-2.75-2.75s1.24-2.75,2.75-2.75,2.75,1.24,2.75,2.75-1.24,2.75-2.75,2.75Zm0-4.51c-.97,0-1.75,.79-1.75,1.75s.79,1.75,1.75,1.75,1.75-.79,1.75-1.75-.79-1.75-1.75-1.75Z"/>
      </g>
      <g>
        <circle class="cls-4" cx="13.95" cy="19.86" r="2.25"/>
        <path class="cls-3" d="M13.95,22.62c-1.52,0-2.75-1.24-2.75-2.75s1.24-2.75,2.75-2.75,2.75,1.24,2.75,2.75-1.24,2.75-2.75,2.75Zm0-4.51c-.97,0-1.75,.79-1.75,1.75s.79,1.75,1.75,1.75,1.75-.79,1.75-1.75-.79-1.75-1.75-1.75Z"/>
      </g>
      <g>
        <circle class="cls-4" cx="13.95" cy="4.34" r="2.25"/>
        <path class="cls-3" d="M13.95,7.1c-1.52,0-2.75-1.24-2.75-2.75s1.24-2.75,2.75-2.75,2.75,1.24,2.75,2.75-1.24,2.75-2.75,2.75Zm0-4.51c-.97,0-1.75,.79-1.75,1.75s.79,1.75,1.75,1.75,1.75-.79,1.75-1.75-.79-1.75-1.75-1.75Z"/>
      </g>
      <rect class="cls-1" x="9.4" y="39.47" width=".81" height=".99"/>
    </g>
    <g>
      <g>
        <rect class="cls-4" x="31.36" y="1.22" width="16.2" height="63.13" transform="translate(1.89 -2.15) rotate(3.19)"/>
        <path class="cls-3" d="M46.26,65.28l-17.17-.96,.03-.5L32.66,.29l17.17,.96-.03,.5-3.54,63.53Zm-16.12-1.9l15.18,.85L48.78,2.19l-15.18-.85-3.46,62.03Z"/>
      </g>
      <g>
        <g>
          <circle class="cls-4" cx="37.19" cy="4.89" r="2.25"/>
          <path class="cls-3" d="M37.19,7.65c-.05,0-.1,0-.16,0-.73-.04-1.41-.37-1.9-.91-.49-.55-.74-1.25-.7-1.99,.04-.73,.37-1.41,.91-1.9,.55-.49,1.26-.74,1.99-.7s1.41,.37,1.9,.91c.49,.55,.74,1.26,.7,1.99-.04,.73-.37,1.41-.91,1.9-.51,.46-1.16,.7-1.83,.7Zm0-4.51c-.43,0-.84,.16-1.17,.45-.35,.31-.56,.74-.58,1.21-.03,.47,.13,.92,.44,1.27s.74,.56,1.21,.58c.49,.02,.92-.13,1.27-.44s.56-.74,.58-1.21h0c.05-.97-.69-1.8-1.65-1.85-.03,0-.07,0-.1,0Z"/>
        </g>
        <g>
          <circle class="cls-4" cx="44.82" cy="5.32" r="2.25"/>
          <path class="cls-3" d="M44.83,8.08c-.05,0-.1,0-.16,0-1.52-.08-2.68-1.39-2.6-2.9,.04-.73,.37-1.41,.91-1.9,.55-.49,1.25-.74,1.99-.7,.73,.04,1.41,.37,1.9,.91,.49,.55,.74,1.26,.7,1.99s-.37,1.41-.91,1.9c-.51,.46-1.16,.7-1.83,.7Zm0-4.51c-.43,0-.84,.16-1.17,.45-.35,.31-.56,.74-.58,1.21-.05,.97,.69,1.8,1.66,1.85,.46,.02,.92-.13,1.27-.44s.56-.74,.58-1.21-.13-.92-.44-1.27-.74-.56-1.21-.58c-.03,0-.07,0-.1,0Z"/>
        </g>
      </g>
      <g>
        <g>
          <circle class="cls-4" cx="36.31" cy="20.69" r="2.25"/>
          <path class="cls-3" d="M36.31,23.45c-.05,0-.1,0-.16,0-1.52-.08-2.68-1.39-2.6-2.9,.09-1.52,1.39-2.68,2.9-2.6,1.52,.08,2.68,1.39,2.6,2.9h0c-.04,.73-.37,1.41-.91,1.9-.51,.46-1.16,.7-1.83,.7Zm0-4.51c-.92,0-1.7,.72-1.75,1.66-.05,.97,.69,1.8,1.66,1.85,.46,.02,.92-.13,1.27-.44s.56-.74,.58-1.21c.05-.97-.69-1.8-1.66-1.85-.03,0-.07,0-.1,0Z"/>
        </g>
        <g>
          <circle class="cls-4" cx="43.94" cy="21.12" r="2.25"/>
          <path class="cls-3" d="M43.94,23.87c-.05,0-.1,0-.15,0-.74-.04-1.41-.37-1.9-.91-.49-.55-.74-1.26-.7-1.99,.04-.73,.37-1.41,.91-1.9,.55-.49,1.26-.74,1.99-.7,1.52,.08,2.68,1.39,2.6,2.9-.08,1.46-1.3,2.6-2.75,2.6Zm0-4.51c-.43,0-.84,.16-1.17,.45-.35,.31-.56,.74-.58,1.21-.03,.47,.13,.92,.44,1.27,.31,.35,.74,.56,1.21,.58,.92,.04,1.8-.69,1.85-1.65,.03-.47-.13-.92-.44-1.27-.31-.35-.74-.56-1.21-.58-.03,0-.07,0-.1,0Z"/>
        </g>
      </g>
      <g>
        <g>
          <circle class="cls-4" cx="35.86" cy="28.71" r="2.25"/>
          <path class="cls-3" d="M35.86,31.47c-.05,0-.1,0-.16,0-.73-.04-1.41-.37-1.9-.91-.49-.55-.74-1.26-.7-1.99s.37-1.41,.91-1.9c.55-.49,1.25-.73,1.99-.7,.73,.04,1.41,.37,1.9,.91,.49,.55,.74,1.26,.7,1.99-.04,.73-.37,1.41-.91,1.9-.51,.46-1.16,.7-1.83,.7Zm0-4.51c-.43,0-.84,.16-1.17,.45-.35,.31-.56,.74-.58,1.21s.13,.92,.44,1.27,.74,.56,1.21,.58c.47,.03,.92-.13,1.27-.44,.35-.31,.56-.74,.58-1.21h0c.03-.47-.13-.92-.44-1.27-.31-.35-.74-.56-1.21-.58-.03,0-.07,0-.1,0Z"/>
        </g>
        <g>
          <circle class="cls-4" cx="43.49" cy="29.14" r="2.25"/>
          <path class="cls-3" d="M43.5,31.9c-.05,0-.1,0-.16,0-1.52-.08-2.68-1.39-2.6-2.9,.04-.73,.37-1.41,.91-1.9,.55-.49,1.25-.74,1.99-.7,.73,.04,1.41,.37,1.9,.91,.49,.55,.74,1.25,.7,1.99-.04,.73-.37,1.41-.91,1.9-.51,.46-1.16,.7-1.83,.7Zm0-4.51c-.43,0-.84,.16-1.17,.45-.35,.31-.56,.74-.58,1.21-.05,.97,.69,1.8,1.65,1.85,.47,.02,.92-.13,1.27-.44s.56-.74,.58-1.21c.03-.47-.13-.92-.44-1.27s-.74-.56-1.21-.58c-.03,0-.07,0-.1,0Z"/>
        </g>
      </g>
      <g>
        <g>
          <circle class="cls-4" cx="35.41" cy="36.74" r="2.25"/>
          <path class="cls-3" d="M35.41,39.49c-.05,0-.1,0-.16,0-.73-.04-1.41-.37-1.9-.91-.49-.55-.74-1.25-.7-1.99,.04-.73,.37-1.41,.91-1.9,.55-.49,1.26-.74,1.99-.7,.73,.04,1.41,.37,1.9,.91,.49,.55,.74,1.26,.7,1.99s-.37,1.41-.91,1.9c-.51,.46-1.16,.7-1.83,.7Zm0-4.51c-.43,0-.84,.16-1.17,.45-.35,.31-.56,.74-.58,1.21s.13,.92,.44,1.27c.31,.35,.74,.56,1.21,.58,.48,.02,.92-.13,1.27-.44,.35-.31,.56-.74,.58-1.21,.05-.97-.69-1.8-1.65-1.85-.03,0-.07,0-.1,0Z"/>
        </g>
        <g>
          <circle class="cls-4" cx="43.05" cy="37.16" r="2.25"/>
          <path class="cls-3" d="M43.05,39.92c-.05,0-.1,0-.16,0-.73-.04-1.41-.37-1.9-.91-.49-.55-.74-1.26-.7-1.99s.37-1.41,.91-1.9c.55-.49,1.25-.74,1.99-.7,1.52,.08,2.68,1.39,2.6,2.9h0c-.08,1.46-1.3,2.6-2.75,2.6Zm0-4.51c-.43,0-.84,.16-1.17,.45-.35,.31-.56,.74-.58,1.21-.05,.97,.69,1.8,1.66,1.85,.46,.03,.92-.13,1.27-.44,.35-.31,.56-.74,.58-1.21,.05-.97-.69-1.8-1.66-1.85-.03,0-.07,0-.1,0Z"/>
        </g>
      </g>
      <g>
        <g>
          <circle class="cls-4" cx="34.96" cy="44.76" r="2.25"/>
          <path class="cls-3" d="M34.97,47.51c-.05,0-.1,0-.16,0-.73-.04-1.41-.37-1.9-.91-.49-.55-.74-1.26-.7-1.99,.04-.73,.37-1.41,.91-1.9,.55-.49,1.25-.73,1.99-.7,.73,.04,1.41,.37,1.9,.91,.49,.55,.74,1.25,.7,1.99-.04,.73-.37,1.41-.91,1.9-.51,.46-1.16,.7-1.83,.7Zm0-4.51c-.43,0-.84,.16-1.17,.45-.35,.31-.56,.74-.58,1.21-.05,.97,.69,1.8,1.65,1.85,.47,.02,.92-.13,1.27-.44,.35-.31,.56-.74,.58-1.21,.03-.47-.13-.92-.44-1.27s-.74-.56-1.21-.58c-.03,0-.07,0-.1,0Z"/>
        </g>
        <g>
          <circle class="cls-4" cx="42.6" cy="45.19" r="2.25"/>
          <path class="cls-3" d="M42.6,47.94c-.05,0-.1,0-.16,0-.73-.04-1.41-.37-1.9-.91-.49-.55-.74-1.26-.7-1.99s.37-1.41,.91-1.9c.55-.49,1.25-.73,1.99-.7,.73,.04,1.41,.37,1.9,.91,.49,.55,.74,1.26,.7,1.99-.04,.73-.37,1.41-.91,1.9-.51,.46-1.16,.7-1.83,.7Zm0-4.51c-.43,0-.84,.16-1.17,.45-.35,.31-.56,.74-.58,1.21-.05,.97,.69,1.8,1.66,1.85,.47,.02,.92-.13,1.27-.44s.56-.74,.58-1.21h0c.05-.97-.69-1.8-1.65-1.85-.03,0-.07,0-.1,0Z"/>
        </g>
      </g>
      <g>
        <g>
          <circle class="cls-4" cx="34.1" cy="60.26" r="2.25"/>
          <path class="cls-3" d="M34.1,63.01c-.05,0-.1,0-.16,0-1.52-.08-2.68-1.39-2.6-2.9,.08-1.52,1.36-2.68,2.9-2.6,1.52,.08,2.68,1.39,2.6,2.9h0c-.04,.73-.37,1.41-.91,1.9-.51,.46-1.16,.7-1.83,.7Zm0-4.51c-.43,0-.84,.16-1.17,.45-.35,.31-.56,.74-.58,1.21-.05,.97,.69,1.8,1.66,1.85,.47,.02,.92-.13,1.27-.44,.35-.31,.56-.74,.58-1.21,.05-.97-.69-1.8-1.66-1.85-.03,0-.07,0-.1,0Z"/>
        </g>
        <g>
          <circle class="cls-4" cx="41.73" cy="60.68" r="2.25"/>
          <path class="cls-3" d="M41.74,63.44c-.05,0-.1,0-.16,0-.73-.04-1.41-.37-1.9-.91-.49-.55-.74-1.26-.7-1.99,.04-.73,.37-1.41,.91-1.9,.55-.49,1.25-.74,1.99-.7,.73,.04,1.41,.37,1.9,.91,.49,.55,.74,1.26,.7,1.99s-.37,1.41-.91,1.9c-.51,.46-1.16,.7-1.83,.7Zm0-4.51c-.43,0-.84,.16-1.17,.45-.35,.31-.56,.74-.58,1.21-.05,.97,.69,1.8,1.65,1.85,.46,.02,.92-.13,1.27-.44,.35-.31,.56-.74,.58-1.21,.05-.97-.69-1.8-1.65-1.85-.03,0-.07,0-.1,0Z"/>
        </g>
      </g>
    </g>
    <g>
      <g>
        <rect class="cls-4" x="93.66" y="13.4" width="16.2" height="63.13" transform="translate(21.43 -32) rotate(19.93)"/>
        <path class="cls-3" d="M98.91,78.04l-16.17-5.86L104.6,11.89l16.17,5.86-21.86,60.29Zm-14.89-6.46l14.29,5.18,21.18-58.41-14.29-5.18-21.18,58.41Z"/>
      </g>
      <g>
        <g>
          <circle class="cls-4" cx="88.71" cy="69.73" r="2.25"/>
          <path class="cls-3" d="M88.71,72.48c-.31,0-.63-.05-.94-.17-.69-.25-1.24-.76-1.56-1.42-.31-.67-.34-1.41-.09-2.11,.52-1.43,2.1-2.17,3.53-1.65,.69,.25,1.24,.76,1.56,1.42,.31,.67,.34,1.41,.09,2.11h0c-.41,1.12-1.47,1.82-2.59,1.82Zm0-4.51c-.72,0-1.39,.44-1.65,1.16-.16,.44-.14,.92,.06,1.34,.2,.42,.55,.75,.99,.91,.91,.33,1.92-.14,2.25-1.05h0c.16-.44,.14-.92-.06-1.34-.2-.42-.55-.75-.99-.91-.2-.07-.4-.11-.6-.11Z"/>
        </g>
        <g>
          <circle class="cls-4" cx="95.9" cy="72.33" r="2.25"/>
          <path class="cls-3" d="M95.9,75.09c-.31,0-.63-.05-.94-.17-1.43-.52-2.17-2.1-1.65-3.53s2.1-2.17,3.53-1.65c.69,.25,1.24,.76,1.56,1.42,.31,.67,.34,1.41,.09,2.11-.41,1.12-1.47,1.82-2.59,1.82Zm0-4.51c-.72,0-1.39,.44-1.65,1.16-.33,.91,.14,1.92,1.05,2.25,.91,.33,1.92-.14,2.25-1.05,.16-.44,.14-.92-.06-1.34-.2-.42-.55-.75-.99-.91-.2-.07-.4-.11-.6-.11Z"/>
        </g>
      </g>
      <g>
        <g>
          <circle class="cls-4" cx="94.1" cy="54.85" r="2.25"/>
          <path class="cls-3" d="M94.1,57.61c-.31,0-.63-.05-.94-.17-.69-.25-1.24-.76-1.56-1.42-.31-.67-.34-1.41-.09-2.11,.52-1.43,2.1-2.17,3.53-1.65,1.43,.52,2.17,2.1,1.65,3.53h0c-.41,1.12-1.47,1.82-2.59,1.82Zm0-4.51c-.72,0-1.39,.44-1.65,1.16-.16,.44-.14,.92,.06,1.34,.2,.42,.55,.75,.99,.91,.91,.33,1.92-.14,2.25-1.05h0c.33-.91-.14-1.92-1.05-2.25-.2-.07-.4-.11-.6-.11Z"/>
        </g>
        <g>
          <circle class="cls-4" cx="101.29" cy="57.46" r="2.25"/>
          <path class="cls-3" d="M101.3,60.21c-.32,0-.63-.06-.94-.17-1.43-.52-2.17-2.1-1.65-3.53,.52-1.43,2.1-2.17,3.53-1.65,.69,.25,1.24,.76,1.56,1.42s.34,1.41,.09,2.11h0c-.25,.69-.76,1.24-1.42,1.56-.37,.17-.77,.26-1.17,.26Zm0-4.51c-.72,0-1.39,.44-1.65,1.16-.33,.91,.14,1.92,1.05,2.25,.44,.16,.92,.14,1.34-.06,.42-.2,.75-.55,.91-.99,.16-.44,.14-.92-.06-1.34-.2-.42-.55-.75-.99-.91-.2-.07-.4-.11-.6-.11Z"/>
        </g>
      </g>
      <g>
        <g>
          <circle class="cls-4" cx="96.84" cy="47.3" r="2.25"/>
          <path class="cls-3" d="M96.84,50.05c-.31,0-.63-.05-.94-.17-1.43-.52-2.17-2.1-1.65-3.53,.52-1.43,2.1-2.17,3.53-1.65,1.43,.52,2.17,2.1,1.65,3.53-.41,1.12-1.47,1.82-2.59,1.82Zm0-4.51c-.72,0-1.39,.44-1.65,1.16-.33,.91,.14,1.92,1.05,2.25,.91,.33,1.92-.14,2.25-1.05h0c.33-.91-.14-1.92-1.05-2.25-.2-.07-.4-.11-.6-.11Z"/>
        </g>
        <g>
          <circle class="cls-4" cx="104.03" cy="49.91" r="2.25"/>
          <path class="cls-3" d="M104.04,52.66c-.32,0-.63-.06-.94-.17-1.43-.52-2.17-2.1-1.65-3.53,.52-1.43,2.1-2.17,3.53-1.65,.69,.25,1.25,.76,1.56,1.42s.34,1.41,.09,2.11h0c-.25,.69-.75,1.24-1.42,1.56-.37,.17-.77,.26-1.17,.26Zm0-4.51c-.72,0-1.39,.44-1.65,1.16-.33,.91,.14,1.92,1.05,2.25,.44,.16,.92,.14,1.34-.06,.42-.2,.75-.55,.91-.99h0c.33-.91-.14-1.92-1.05-2.25-.2-.07-.4-.11-.6-.11Z"/>
        </g>
      </g>
      <g>
        <g>
          <circle class="cls-4" cx="99.58" cy="39.74" r="2.25"/>
          <path class="cls-3" d="M99.58,42.5c-.31,0-.63-.05-.94-.17-1.43-.52-2.17-2.1-1.65-3.53,.52-1.43,2.1-2.17,3.53-1.65,.69,.25,1.24,.76,1.56,1.42,.31,.67,.34,1.41,.09,2.11-.41,1.12-1.47,1.82-2.59,1.82Zm0-4.51c-.72,0-1.39,.44-1.65,1.16-.33,.91,.14,1.92,1.05,2.25,.91,.33,1.92-.14,2.25-1.05,.16-.44,.14-.92-.06-1.34-.2-.42-.55-.75-.99-.91-.2-.07-.4-.11-.6-.11Z"/>
        </g>
        <g>
          <circle class="cls-4" cx="106.77" cy="42.35" r="2.25"/>
          <path class="cls-3" d="M106.78,45.11c-.32,0-.63-.06-.94-.17-.69-.25-1.25-.76-1.56-1.42s-.34-1.41-.09-2.11c.25-.69,.75-1.24,1.42-1.56,.67-.31,1.42-.34,2.11-.09,.69,.25,1.24,.76,1.56,1.42,.31,.67,.34,1.41,.09,2.11h0c-.25,.69-.75,1.24-1.42,1.56-.37,.17-.77,.26-1.17,.26Zm0-4.51c-.25,0-.5,.06-.74,.17-.42,.2-.75,.55-.91,.99-.16,.44-.14,.92,.06,1.34,.2,.42,.55,.75,.99,.91,.44,.16,.92,.14,1.34-.06,.42-.2,.75-.55,.91-.99h0c.16-.44,.14-.92-.06-1.34-.2-.42-.55-.75-.99-.91-.2-.07-.4-.11-.6-.11Z"/>
        </g>
      </g>
      <g>
        <g>
          <circle class="cls-4" cx="102.32" cy="32.19" r="2.25"/>
          <path class="cls-3" d="M102.33,34.95c-.32,0-.63-.06-.94-.17-1.43-.52-2.17-2.1-1.65-3.53,.52-1.43,2.1-2.17,3.53-1.65,.69,.25,1.25,.76,1.56,1.42s.34,1.41,.09,2.11h0c-.25,.69-.75,1.24-1.42,1.56-.37,.17-.77,.26-1.17,.26Zm0-4.51c-.72,0-1.39,.44-1.65,1.16-.33,.91,.14,1.92,1.05,2.25,.44,.16,.92,.14,1.34-.06,.42-.2,.75-.55,.91-.99h0c.16-.44,.14-.92-.06-1.34-.2-.42-.55-.75-.99-.91-.2-.07-.4-.11-.6-.11Z"/>
        </g>
        <g>
          <circle class="cls-4" cx="109.51" cy="34.8" r="2.25"/>
          <path class="cls-3" d="M109.51,37.55c-.31,0-.63-.05-.94-.17-.69-.25-1.24-.76-1.56-1.42s-.34-1.41-.09-2.11c.25-.69,.75-1.24,1.42-1.56s1.42-.35,2.11-.09c1.43,.52,2.17,2.1,1.65,3.53h0c-.41,1.12-1.47,1.82-2.59,1.82Zm0-4.51c-.25,0-.51,.06-.74,.17-.42,.2-.75,.55-.91,.99-.16,.44-.14,.92,.06,1.34,.2,.42,.55,.75,.99,.91,.91,.33,1.92-.14,2.25-1.05h0c.33-.91-.14-1.92-1.05-2.25-.2-.07-.4-.11-.6-.11Z"/>
        </g>
      </g>
      <g>
        <g>
          <circle class="cls-4" cx="107.62" cy="17.6" r="2.25"/>
          <path class="cls-3" d="M107.62,20.36c-.32,0-.63-.06-.94-.17-1.43-.52-2.17-2.1-1.65-3.53,.25-.69,.76-1.24,1.42-1.56,.67-.31,1.42-.34,2.11-.09,.69,.25,1.24,.76,1.56,1.42,.31,.67,.34,1.41,.09,2.11h0c-.25,.69-.75,1.24-1.42,1.56-.37,.17-.77,.26-1.17,.26Zm0-4.51c-.25,0-.51,.06-.74,.17-.42,.2-.75,.55-.91,.99-.33,.91,.14,1.92,1.05,2.25,.44,.16,.92,.14,1.34-.06,.42-.2,.75-.55,.91-.99h0c.16-.44,.14-.92-.06-1.34-.2-.42-.55-.75-.99-.91-.2-.07-.4-.11-.6-.11Z"/>
        </g>
        <g>
          <circle class="cls-4" cx="114.8" cy="20.21" r="2.25"/>
          <path class="cls-3" d="M114.8,22.96c-.31,0-.63-.05-.94-.17-.69-.25-1.25-.76-1.56-1.42s-.34-1.41-.09-2.11c.52-1.43,2.1-2.17,3.53-1.65,1.43,.52,2.17,2.1,1.65,3.53h0c-.41,1.12-1.47,1.82-2.59,1.82Zm0-4.51c-.72,0-1.39,.44-1.65,1.16-.16,.44-.14,.92,.06,1.34,.2,.42,.55,.75,.99,.91,.91,.33,1.92-.14,2.25-1.05,.33-.91-.14-1.92-1.05-2.25-.2-.07-.4-.11-.6-.11Z"/>
        </g>
      </g>
    </g>
    <g>
      <g>
        <path class="cls-5" d="M10.01,16.5c45.96-.9,89.36,7.99,131.52,26.94,.18-.59,.36-1.18,.54-1.77C99.8,22.66,56.28,13.74,10.2,14.66c-.06,.62-.12,1.23-.18,1.85Z"/>
        <path class="cls-3" d="M141.85,44.14l-.52-.23C99.05,24.9,56.1,16.09,10.02,17h-.56s.28-2.84,.28-2.84h.44c46.37-.93,89.56,7.92,132.09,27.05l.4,.18-.83,2.74ZM16.45,15.94c43.61,0,84.5,8.8,124.77,26.82l.25-.81C99.34,23.07,56.54,14.31,10.65,15.15l-.08,.85c1.96-.04,3.93-.05,5.88-.05Z"/>
      </g>
      <g>
        <path class="cls-5" d="M137.82,33.42C95.09,15.18,51.08,7.12,4.38,8.98c-.06,.62-.11,1.23-.17,1.85,46.57-1.85,90.47,6.19,133.09,24.38,.17-.59,.35-1.19,.52-1.78Z"/>
        <path class="cls-3" d="M137.63,35.89l-.52-.22C94.39,17.43,50.93,9.47,4.23,11.32l-.57,.02,.26-2.85,.44-.02c46.97-1.87,90.69,6.14,133.66,24.48l.41,.17-.8,2.75ZM17.33,10.06c41.72,0,80.99,8.04,119.65,24.46l.24-.82C94.66,15.6,51.33,7.67,4.84,9.46l-.08,.84c4.22-.16,8.41-.24,12.57-.24Z"/>
      </g>
      <g>
        <path class="cls-2" d="M137.3,35.2C94.69,17.02,50.79,8.98,4.21,10.82c-.06,.61-.11,1.23-.17,1.84,2.13-.08,4.25-.15,6.37-.19-.07,.73-.15,1.46-.22,2.19,46.08-.91,89.6,8,131.88,27.02,.2-.67,.41-1.35,.61-2.02-1.97-.89-3.94-1.75-5.92-2.6,.18-.62,.36-1.24,.54-1.86Z"/>
        <path class="cls-3" d="M142.39,42.36l-.52-.23C99.47,23.06,56.4,14.24,10.21,15.16h-.56s.22-2.17,.22-2.17c-1.93,.04-3.86,.1-5.8,.18l-.57,.02,.26-2.84,.44-.02c46.85-1.86,90.45,6.13,133.31,24.42l.41,.17-.54,1.86c1.84,.79,3.68,1.6,5.52,2.42l.4,.18-.9,2.98ZM16.7,14.09c43.71,0,84.69,8.82,125.06,26.89l.32-1.05c-1.83-.82-3.67-1.63-5.51-2.41l-.41-.17,.54-1.86C94.25,17.44,51.05,9.53,4.67,11.31l-.08,.84c1.94-.07,3.88-.13,5.81-.17h.56s-.22,2.17-.22,2.17c1.99-.04,3.97-.05,5.95-.05Z"/>
      </g>
      <g>
        <path class="cls-5" d="M6.15,55.69c43-.69,83.87,7.68,123.36,25.28,.19-.59,.37-1.18,.56-1.77C90.45,61.53,49.46,53.13,6.31,53.83c-.06,.62-.11,1.23-.17,1.85Z"/>
        <path class="cls-3" d="M129.81,81.65l-.51-.23C89.64,63.74,49.39,55.47,6.16,56.19h-.55s.25-2.84,.25-2.84h.45c43.47-.71,84.04,7.59,123.96,25.4l.41,.18-.86,2.73ZM11.19,55.14c41.26,0,79.92,8.24,118.01,25.14l.25-.81C89.93,61.92,49.77,53.68,6.77,54.33l-.08,.85c1.5-.02,3-.03,4.49-.03Z"/>
      </g>
      <g>
        <path class="cls-5" d="M126.24,71.14C86.12,54.16,44.61,46.53,.84,48.11c-.05,.62-.1,1.23-.15,1.85,43.63-1.57,85.02,6.04,125.01,22.96,.18-.59,.36-1.19,.54-1.78Z"/>
        <path class="cls-3" d="M126.02,73.6l-.51-.22C85.34,56.38,44.52,48.89,.71,50.46l-.56,.02,.23-2.85,.45-.02c44.09-1.59,85.19,5.95,125.61,23.07l.41,.17-.83,2.74ZM12.02,49.25c39.52,0,76.72,7.55,113.37,22.99l.25-.82C85.61,54.55,44.93,47.08,1.3,48.59l-.07,.85c3.61-.12,7.21-.19,10.78-.19Z"/>
      </g>
      <g>
        <path class="cls-2" d="M125.7,72.92C85.71,56,44.32,48.39,.69,49.96c-.05,.61-.1,1.23-.15,1.84,1.99-.07,3.98-.12,5.97-.16-.07,.73-.13,1.46-.2,2.19,43.14-.7,84.14,7.7,123.75,25.36,.21-.67,.42-1.34,.63-2.01-1.85-.82-3.7-1.63-5.55-2.41,.19-.62,.37-1.24,.56-1.85Z"/>
        <path class="cls-3" d="M130.37,79.88l-.51-.23C90.07,61.91,49.68,53.63,6.32,54.33h-.56s.2-2.18,.2-2.18c-1.8,.03-3.6,.08-5.4,.15l-.56,.02,.23-2.85,.45-.02c43.96-1.58,84.92,5.94,125.23,23l.41,.17-.56,1.85c1.72,.73,3.43,1.48,5.15,2.24l.41,.18-.94,2.97ZM11.41,53.29c41.38,0,80.15,8.27,118.34,25.22l.33-1.05c-1.71-.76-3.42-1.5-5.13-2.23l-.41-.17,.56-1.85C85.2,56.39,44.65,48.94,1.15,50.44l-.07,.84c1.81-.06,3.61-.11,5.42-.14h.56s-.2,2.18-.2,2.18c1.52-.02,3.04-.03,4.55-.03Z"/>
      </g>
    </g>
  </g>
  <rect class="cls-1" x="134.26" y="48.04" width=".81" height=".99" transform="translate(27.78 -46.68) rotate(21.88)"/>
</svg>