<?xml version="1.0" encoding="UTF-8"?>
<svg id="Livello_1" data-name="Livello 1" xmlns="http://www.w3.org/2000/svg" viewBox="0 0 26.51 64.13">
  <defs>
    <style>
      .cls-1 {
        fill: #fff;
      }

      .cls-2 {
        fill: #3f4541;
      }

      .cls-3 {
        fill: #707472;
      }
    </style>
  </defs>
  <g>
    <rect class="cls-3" x="19.6" y="8.45" width="2.14" height="10.26"/>
    <path class="cls-2" d="M22.24,19.21h-3.14V7.95h3.14v11.26Zm-2.14-1h1.14V8.95h-1.14v9.26Z"/>
  </g>
  <g>
    <rect class="cls-3" x="19.6" y="46.56" width="2.14" height="10.26"/>
    <path class="cls-2" d="M22.24,57.32h-3.14v-11.26h3.14v11.26Zm-2.14-1h1.14v-9.26h-1.14v9.26Z"/>
  </g>
  <g>
    <path class="cls-3" d="M4.06,.5V10.25h4.12v4.33H4.06v6.42h1.04v2.44c-.24-.62-.84-1.06-1.55-1.06-.92,0-1.67,.75-1.67,1.67s.75,1.67,1.67,1.67c.7,0,1.3-.44,1.55-1.06v2.38h-1.04v11.81c.27-.25,.63-.41,1.03-.41,.84,0,1.52,.68,1.52,1.52s-.68,1.52-1.52,1.52c-.4,0-.76-.16-1.03-.41v22.55H12.34V.5H4.06Z"/>
    <path class="cls-2" d="M12.84,64.13H3.56V26.54h1.04v-.6c-.31,.17-.67,.27-1.05,.27-1.2,0-2.17-.97-2.17-2.17s.97-2.17,2.17-2.17c.38,0,.73,.1,1.05,.27v-.65h-1.04v-7.42H7.69v-3.33H3.56V0H12.84V64.13Zm-8.28-1h7.28V1H4.56V9.75h4.12v5.33H4.56v5.42h1.04v7.04h-1.04v10.47c.17-.05,.35-.07,.53-.07,1.12,0,2.02,.91,2.02,2.02s-.91,2.02-2.02,2.02c-.18,0-.36-.02-.53-.07v21.21Zm-.97-23.17l.81,.75c.19,.18,.44,.28,.69,.28,.56,0,1.02-.46,1.02-1.02s-.46-1.02-1.02-1.02c-.25,0-.5,.1-.69,.28l-.81,.75Zm-.04-17.08c-.64,0-1.17,.52-1.17,1.17s.52,1.17,1.17,1.17c.48,0,.91-.29,1.08-.74l.17-.43-.17-.43c-.18-.45-.6-.74-1.08-.74Z"/>
  </g>
  <g>
    <path class="cls-3" d="M15.91,12.3h0s.02,0,.02,0c0,0-.01,0-.02,0Z"/>
    <polygon class="cls-2" points="15.92 12.8 15.91 12.42 15.87 12.8 15.94 11.8 15.93 11.83 15.94 11.8 15.95 11.8 15.93 12.03 15.95 11.88 15.92 12.8"/>
  </g>
  <g>
    <rect class="cls-3" x="8.79" y="14.41" width="12.91" height="1.87"/>
    <path class="cls-2" d="M22.2,16.78H8.29v-2.87h13.91v2.87Zm-12.91-1h11.91v-.87H9.29v.87Z"/>
  </g>
  <g>
    <rect class="cls-3" x="8.79" y="47.14" width="12.91" height="1.87"/>
    <path class="cls-2" d="M22.2,49.51H8.29v-2.87h13.91v2.87Zm-12.91-1h11.91v-.87H9.29v.87Z"/>
  </g>
  <g>
    <rect class="cls-3" x=".5" y="8.45" width="21.24" height="1.87"/>
    <path class="cls-2" d="M22.24,10.82H0v-2.87H22.24v2.87ZM1,9.82H21.24v-.87H1v.87Z"/>
  </g>
  <g>
    <polygon class="cls-3" points="13.3 10.32 .5 10.32 .5 12.19 8.79 12.19 8.79 14.41 21.7 14.41 21.7 12.28 13.3 12.28 13.3 10.32"/>
    <path class="cls-2" d="M22.2,14.91H8.29v-2.22H0v-2.87H13.79v1.95h8.41v3.13Zm-12.91-1h11.91v-1.13H12.79v-1.95H1v.87H9.29v2.22Z"/>
  </g>
  <rect class="cls-1" x="3.52" y="39.47" width=".81" height=".99"/>
  <g>
    <rect class="cls-3" x="8.79" y="54.95" width="12.91" height="1.87"/>
    <path class="cls-2" d="M22.2,57.32H8.29v-2.87h13.91v2.87Zm-12.91-1h11.91v-.87H9.29v.87Z"/>
  </g>
  <g>
    <rect class="cls-3" x=".5" y="48.99" width="21.24" height="1.87"/>
    <path class="cls-2" d="M22.24,51.37H0v-2.87H22.24v2.87Zm-21.24-1H21.24v-.87H1v.87Z"/>
  </g>
  <g>
    <polygon class="cls-3" points="13.3 50.87 .5 50.87 .5 52.73 8.79 52.73 8.79 54.95 21.7 54.95 21.7 52.82 13.3 52.82 13.3 50.87"/>
    <path class="cls-2" d="M22.2,55.45H8.29v-2.22H0v-2.87H13.79v1.95h8.41v3.13Zm-12.91-1h11.91v-1.13H12.79v-1.95H1v.87H9.29v2.22Z"/>
  </g>
  <g>
    <path class="cls-3" d="M19.83,25.69c-.07,0-.14,0-.21,.01v-9.46h-7.45v30.7h7.45v-8.88c.07,0,.14,.01,.21,.01,3.42,0,6.19-2.77,6.19-6.19s-2.77-6.19-6.19-6.19Zm0,8.89c-.07,0-.14-.02-.21-.02-1.39-.11-2.49-1.26-2.49-2.68s1.1-2.57,2.49-2.68c.07,0,.14-.02,.21-.02,1.49,0,2.7,1.21,2.7,2.7s-1.21,2.7-2.7,2.7Z"/>
    <path class="cls-2" d="M20.12,47.43H11.67V15.74h8.45v9.46c3.55,.15,6.4,3.09,6.4,6.68s-2.84,6.53-6.4,6.68v8.88Zm-7.45-1h6.45v-8.9l.62,.02h0c3.22,0,5.77-2.55,5.77-5.68s-2.55-5.69-5.69-5.69l-.71,.03v-9.48h-6.45v29.7Zm7.16-11.36c-.07,0-.13,0-.19-.02-1.71-.14-3-1.53-3-3.18s1.3-3.05,2.95-3.18c.12-.02,.18-.02,.25-.02,1.76,0,3.2,1.44,3.2,3.2s-1.43,3.2-3.2,3.2Zm0-5.4l-.17,.02c-1.14,.09-2.03,1.05-2.03,2.18s.89,2.09,2.03,2.18l.17,.02c1.21,0,2.2-.99,2.2-2.2s-.99-2.2-2.2-2.2Z"/>
  </g>
</svg>