<?xml version="1.0" encoding="UTF-8"?>
<svg id="Livello_1" data-name="Livello 1" xmlns="http://www.w3.org/2000/svg" viewBox="0 0 28.42 64.13">
  <defs>
    <style>
      .cls-1 {
        fill: #fff;
      }

      .cls-2 {
        fill: #3f4541;
      }

      .cls-3 {
        fill: #707472;
      }
    </style>
  </defs>
  <g>
    <polygon class="cls-3" points="16.11 13.79 12.05 13.79 9.76 19.55 16.11 19.55 16.11 13.79"/>
    <path class="cls-2" d="M16.61,20.05h-7.59l2.69-6.76h4.9v6.76Zm-6.11-1h5.11v-4.76h-3.22l-1.89,4.76Z"/>
  </g>
  <g>
    <polygon class="cls-3" points="16.11 50.65 12.05 50.65 9.76 43.63 16.11 43.63 16.11 50.65"/>
    <path class="cls-2" d="M16.61,51.15h-4.92l-2.62-8.02h7.54v8.02Zm-4.19-1h3.19v-6.02h-5.16l1.96,6.02Z"/>
  </g>
  <g>
    <rect class="cls-3" x="12.09" y="8.45" width="12.22" height="1.87"/>
    <path class="cls-2" d="M24.81,10.82H11.59v-2.87h13.22v2.87Zm-12.22-1h11.22v-.87H12.59v.87Z"/>
  </g>
  <g>
    <path class="cls-3" d="M8.84,19.55v4.2c-.07,0-.14-.01-.21-.01-4.49,0-8.13,3.64-8.13,8.13s3.64,8.13,8.13,8.13c.07,0,.14,0,.21-.01v3.63h7.27V19.55h-7.27Zm0,17.82v-2.31c1.67-.11,2.99-1.48,2.99-3.18s-1.32-3.07-2.99-3.18v-2.31c2.94,.11,5.3,2.52,5.3,5.49s-2.35,5.38-5.3,5.49Z"/>
    <path class="cls-2" d="M16.61,44.12H8.34v-3.62c-4.63-.15-8.34-3.97-8.34-8.63s3.72-8.48,8.34-8.63v-4.2h8.27v25.08Zm-7.27-1h6.27V20.05h-6.27v4.21l-.63-.02h0c-4.29,0-7.71,3.42-7.71,7.63s3.42,7.63,7.63,7.63l.71-.02v3.64Zm-1-5.23v-3.3l.47-.03c1.42-.09,2.53-1.27,2.53-2.68s-1.11-2.59-2.53-2.68l-.47-.03v-3.3l.52,.02c3.24,.12,5.78,2.75,5.78,5.99s-2.54,5.87-5.78,5.99l-.52,.02Zm1-2.39v1.33c2.45-.34,4.3-2.43,4.3-4.95s-1.85-4.61-4.3-4.95v1.33c1.71,.33,2.99,1.84,2.99,3.62s-1.28,3.29-2.99,3.62Z"/>
  </g>
  <g>
    <circle class="cls-1" cx="8.63" cy="31.87" r="1.53"/>
    <path class="cls-2" d="M8.63,33.9c-1.12,0-2.03-.91-2.03-2.03s.91-2.03,2.03-2.03,2.03,.91,2.03,2.03-.91,2.03-2.03,2.03Zm0-3.06c-.57,0-1.03,.46-1.03,1.03s.46,1.03,1.03,1.03,1.03-.46,1.03-1.03-.46-1.03-1.03-1.03Z"/>
  </g>
  <g>
    <rect class="cls-3" x="12.09" y="54.09" width="12.22" height="1.87"/>
    <path class="cls-2" d="M24.81,56.46H11.59v-2.87h13.22v2.87Zm-12.22-1h11.22v-.87H12.59v.87Z"/>
  </g>
  <g>
    <g>
      <path class="cls-3" d="M19.89,49.64h4.51v-8.56c-.27,.25-.63,.41-1.03,.41-.84,0-1.52-.68-1.52-1.52s.68-1.52,1.52-1.52c.4,0,.76,.16,1.03,.41v-11.81h-1.04v-2.38c.24,.62,.84,1.06,1.55,1.06,.92,0,1.67-.75,1.67-1.67s-.75-1.67-1.67-1.67c-.7,0-1.3,.44-1.55,1.06v-2.44h1.04v-6.42h-4.12v-4.33h4.12V.5h-8.28V50.65h3.77v-1.02Z"/>
      <path class="cls-2" d="M20.39,51.15h-4.77V0h9.28V10.75h-4.12v3.33h4.12v7.42h-1.04v.65c.31-.17,.67-.27,1.05-.27,1.19,0,2.17,.97,2.17,2.17s-.97,2.17-2.17,2.17c-.38,0-.73-.1-1.05-.27v.6h1.04v23.6h-4.51v1.02Zm-3.77-1h2.77v-1.02h4.51v-7.22c-.17,.05-.35,.07-.53,.07-1.12,0-2.02-.91-2.02-2.02s.91-2.02,2.02-2.02c.18,0,.36,.02,.53,.07v-10.47h-1.04v-7.04h1.04v-5.42h-4.12v-5.33h4.12V1h-7.28V50.15Zm6.75-11.21c-.56,0-1.02,.46-1.02,1.02s.46,1.02,1.02,1.02c.25,0,.5-.1,.69-.28l.81-.75-.81-.75c-.19-.18-.44-.28-.69-.28Zm.29-14.89l.17,.43c.18,.45,.6,.74,1.08,.74,.64,0,1.17-.52,1.17-1.17s-.52-1.17-1.17-1.17c-.48,0-.91,.29-1.08,.74l-.17,.43Z"/>
    </g>
    <g>
      <rect class="cls-3" x="16.12" y="54.19" width="8.28" height="9.44"/>
      <path class="cls-2" d="M24.9,64.13H15.62v-10.44h9.28v10.44Zm-8.28-1h7.28v-8.44h-7.28v8.44Z"/>
    </g>
    <g>
      <polygon class="cls-3" points="24.4 52.04 19.89 52.04 19.89 50.65 16.12 50.65 8.05 50.65 8.05 49.53 2.04 49.53 2.04 50.65 2.04 53.07 2.04 54.19 16.12 54.19 24.4 54.19 27.92 54.19 27.92 53.23 27.92 52.04 24.4 52.04"/>
      <path class="cls-2" d="M28.42,54.69H1.54v-5.66h7.01v1.13h11.84v1.38h8.03v3.15Zm-25.88-1H27.42v-1.15h-8.03v-1.38H7.55v-1.13H2.54v3.66Z"/>
    </g>
  </g>
  <rect class="cls-1" x="24.14" y="39.47" width=".81" height=".99" transform="translate(49.08 79.93) rotate(-180)"/>
  <g>
    <polygon class="cls-3" points="27.92 11.19 27.92 10.22 2.04 10.22 2.04 11.35 2.04 13.76 2.04 14.89 3.23 14.89 3.23 13.79 16.95 13.79 16.95 14.72 27.92 14.72 27.92 11.19 27.92 11.19"/>
    <path class="cls-2" d="M3.73,15.39H1.54v-5.66H28.42v5.5h-11.97v-.94H3.73v1.1Zm-1.19-1h.19v-1.1h14.72v.94h9.97v-3.5H2.54v3.66Z"/>
  </g>
</svg>