<?xml version="1.0" encoding="UTF-8"?>
<svg id="Livello_1" data-name="Livello 1" xmlns="http://www.w3.org/2000/svg" viewBox="0 0 76.31 69.03">
  <defs>
    <style>
      .cls-1 {
        fill: #fff;
      }

      .cls-2 {
        fill: #d7d5d6;
      }

      .cls-3 {
        fill: #3f4541;
      }

      .cls-4 {
        fill: #707472;
      }

      .cls-5 {
        fill: #606663;
      }
    </style>
  </defs>
  <g>
    <g>
      <rect class="cls-4" x="28.95" y="1.13" width="16.2" height="63.13" transform="translate(2.99 -3.1) rotate(5)"/>
      <path class="cls-3" d="M42.83,65.39l-17.13-1.5L31.28,0l17.13,1.5-5.59,63.89Zm-16.05-2.41l15.14,1.33L47.33,2.41l-15.14-1.33-5.41,61.89Z"/>
    </g>
    <g>
      <g>
        <circle class="cls-4" cx="35.66" cy="4.75" r="2.25"/>
        <path class="cls-3" d="M35.67,7.5c-.08,0-.16,0-.25-.01-1.51-.13-2.64-1.47-2.5-2.98,.06-.73,.41-1.4,.97-1.87s1.28-.7,2.01-.63c.73,.06,1.4,.41,1.87,.97,.47,.56,.7,1.28,.63,2.01h0c-.06,.73-.41,1.4-.97,1.87-.5,.42-1.12,.64-1.77,.64Zm0-4.51c-.41,0-.81,.14-1.12,.41-.36,.3-.58,.72-.62,1.19-.08,.96,.63,1.82,1.6,1.9,.46,.04,.92-.1,1.28-.4,.36-.3,.58-.72,.62-1.19h0c.04-.47-.1-.92-.4-1.28-.3-.36-.72-.58-1.19-.62-.05,0-.1,0-.16,0Z"/>
      </g>
      <g>
        <circle class="cls-4" cx="43.28" cy="5.41" r="2.25"/>
        <path class="cls-3" d="M43.28,8.17c-.08,0-.16,0-.25-.01-1.51-.13-2.64-1.47-2.5-2.98,.06-.73,.41-1.4,.97-1.87s1.28-.7,2.01-.63c1.51,.13,2.64,1.47,2.5,2.98h0c-.06,.73-.41,1.4-.97,1.87-.5,.42-1.12,.64-1.77,.64Zm0-4.51c-.41,0-.81,.14-1.12,.41-.36,.3-.58,.72-.62,1.19-.08,.96,.63,1.82,1.6,1.9,.46,.04,.92-.1,1.28-.4s.58-.72,.62-1.19h0c.04-.47-.1-.92-.4-1.28-.3-.36-.72-.58-1.19-.62-.05,0-.1,0-.16,0Z"/>
      </g>
    </g>
    <g>
      <g>
        <circle class="cls-4" cx="34.28" cy="20.51" r="2.25"/>
        <path class="cls-3" d="M34.29,23.26c-.08,0-.16,0-.25-.01-1.51-.13-2.64-1.47-2.5-2.98,.13-1.51,1.45-2.64,2.98-2.5,.73,.06,1.4,.41,1.87,.97,.47,.56,.7,1.28,.63,2.01h0c-.06,.73-.41,1.4-.97,1.87-.5,.42-1.12,.64-1.77,.64Zm0-4.51c-.41,0-.81,.14-1.12,.41-.36,.3-.58,.72-.62,1.19-.08,.96,.63,1.82,1.6,1.9,.46,.04,.92-.1,1.28-.4s.58-.72,.62-1.19h0c.04-.47-.1-.92-.4-1.28-.3-.36-.72-.58-1.19-.62-.05,0-.1,0-.16,0Z"/>
      </g>
      <g>
        <circle class="cls-4" cx="41.9" cy="21.17" r="2.25"/>
        <path class="cls-3" d="M41.91,23.93c-.08,0-.16,0-.25-.01-.73-.06-1.4-.41-1.87-.97-.47-.56-.7-1.28-.63-2.01s.41-1.4,.97-1.87c.56-.47,1.28-.7,2.01-.63,.73,.06,1.4,.41,1.87,.97,.47,.56,.7,1.28,.63,2.01h0c-.06,.73-.41,1.4-.97,1.87-.5,.42-1.12,.64-1.77,.64Zm0-4.51c-.41,0-.81,.14-1.12,.41-.36,.3-.58,.72-.62,1.19s.1,.92,.4,1.28c.3,.36,.72,.58,1.19,.62,.46,.04,.92-.1,1.28-.4,.36-.3,.58-.72,.62-1.19h0c.04-.47-.1-.92-.4-1.28-.3-.36-.72-.58-1.19-.62-.05,0-.1,0-.16,0Z"/>
      </g>
    </g>
    <g>
      <g>
        <circle class="cls-4" cx="33.58" cy="28.51" r="2.25"/>
        <path class="cls-3" d="M33.59,31.27c-.08,0-.16,0-.25-.01-1.51-.13-2.64-1.47-2.5-2.98,.06-.73,.41-1.4,.97-1.87s1.28-.7,2.01-.63c1.51,.13,2.64,1.47,2.5,2.98h0c-.06,.73-.41,1.4-.97,1.87-.5,.42-1.12,.65-1.77,.65Zm0-4.51c-.41,0-.81,.14-1.12,.41-.36,.3-.58,.72-.62,1.19-.08,.96,.63,1.82,1.6,1.9,.46,.04,.92-.1,1.28-.4,.36-.3,.58-.72,.62-1.19,.08-.96-.63-1.82-1.6-1.9-.05,0-.1,0-.16,0Z"/>
      </g>
      <g>
        <circle class="cls-4" cx="41.2" cy="29.18" r="2.25"/>
        <path class="cls-3" d="M41.2,31.93c-.08,0-.16,0-.24-.01-1.51-.13-2.63-1.47-2.5-2.98,.06-.73,.41-1.4,.97-1.87s1.28-.7,2.01-.63c1.51,.13,2.64,1.47,2.5,2.98h0c-.12,1.43-1.33,2.52-2.74,2.52Zm0-4.51c-.41,0-.81,.14-1.12,.41-.36,.3-.58,.72-.62,1.19-.08,.96,.63,1.82,1.59,1.9,.95,.08,1.82-.63,1.9-1.6h0c.04-.47-.1-.92-.4-1.28-.3-.36-.72-.58-1.19-.62-.05,0-.1,0-.16,0Z"/>
      </g>
    </g>
    <g>
      <g>
        <circle class="cls-4" cx="32.88" cy="36.52" r="2.25"/>
        <path class="cls-3" d="M32.88,39.27c-.08,0-.16,0-.24-.01-.73-.06-1.4-.41-1.87-.97-.47-.56-.7-1.28-.63-2.01s.41-1.4,.97-1.87c.56-.47,1.28-.7,2.01-.63,1.51,.13,2.64,1.47,2.5,2.98h0c-.12,1.43-1.33,2.51-2.74,2.51Zm0-4.51c-.41,0-.81,.14-1.12,.41-.36,.3-.58,.72-.62,1.19s.1,.92,.4,1.28c.3,.36,.72,.58,1.19,.62,.46,.04,.92-.1,1.28-.4,.36-.3,.58-.72,.62-1.19,.08-.96-.63-1.82-1.6-1.9-.05,0-.1,0-.16,0Z"/>
      </g>
      <g>
        <circle class="cls-4" cx="40.5" cy="37.18" r="2.25"/>
        <path class="cls-3" d="M40.5,39.94c-.08,0-.16,0-.24-.01-.73-.06-1.4-.41-1.87-.97-.47-.56-.7-1.28-.63-2.01,.06-.73,.41-1.4,.97-1.87,.56-.47,1.28-.7,2.01-.63,1.51,.13,2.64,1.47,2.5,2.98h0c-.13,1.43-1.33,2.51-2.74,2.51Zm0-4.51c-.41,0-.81,.14-1.12,.41-.36,.3-.58,.72-.62,1.19-.04,.47,.1,.92,.4,1.28s.72,.58,1.19,.62c.97,.09,1.82-.63,1.9-1.59h0c.08-.96-.63-1.82-1.6-1.9-.05,0-.1,0-.16,0Z"/>
      </g>
    </g>
    <g>
      <g>
        <circle class="cls-4" cx="32.18" cy="44.52" r="2.25"/>
        <path class="cls-3" d="M32.19,47.28c-.08,0-.16,0-.25-.01-.73-.06-1.4-.41-1.87-.97-.47-.56-.7-1.28-.63-2.01,.13-1.51,1.46-2.64,2.98-2.5,.73,.06,1.4,.41,1.87,.97,.47,.56,.7,1.28,.63,2.01h0c-.06,.73-.41,1.4-.97,1.87-.5,.42-1.12,.64-1.77,.64Zm0-4.51c-.41,0-.81,.14-1.12,.41-.36,.3-.58,.72-.62,1.19-.04,.47,.1,.92,.4,1.28,.3,.36,.72,.58,1.19,.62,.46,.04,.92-.1,1.28-.4,.36-.3,.58-.72,.62-1.19h0c.04-.47-.1-.92-.4-1.28-.3-.36-.72-.58-1.19-.62-.05,0-.1,0-.16,0Z"/>
      </g>
      <g>
        <circle class="cls-4" cx="39.8" cy="45.19" r="2.25"/>
        <path class="cls-3" d="M39.8,47.94c-.08,0-.16,0-.24-.01-.73-.06-1.4-.41-1.87-.97-.47-.56-.7-1.28-.63-2.01,.06-.73,.41-1.4,.97-1.87,.56-.47,1.28-.7,2.01-.63,1.51,.13,2.64,1.47,2.5,2.98h0c-.13,1.43-1.33,2.52-2.74,2.52Zm0-4.51c-.41,0-.81,.14-1.12,.41-.36,.3-.58,.72-.62,1.19-.04,.47,.1,.92,.4,1.28s.72,.58,1.19,.62c.95,.08,1.82-.63,1.9-1.6,.04-.47-.1-.92-.4-1.28-.3-.36-.72-.58-1.19-.62-.05,0-.1,0-.16,0Z"/>
      </g>
    </g>
    <g>
      <g>
        <circle class="cls-4" cx="30.83" cy="59.98" r="2.25"/>
        <path class="cls-3" d="M30.83,62.74c-.08,0-.16,0-.24-.01-1.51-.13-2.64-1.47-2.5-2.98,.13-1.51,1.45-2.63,2.99-2.5,.73,.06,1.4,.41,1.87,.97,.47,.56,.7,1.28,.63,2.01h0c-.12,1.43-1.33,2.52-2.74,2.52Zm0-4.51c-.9,0-1.67,.69-1.75,1.6-.04,.47,.1,.92,.4,1.28,.3,.36,.72,.58,1.19,.62,.95,.08,1.82-.63,1.9-1.6h0c.04-.47-.1-.92-.4-1.28s-.72-.58-1.19-.62c-.05,0-.1,0-.15,0Z"/>
      </g>
      <g>
        <circle class="cls-4" cx="38.45" cy="60.65" r="2.25"/>
        <path class="cls-3" d="M38.45,63.41c-.08,0-.16,0-.24-.01-.73-.06-1.4-.41-1.87-.97-.47-.56-.7-1.28-.63-2.01s.41-1.4,.97-1.87c.56-.47,1.28-.7,2.01-.63,.73,.06,1.4,.41,1.87,.97,.47,.56,.7,1.28,.63,2.01h0c-.12,1.43-1.33,2.51-2.74,2.51Zm0-4.51c-.41,0-.81,.14-1.12,.41-.36,.3-.58,.72-.62,1.19s.1,.92,.4,1.28c.3,.36,.72,.58,1.19,.62,.46,.04,.92-.1,1.28-.4,.36-.3,.58-.72,.62-1.19,.04-.47-.1-.92-.4-1.28-.3-.36-.72-.58-1.19-.62-.05,0-.1,0-.16,0Z"/>
      </g>
    </g>
  </g>
  <g>
    <g>
      <path class="cls-4" d="M61.86,68.45l1.86-9.57-4.05-.79,.83-4.25,4.05,.79,1.23-6.3-1.02-.2,.47-2.4c.12,.65,.63,1.2,1.32,1.33,.9,.18,1.78-.41,1.95-1.32s-.41-1.78-1.32-1.95c-.69-.13-1.36,.18-1.72,.74l.45-2.34,1.02,.2,2.25-11.59c-.31,.2-.7,.28-1.09,.2-.83-.16-1.37-.96-1.21-1.79s.96-1.37,1.79-1.21c.39,.08,.72,.3,.94,.6l4.3-22.13-8.13-1.58-12.05,61.97,8.13,1.58Z"/>
      <path class="cls-3" d="M62.26,69.03l-9.11-1.77,.09-.49L65.39,4.31l9.11,1.77-7.17,36.9-1.02-.2-.11,.58c.34-.11,.71-.14,1.08-.06,.57,.11,1.06,.44,1.38,.92,.32,.48,.44,1.06,.33,1.62-.11,.57-.43,1.06-.91,1.38-.48,.32-1.06,.44-1.63,.33-.37-.07-.7-.23-.98-.46l-.12,.64,1.02,.2-1.42,7.29-4.05-.79-.64,3.27,4.05,.79-2.05,10.55Zm-7.94-2.56l7.14,1.39,1.67-8.59-4.05-.79,1.02-5.23,4.05,.79,1.04-5.32-1.02-.2,.29-1.51h0s1.05-5.41,1.05-5.41l1.02,.2,2-10.28c-.18,.01-.36,0-.54-.03-.53-.1-.99-.41-1.29-.85-.3-.45-.41-.99-.31-1.52,.1-.53,.41-.99,.86-1.29,.45-.3,.99-.41,1.52-.31,.18,.03,.35,.09,.51,.17l4.05-20.82-7.15-1.39-11.86,60.99Zm11.31-21.28l.08,.45c.09,.48,.45,.84,.92,.93,.31,.06,.62,0,.88-.18,.26-.17,.43-.44,.49-.74,.06-.31,0-.62-.18-.88-.17-.26-.44-.43-.74-.49-.47-.09-.94,.11-1.2,.52l-.25,.39Zm2.75-16.7c-.2,0-.4,.06-.57,.18-.23,.15-.38,.39-.43,.65-.05,.27,0,.54,.16,.77,.15,.23,.39,.38,.65,.43,.25,.05,.51,0,.73-.14l.94-.58-.65-.89c-.15-.21-.38-.35-.63-.4-.07-.01-.13-.02-.2-.02Z"/>
    </g>
    <g>
      <circle class="cls-4" cx="69.25" cy="9.48" r="2.25"/>
      <path class="cls-3" d="M69.25,12.24c-.18,0-.35-.02-.53-.05-.72-.14-1.35-.55-1.76-1.16-.41-.61-.56-1.34-.42-2.07,.14-.72,.55-1.35,1.16-1.76,.61-.41,1.34-.56,2.07-.42,.72,.14,1.35,.55,1.76,1.16,.41,.61,.56,1.34,.42,2.07s-.55,1.35-1.16,1.76c-.46,.31-.99,.47-1.53,.47Zm0-4.51c-.35,0-.68,.1-.98,.3-.39,.26-.65,.66-.74,1.12-.09,.46,0,.93,.27,1.32,.26,.39,.66,.65,1.12,.74,.46,.09,.93,0,1.32-.27,.39-.26,.65-.66,.74-1.12h0c.09-.46,0-.93-.27-1.32-.26-.39-.66-.65-1.12-.74-.11-.02-.23-.03-.34-.03Z"/>
    </g>
    <g>
      <circle class="cls-4" cx="66.23" cy="25.02" r="2.25"/>
      <path class="cls-3" d="M66.23,27.77c-.17,0-.35-.02-.53-.05-1.49-.29-2.47-1.74-2.18-3.23,.14-.72,.55-1.35,1.16-1.76,.61-.41,1.34-.56,2.07-.42,1.49,.29,2.47,1.74,2.18,3.23h0c-.26,1.31-1.41,2.23-2.7,2.23Zm0-4.51c-.35,0-.68,.1-.98,.3-.39,.26-.65,.66-.74,1.12-.09,.46,0,.93,.27,1.32s.66,.65,1.12,.74c.95,.19,1.87-.44,2.06-1.39s-.44-1.87-1.39-2.06c-.11-.02-.23-.03-.34-.03Z"/>
    </g>
    <g>
      <circle class="cls-4" cx="64.7" cy="32.9" r="2.25"/>
      <path class="cls-3" d="M64.7,35.66c-.17,0-.35-.02-.53-.05-1.49-.29-2.47-1.74-2.18-3.23,.14-.72,.55-1.35,1.16-1.76,.61-.41,1.34-.56,2.07-.42,1.49,.29,2.47,1.74,2.18,3.23h0c-.26,1.31-1.41,2.23-2.7,2.23Zm0-4.51c-.35,0-.68,.1-.98,.3-.39,.26-.65,.66-.74,1.12-.18,.95,.44,1.87,1.39,2.06,.95,.19,1.87-.44,2.06-1.39,.09-.46,0-.93-.27-1.32-.26-.39-.66-.65-1.12-.74-.11-.02-.23-.03-.34-.03Z"/>
    </g>
    <g>
      <circle class="cls-4" cx="63.16" cy="40.79" r="2.25"/>
      <path class="cls-3" d="M63.17,43.55c-.18,0-.35-.02-.53-.05-1.49-.29-2.47-1.74-2.18-3.23,.14-.72,.55-1.35,1.16-1.76,.61-.41,1.34-.56,2.07-.42,1.49,.29,2.47,1.74,2.18,3.23h0c-.14,.72-.55,1.35-1.16,1.76-.46,.31-.99,.47-1.53,.47Zm-.01-4.51c-.35,0-.68,.1-.98,.3-.39,.26-.65,.66-.74,1.12-.09,.46,0,.93,.27,1.32s.66,.65,1.12,.74c.46,.09,.93,0,1.32-.27,.39-.26,.65-.66,.74-1.12,.18-.95-.44-1.87-1.39-2.06-.11-.02-.23-.03-.34-.03Z"/>
    </g>
    <g>
      <circle class="cls-4" cx="61.63" cy="48.68" r="2.25"/>
      <path class="cls-3" d="M61.64,51.43c-.18,0-.35-.02-.53-.05-1.49-.29-2.47-1.74-2.18-3.23,.29-1.49,1.73-2.47,3.23-2.18,1.49,.29,2.47,1.74,2.18,3.23h0c-.14,.72-.55,1.35-1.16,1.76-.46,.31-.99,.47-1.53,.47Zm0-4.51c-.82,0-1.56,.58-1.72,1.42-.18,.95,.44,1.87,1.39,2.06,.46,.09,.93,0,1.32-.27,.39-.26,.65-.66,.74-1.12,.09-.46,0-.93-.27-1.32s-.66-.65-1.12-.74c-.11-.02-.22-.03-.33-.03Z"/>
    </g>
    <g>
      <circle class="cls-4" cx="58.67" cy="63.91" r="2.25"/>
      <path class="cls-3" d="M58.67,66.67c-.18,0-.35-.02-.53-.05-1.49-.29-2.47-1.74-2.18-3.23,.29-1.49,1.75-2.47,3.23-2.18,1.49,.29,2.47,1.74,2.18,3.23h0c-.14,.72-.55,1.35-1.16,1.76-.46,.31-.99,.47-1.53,.47Zm0-4.51c-.82,0-1.56,.58-1.72,1.42-.18,.95,.44,1.87,1.39,2.06,.46,.09,.93,0,1.32-.27,.39-.26,.65-.66,.74-1.12h0c.18-.95-.44-1.87-1.39-2.06-.11-.02-.22-.03-.33-.03Z"/>
    </g>
  </g>
  <g>
    <g>
      <path class="cls-4" d="M5.59,.65l.17,9.75,4.12-.07,.08,4.33-4.12,.07,.11,6.42,1.04-.02,.04,2.44c-.25-.61-.86-1.04-1.57-1.03-.92,.02-1.65,.77-1.64,1.7s.77,1.65,1.7,1.64c.7-.01,1.3-.46,1.53-1.08l.04,2.38-1.04,.02,.21,11.81c.27-.26,.63-.42,1.02-.43,.84-.01,1.54,.66,1.55,1.5s-.66,1.54-1.5,1.55c-.4,0-.76-.14-1.04-.39l.39,22.55,8.28-.14L13.87,.51l-8.28,.14Z"/>
      <path class="cls-3" d="M6.2,64.28l-.66-37.58,1.04-.02v-.6c-.32,.18-.68,.28-1.05,.29-.56,.01-1.13-.21-1.54-.61-.42-.4-.65-.94-.66-1.52-.01-.58,.21-1.13,.61-1.54,.4-.42,.94-.65,1.52-.66,.38,0,.74,.08,1.05,.25v-.65s-1.05,.02-1.05,.02l-.13-7.42,4.12-.07-.06-3.33-4.12,.07L5.08,.16l9.28-.16,1.12,64.12-9.28,.16Zm.61-22.23l.37,21.21,7.28-.13L13.38,1.02l-7.28,.13,.15,8.75,4.12-.07,.09,5.33-4.12,.07,.09,5.42,1.04-.02,.03,1.54h0s.07,4.03,.07,4.03h0s.03,1.47,.03,1.47l-1.04,.02,.18,10.47c.17-.05,.35-.08,.53-.08,1.13,.02,2.04,.87,2.06,1.99,.02,1.12-.87,2.04-1.99,2.06-.2,0-.36-.02-.53-.06Zm-1-1.94l.82,.73c.19,.17,.44,.26,.7,.26,.27,0,.53-.12,.72-.31,.19-.2,.29-.46,.29-.73s-.12-.53-.31-.72c-.19-.19-.44-.29-.71-.29h-.02c-.25,0-.5,.11-.69,.29l-.8,.76Zm-.32-17.08s-.01,0-.02,0c-.31,0-.6,.13-.82,.36-.22,.22-.33,.52-.33,.83,0,.31,.13,.6,.36,.82,.22,.22,.54,.34,.83,.33,.48,0,.9-.31,1.07-.76l.16-.43-.18-.42c-.18-.44-.6-.72-1.07-.72Z"/>
    </g>
    <g>
      <circle class="cls-4" cx="10.63" cy="59.86" r="2.25"/>
      <path class="cls-3" d="M10.62,62.62c-.72,0-1.39-.27-1.91-.77-.53-.51-.83-1.2-.84-1.93-.01-.74,.26-1.43,.77-1.96,.51-.53,1.2-.83,1.93-.84,1.53,.01,2.78,1.19,2.8,2.71,.01,.74-.26,1.43-.77,1.96s-1.2,.83-1.93,.84c-.02,0-.03,0-.05,0Zm0-4.51s-.02,0-.03,0c-.47,0-.91,.2-1.23,.54-.33,.34-.5,.78-.49,1.25h0c0,.47,.2,.91,.54,1.23,.34,.33,.77,.5,1.25,.49,.47,0,.91-.2,1.23-.54,.33-.34,.5-.78,.49-1.25-.02-.96-.8-1.72-1.75-1.72Z"/>
    </g>
    <g>
      <circle class="cls-4" cx="10.35" cy="44.04" r="2.25"/>
      <path class="cls-3" d="M10.35,46.8c-1.5,0-2.73-1.2-2.75-2.71-.01-.74,.26-1.43,.77-1.96,.51-.53,1.2-.83,1.93-.84,.73,0,1.43,.26,1.96,.77s.83,1.2,.84,1.93c.03,1.52-1.19,2.78-2.71,2.8-.02,0-.03,0-.05,0Zm0-4.51s-.02,0-.03,0c-.47,0-.91,.2-1.23,.54-.33,.34-.5,.78-.49,1.25h0c0,.47,.2,.91,.54,1.23,.34,.33,.81,.51,1.25,.49,.97-.02,1.74-.82,1.72-1.79,0-.47-.2-.91-.54-1.23-.33-.32-.76-.49-1.22-.49Z"/>
    </g>
    <g>
      <circle class="cls-4" cx="10.21" cy="36.01" r="2.25"/>
      <path class="cls-3" d="M10.21,38.77c-1.5,0-2.73-1.2-2.75-2.71h0c-.03-1.52,1.19-2.78,2.71-2.8,.74,0,1.43,.26,1.96,.77,.53,.51,.83,1.2,.84,1.93,.03,1.52-1.19,2.78-2.71,2.8-.02,0-.03,0-.05,0Zm-1.75-2.72c.02,.97,.83,1.74,1.79,1.72,.97-.02,1.74-.82,1.72-1.79,0-.47-.2-.91-.54-1.23-.34-.33-.82-.52-1.25-.49-.97,.02-1.74,.82-1.72,1.79h0Z"/>
    </g>
    <g>
      <circle class="cls-4" cx="10.07" cy="27.98" r="2.25"/>
      <path class="cls-3" d="M10.07,30.73c-.72,0-1.39-.27-1.91-.77-.53-.51-.83-1.2-.84-1.93-.03-1.52,1.19-2.78,2.71-2.8,1.53,0,2.78,1.19,2.8,2.71,.03,1.52-1.19,2.78-2.71,2.8-.02,0-.03,0-.05,0Zm0-4.51s-.02,0-.03,0c-.97,.02-1.74,.82-1.72,1.79,0,.47,.2,.91,.54,1.23,.34,.33,.78,.51,1.25,.49,.97-.02,1.74-.82,1.72-1.78-.02-.96-.8-1.72-1.75-1.72Z"/>
    </g>
    <g>
      <circle class="cls-4" cx="9.93" cy="19.94" r="2.25"/>
      <path class="cls-3" d="M9.93,22.7c-.72,0-1.39-.27-1.91-.77-.53-.51-.83-1.2-.84-1.93-.03-1.52,1.19-2.78,2.71-2.8,.72,0,1.43,.26,1.96,.77,.53,.51,.83,1.2,.84,1.93s-.26,1.43-.77,1.96c-.51,.53-1.2,.83-1.93,.84-.02,0-.03,0-.05,0Zm0-4.51s-.02,0-.03,0c-.97,.02-1.74,.82-1.72,1.78,0,.47,.2,.91,.54,1.23,.34,.33,.79,.51,1.25,.49,.97-.02,1.74-.82,1.72-1.78,0-.47-.2-.91-.54-1.23-.33-.32-.76-.49-1.22-.49Z"/>
    </g>
    <g>
      <circle class="cls-4" cx="9.66" cy="4.42" r="2.25"/>
      <path class="cls-3" d="M9.66,7.18c-.72,0-1.39-.27-1.91-.77-.53-.51-.83-1.2-.84-1.93-.03-1.52,1.19-2.78,2.71-2.8,.02,0,.03,0,.05,0,1.5,0,2.73,1.2,2.75,2.71,.03,1.52-1.19,2.78-2.71,2.8-.02,0-.03,0-.05,0Zm0-4.51s-.02,0-.03,0c-.97,.02-1.74,.82-1.72,1.79,0,.47,.2,.91,.54,1.23,.34,.33,.77,.49,1.25,.49,.97-.02,1.74-.82,1.72-1.78-.02-.96-.8-1.72-1.75-1.72Z"/>
    </g>
    <rect class="cls-1" x="5.73" y="39.62" width=".81" height=".99" transform="translate(-.7 .11) rotate(-1)"/>
    <rect class="cls-1" x="69.18" y="29.3" width=".81" height=".99" transform="translate(8.54 -14.97) rotate(13.07)"/>
  </g>
  <g>
    <path class="cls-3" d="M65.73,56.63c-11.64-2.94-21.85-4.67-32.12-5.46l.08-1c10.33,.79,20.59,2.53,32.29,5.48l-.24,.97Z"/>
    <path class="cls-3" d="M72.78,16.64h0s-.09-.02-.13-.03c-12.95-3.04-24.31-4.86-35.73-5.75l.08-1s.08,0,.11,0c11.47,.9,22.88,2.74,35.89,5.8l-.23,.97Z"/>
    <path class="cls-3" d="M39.86,15.21c-2.04-.19-4.18-.36-6.75-.52l.06-1c2.58,.17,4.73,.33,6.78,.53l-.09,1Z"/>
    <g>
      <path class="cls-5" d="M72.43,19.97c-11.53-2.53-22.02-4.26-32.52-5.25-2.25-.21-4.5-.38-6.77-.52s-4.53-.27-6.82-.35c-6.12-.21-12.38-.19-18.99,.06-1.48,.05-2.99,.12-4.51,.2l-.03,1.77c26.09-1.2,46.6,.76,72.38,6.52l.28-1.74c-1.01-.23-2.02-.46-3.01-.68Z"/>
      <path class="cls-3" d="M75.57,23l-.52-.12C48.77,17.02,28.52,15.2,2.8,16.38l-.53,.02,.05-2.77,.47-.02c1.52-.08,3.03-.15,4.52-.2,6.71-.25,12.94-.27,19.03-.06,2.07,.07,4.3,.18,6.84,.35,2.58,.17,4.73,.33,6.78,.53,10.31,.97,20.66,2.64,32.58,5.26h0c.72,.16,1.45,.33,2.19,.49l1.28,.29-.43,2.73ZM16.97,15.04c19.39,0,36.66,2.07,57.78,6.75l.12-.76-.37-.08c-.73-.17-1.46-.33-2.18-.49h0c-11.88-2.61-22.19-4.27-32.46-5.24-2.04-.19-4.18-.36-6.75-.52-2.53-.16-4.75-.27-6.81-.35-6.07-.21-12.27-.19-18.96,.06-1.33,.05-2.68,.11-4.04,.18v.77c4.71-.21,9.25-.32,13.67-.32Z"/>
    </g>
    <g>
      <path class="cls-5" d="M9.55,9.91c9.67-.35,18.59-.23,27.41,.46,11.63,.9,23.1,2.78,35.93,5.79l.28-1.74C47.73,8.3,27.81,6.82,1.28,8.57l-.03,1.75c2.83-.17,5.6-.32,8.3-.42Z"/>
      <path class="cls-3" d="M73.31,16.77l-.52-.12c-13-3.05-24.4-4.89-35.86-5.78-8.59-.67-17.54-.82-27.36-.46h0c-2.47,.09-5.18,.23-8.29,.42l-.54,.03,.05-2.75,.46-.03c26.93-1.78,47.13-.13,72.04,5.86l.45,.11-.43,2.73ZM19.65,9.22c6.03,0,11.77,.22,17.36,.65,11.36,.88,22.65,2.69,35.48,5.68l.12-.76C48.15,8.95,28.2,7.33,1.77,9.04v.75c2.88-.17,5.43-.3,7.76-.38h0c3.47-.13,6.84-.19,10.12-.19Z"/>
    </g>
    <g>
      <path class="cls-2" d="M72.61,17.99l.29-1.83c-12.83-3.01-24.31-4.89-35.93-5.79-8.83-.69-17.74-.81-27.41-.46-2.7,.1-5.47,.24-8.3,.42l-.03,1.77c.54-.03,1.09-.05,1.63-.08,0,0,0,0,0,.01l-.04,2.08c1.52-.08,3.03-.15,4.51-.2,6.61-.24,12.88-.27,18.99-.06,2.29,.08,4.56,.2,6.82,.35,2.26,.14,4.52,.31,6.77,.52,10.5,.99,20.99,2.72,32.52,5.25,.99,.22,2,.45,3.01,.68l.31-1.97c-.47-.11-.94-.21-1.4-.31l-1.74-.38Z"/>
      <path class="cls-3" d="M75.84,21.26l-1.35-.31c-.73-.17-1.46-.33-2.18-.49-11.88-2.61-22.2-4.28-32.46-5.24-2.04-.19-4.18-.36-6.75-.52-2.53-.16-4.75-.27-6.81-.35-6.07-.21-12.27-.19-18.96,.06-1.48,.06-2.99,.12-4.51,.2l-.53,.03,.04-2.1-1.62,.08,.05-2.76,.46-.03c3.12-.19,5.83-.33,8.31-.42,9.86-.36,18.85-.21,27.47,.46,11.51,.89,22.95,2.74,36.01,5.8l.45,.11-.29,1.83,3.14,.7-.47,2.96ZM17.82,13.2c2.89,0,5.71,.05,8.51,.14,2.07,.07,4.3,.18,6.84,.35,2.58,.17,4.73,.33,6.78,.53,10.31,.97,20.66,2.64,32.58,5.26,.72,.16,1.45,.33,2.19,.49l.3,.07,.15-.98-3.14-.69,.29-1.84c-12.82-2.99-24.08-4.8-35.41-5.67-8.59-.67-17.54-.82-27.36-.46-2.35,.09-4.91,.21-7.83,.39v.77s1.89-.09,1.89-.09l-.29,.65-.03,1.45c1.34-.07,2.67-.13,3.99-.17,3.63-.13,7.12-.2,10.52-.2Z"/>
    </g>
    <g>
      <path class="cls-2" d="M26.31,13.84c2.29,.08,4.56,.2,6.82,.35-2.26-.14-4.53-.27-6.82-.35Z"/>
      <path class="cls-3" d="M33.1,14.69c-2.53-.16-4.75-.27-6.81-.35l.04-1c2.07,.07,4.3,.18,6.84,.35l-.06,1Z"/>
    </g>
    <g>
      <path class="cls-2" d="M39.9,14.72c10.5,.99,20.99,2.72,32.52,5.25-11.53-2.53-22.02-4.26-32.52-5.25Z"/>
      <path class="cls-3" d="M72.32,20.46s-.06-.01-.09-.02c-.02,0-.04,0-.06-.01-.03,0-.05-.01-.08-.02-.01,0-.03,0-.04,0-11.35-2.48-21.28-4.11-31.11-5.08h0c-.36-.04-.72-.07-1.08-.1,0,0,0,0,0,0l.09-1s.07,0,.11,0c10.27,.97,20.6,2.64,32.48,5.25l-.21,.98Z"/>
    </g>
    <g>
      <path class="cls-2" d="M9.55,9.91c9.67-.35,18.59-.23,27.41,.46-8.83-.69-17.74-.81-27.41-.46Z"/>
      <path class="cls-3" d="M36.93,10.86c-8.59-.67-17.54-.82-27.36-.46l-.04-1c9.86-.36,18.85-.21,27.47,.46l-.08,1Z"/>
    </g>
    <g>
      <path class="cls-5" d="M61.01,58.96c-4.32-.94-8.49-1.74-12.6-2.4-2.74-.44-5.44-.82-8.13-1.13-2.69-.32-5.38-.57-8.08-.77-4.04-.29-8.12-.45-12.29-.48-4.17-.03-8.45,.07-12.9,.3-1.32,.07-2.67,.15-4.02,.24l-.03,1.77c23.73-1.45,42.29,.4,65.83,6.1l.28-1.74c-2.75-.68-5.43-1.31-8.06-1.89Z"/>
      <path class="cls-3" d="M69.2,63.2l-.53-.13c-23.95-5.8-42.36-7.5-65.68-6.08l-.54,.03,.05-2.77,.46-.03c1.36-.09,2.7-.17,4.03-.24,4.53-.23,8.75-.33,12.93-.3,4.22,.03,8.25,.19,12.32,.48,2.68,.19,5.41,.45,8.1,.77,2.67,.31,5.42,.7,8.15,1.14,4.09,.66,8.22,1.44,12.62,2.41h0c2.5,.54,5.14,1.16,8.07,1.89l.45,.11-.43,2.73Zm-51.43-7.69c16.83,0,32.08,2,50.61,6.46l.12-.75c-2.75-.68-5.24-1.26-7.6-1.77h0c-4.39-.96-8.5-1.74-12.57-2.4-2.72-.44-5.45-.82-8.11-1.13-2.67-.31-5.38-.57-8.05-.77-4.05-.29-8.06-.45-12.26-.48-4.14-.03-8.36,.07-12.87,.3-1.17,.06-2.36,.13-3.55,.21v.77c4.94-.29,9.67-.44,14.28-.44Z"/>
    </g>
    <g>
      <path class="cls-5" d="M4.65,50.73c4.73-.32,9.24-.5,13.62-.54,2.32-.02,4.6,0,6.86,.06,2.87,.08,5.7,.22,8.52,.43,10.43,.8,20.71,2.57,32.2,5.47l.28-1.74c-23.13-5.98-41.17-7.23-65.55-5.11,0,.01,0,.03-.01,.05l-.03,1.7c1.39-.11,2.76-.22,4.11-.31Z"/>
      <path class="cls-3" d="M66.26,56.76l-.53-.13c-11.64-2.94-21.85-4.67-32.12-5.46-2.74-.21-5.52-.35-8.49-.43-2.21-.06-4.51-.08-6.84-.06-4.38,.04-8.83,.22-13.59,.54-1.35,.09-2.72,.2-4.1,.31l-.55,.04,.05-2.37,.09-.34,.36-.08c25.03-2.17,42.84-.78,65.72,5.13l.44,.11-.43,2.73Zm-46.13-7.08c1.7,0,3.38,.02,5.01,.07,2.99,.08,5.79,.22,8.54,.43,10.17,.78,20.28,2.48,31.76,5.35l.12-.75c-22.41-5.75-39.99-7.12-64.5-5.02v.74c1.19-.1,2.38-.19,3.56-.27h0c4.78-.32,9.25-.5,13.65-.54,.63,0,1.25,0,1.87,0Z"/>
    </g>
    <g>
      <path class="cls-2" d="M65.56,58l.29-1.85c-11.5-2.9-21.78-4.67-32.2-5.47-2.82-.22-5.65-.36-8.52-.43-2.26-.06-4.54-.08-6.86-.06-4.38,.04-8.89,.22-13.62,.54-1.35,.09-2.72,.2-4.11,.31l-.03,1.75c.84-.06,1.68-.11,2.51-.16,0,0,0,0,0,.01h.02s-.04,2.08-.04,2.08c1.35-.09,2.7-.17,4.02-.24,4.45-.23,8.73-.33,12.9-.3,4.17,.03,8.25,.19,12.29,.48,2.7,.2,5.38,.45,8.08,.77,2.69,.32,5.4,.69,8.13,1.13,4.1,.66,8.28,1.46,12.6,2.4,2.62,.57,5.31,1.21,8.06,1.89l.31-1.97c-.79-.19-1.57-.38-2.35-.56l-1.47-.32Z"/>
      <path class="cls-3" d="M69.48,61.47l-.53-.13c-2.92-.72-5.55-1.34-8.04-1.88-4.39-.96-8.5-1.74-12.57-2.4-2.72-.44-5.45-.82-8.11-1.13-2.67-.31-5.38-.57-8.05-.77-4.05-.29-8.06-.45-12.26-.48-4.14-.03-8.36,.07-12.87,.3-1.32,.07-2.66,.15-4.01,.24l-.54,.04,.03-1.84-.41,.18,.16-.42-2.27,.15,.05-2.75,.45-.04c1.39-.11,2.76-.22,4.12-.31,4.78-.32,9.25-.5,13.65-.54,2.35-.02,4.66,0,6.88,.06,2.99,.08,5.79,.22,8.54,.43,10.33,.79,20.59,2.53,32.29,5.48l.44,.11-.29,1.84,1.01,.22c.79,.19,1.57,.38,2.36,.57l.45,.11-.47,2.96Zm-51-7.79c.48,0,.96,0,1.44,0,4.22,.03,8.25,.19,12.32,.48,2.68,.19,5.41,.45,8.1,.77,2.67,.31,5.42,.7,8.15,1.14,4.09,.66,8.22,1.44,12.62,2.41,2.35,.51,4.82,1.09,7.54,1.76l.15-.98c-.64-.15-1.27-.3-1.9-.45l-1.92-.42,.29-1.87c-11.46-2.87-21.54-4.57-31.68-5.34-2.74-.21-5.52-.35-8.49-.43-2.21-.06-4.51-.08-6.84-.06-4.38,.04-8.83,.22-13.59,.54-1.2,.08-2.42,.17-3.65,.27v.75s1.9-.12,1.9-.12l.6-.27v.23s.11,0,.11,0l-.1,.55-.03,1.54c1.17-.08,2.34-.15,3.49-.21,4.01-.2,7.79-.3,11.49-.3Z"/>
    </g>
    <g>
      <path class="cls-2" d="M48.41,56.56c-2.74-.44-5.44-.82-8.13-1.13,2.69,.32,5.4,.69,8.13,1.13Z"/>
      <path class="cls-3" d="M48.34,57.05c-2.72-.44-5.45-.82-8.11-1.13l.12-.99c2.67,.31,5.42,.7,8.15,1.14l-.16,.99Z"/>
    </g>
    <g>
      <path class="cls-2" d="M32.21,54.66c-4.04-.29-8.12-.45-12.29-.48,4.17,.03,8.25,.19,12.29,.48Z"/>
      <path class="cls-3" d="M32.17,55.16c-4.05-.29-8.06-.45-12.26-.48v-1c4.23,.03,8.26,.19,12.33,.48l-.07,1Z"/>
    </g>
    <g>
      <path class="cls-2" d="M25.13,50.24c2.87,.08,5.7,.22,8.52,.43-2.82-.22-5.65-.36-8.52-.43Z"/>
      <path class="cls-3" d="M33.61,51.17c-2.74-.21-5.52-.35-8.49-.43l.03-1c2.99,.08,5.79,.22,8.54,.43l-.08,1Z"/>
    </g>
  </g>
</svg>