<?xml version="1.0" encoding="UTF-8"?>
<svg id="Livello_1" data-name="Livello 1" xmlns="http://www.w3.org/2000/svg" viewBox="0 0 189.16 95.15">
  <defs>
    <style>
      .cls-1 {
        fill: #fff;
      }

      .cls-2 {
        fill: #d7d5d6;
      }

      .cls-3 {
        fill: #3f4541;
      }

      .cls-4 {
        fill: #707472;
      }

      .cls-5 {
        fill: #606663;
      }
    </style>
  </defs>
  <g>
    <g>
      <g>
        <rect class="cls-4" x="84.31" y="8.5" width="16.2" height="63.13" transform="translate(9.34 -16.9) rotate(11)"/>
        <path class="cls-3" d="M94.74,73.18l-16.88-3.28,.09-.49L90.09,6.95l16.88,3.28-.09,.49-12.14,62.46Zm-15.71-4.07l14.92,2.9,11.86-60.99-14.92-2.9-11.86,60.99Z"/>
      </g>
      <g>
        <g>
          <circle class="cls-4" cx="93.95" cy="12.12" r="2.25"/>
          <path class="cls-3" d="M93.95,14.88c-.17,0-.35-.02-.53-.05-1.49-.29-2.47-1.74-2.18-3.23,.14-.72,.55-1.35,1.16-1.76,.61-.41,1.34-.56,2.07-.42,.72,.14,1.35,.55,1.76,1.16,.41,.61,.56,1.34,.42,2.07h0c-.26,1.31-1.41,2.23-2.7,2.23Zm0-4.51c-.35,0-.68,.1-.98,.3-.39,.26-.65,.66-.74,1.12-.09,.46,0,.93,.27,1.32s.66,.65,1.12,.74c.95,.19,1.87-.44,2.06-1.39,.09-.46,0-.93-.27-1.32-.26-.39-.66-.65-1.12-.74-.11-.02-.23-.03-.34-.03Z"/>
        </g>
        <g>
          <circle class="cls-4" cx="101.46" cy="13.58" r="2.25"/>
          <path class="cls-3" d="M101.46,16.34c-.17,0-.35-.02-.53-.05-.72-.14-1.35-.55-1.76-1.16-.41-.61-.56-1.34-.42-2.07,.29-1.49,1.74-2.47,3.23-2.18,.72,.14,1.35,.55,1.76,1.16,.41,.61,.56,1.34,.42,2.07-.26,1.31-1.41,2.23-2.7,2.23Zm0-4.51c-.82,0-1.56,.58-1.72,1.42-.09,.46,0,.93,.27,1.32,.26,.39,.66,.65,1.12,.74,.95,.19,1.87-.44,2.06-1.39h0c.09-.46,0-.93-.27-1.32-.26-.39-.66-.65-1.12-.74-.11-.02-.22-.03-.33-.03Z"/>
        </g>
      </g>
      <g>
        <g>
          <circle class="cls-4" cx="90.93" cy="27.65" r="2.25"/>
          <path class="cls-3" d="M90.93,30.41c-.18,0-.35-.02-.53-.05-1.49-.29-2.47-1.74-2.18-3.23,.29-1.49,1.74-2.47,3.23-2.18,1.49,.29,2.47,1.74,2.18,3.23h0c-.14,.72-.55,1.35-1.16,1.76-.46,.31-.99,.47-1.53,.47Zm0-4.51c-.82,0-1.56,.58-1.72,1.42-.18,.95,.44,1.87,1.39,2.06,.46,.09,.93,0,1.32-.27,.39-.26,.65-.66,.74-1.12h0c.09-.46,0-.93-.27-1.32s-.66-.65-1.12-.74c-.11-.02-.22-.03-.33-.03Z"/>
        </g>
        <g>
          <circle class="cls-4" cx="98.44" cy="29.11" r="2.25"/>
          <path class="cls-3" d="M98.44,31.87c-.17,0-.35-.02-.53-.05-1.49-.29-2.47-1.74-2.18-3.23,.14-.72,.55-1.35,1.16-1.76,.61-.41,1.34-.56,2.07-.42,.72,.14,1.35,.55,1.76,1.16,.41,.61,.56,1.34,.42,2.07h0c-.26,1.31-1.41,2.23-2.7,2.23Zm0-4.51c-.35,0-.68,.1-.98,.3-.39,.26-.65,.66-.74,1.12-.18,.95,.44,1.87,1.39,2.06,.95,.19,1.87-.44,2.06-1.39,.09-.46,0-.93-.27-1.32-.26-.39-.66-.65-1.12-.74-.11-.02-.23-.03-.34-.03Z"/>
        </g>
      </g>
      <g>
        <g>
          <circle class="cls-4" cx="89.4" cy="35.54" r="2.25"/>
          <path class="cls-3" d="M89.4,38.3c-.18,0-.35-.02-.53-.05-1.49-.29-2.47-1.74-2.18-3.23,.29-1.49,1.75-2.47,3.23-2.18,.72,.14,1.35,.55,1.76,1.16,.41,.61,.56,1.34,.42,2.07-.14,.72-.55,1.35-1.16,1.76-.46,.31-.99,.47-1.53,.47Zm0-4.51c-.82,0-1.56,.58-1.72,1.42-.18,.95,.44,1.87,1.39,2.06,.46,.09,.93,0,1.32-.27,.39-.26,.65-.66,.74-1.12h0c.09-.46,0-.93-.27-1.32-.26-.39-.66-.65-1.12-.74-.11-.02-.22-.03-.33-.03Z"/>
        </g>
        <g>
          <circle class="cls-4" cx="96.9" cy="37" r="2.25"/>
          <path class="cls-3" d="M96.91,39.76c-.18,0-.35-.02-.53-.05-1.49-.29-2.47-1.74-2.18-3.23,.14-.72,.55-1.35,1.16-1.76,.61-.41,1.34-.56,2.07-.42,.72,.14,1.35,.55,1.76,1.16,.41,.61,.56,1.34,.42,2.07h0c-.14,.72-.55,1.35-1.16,1.76-.46,.31-.99,.47-1.53,.47Zm-.01-4.51c-.35,0-.68,.1-.98,.3-.39,.26-.65,.66-.74,1.12-.18,.95,.44,1.87,1.39,2.06,.46,.09,.93,0,1.32-.27,.39-.26,.65-.66,.74-1.12h0c.09-.46,0-.93-.27-1.32-.26-.39-.66-.65-1.12-.74-.11-.02-.23-.03-.34-.03Z"/>
        </g>
      </g>
      <g>
        <g>
          <circle class="cls-4" cx="87.86" cy="43.43" r="2.25"/>
          <path class="cls-3" d="M87.87,46.18c-.18,0-.35-.02-.53-.05-.72-.14-1.35-.55-1.76-1.16-.41-.61-.56-1.34-.42-2.07,.14-.72,.55-1.35,1.16-1.76,.61-.41,1.34-.56,2.07-.42,.72,.14,1.35,.55,1.76,1.16,.41,.61,.56,1.34,.42,2.07-.14,.72-.55,1.35-1.16,1.76-.46,.31-.99,.47-1.53,.47Zm0-4.51c-.35,0-.68,.1-.98,.3-.39,.26-.65,.66-.74,1.12-.09,.46,0,.93,.27,1.32,.26,.39,.66,.65,1.12,.74,.46,.09,.93,0,1.32-.27,.39-.26,.65-.66,.74-1.12h0c.09-.46,0-.93-.27-1.32-.26-.39-.66-.65-1.12-.74-.11-.02-.23-.03-.34-.03Z"/>
        </g>
        <g>
          <circle class="cls-4" cx="95.37" cy="44.89" r="2.25"/>
          <path class="cls-3" d="M95.38,47.64c-.18,0-.35-.02-.53-.05-1.49-.29-2.47-1.74-2.18-3.23,.29-1.49,1.75-2.47,3.23-2.18,1.49,.29,2.47,1.74,2.18,3.23h0c-.14,.72-.55,1.35-1.16,1.76-.46,.31-.99,.47-1.53,.47Zm0-4.51c-.82,0-1.56,.58-1.72,1.42-.18,.95,.44,1.87,1.39,2.06,.46,.09,.93,0,1.32-.27,.39-.26,.65-.66,.74-1.12h0c.18-.95-.44-1.87-1.39-2.06-.11-.02-.22-.03-.33-.03Z"/>
        </g>
      </g>
      <g>
        <g>
          <circle class="cls-4" cx="86.33" cy="51.32" r="2.25"/>
          <path class="cls-3" d="M86.34,54.07c-.18,0-.35-.02-.53-.05-.72-.14-1.35-.55-1.76-1.16-.41-.61-.56-1.34-.42-2.07,.14-.72,.55-1.35,1.16-1.76,.61-.41,1.34-.56,2.07-.42,.72,.14,1.35,.55,1.76,1.16,.41,.61,.56,1.34,.42,2.07-.14,.72-.55,1.35-1.16,1.76-.46,.31-.99,.47-1.53,.47Zm-.01-4.51c-.35,0-.68,.1-.98,.3-.39,.26-.65,.66-.74,1.12-.09,.46,0,.93,.27,1.32,.26,.39,.66,.65,1.12,.74,.46,.09,.93,0,1.32-.27s.65-.66,.74-1.12h0c.09-.46,0-.93-.27-1.32-.26-.39-.66-.65-1.12-.74-.11-.02-.23-.03-.34-.03Z"/>
        </g>
        <g>
          <circle class="cls-4" cx="93.84" cy="52.78" r="2.25"/>
          <path class="cls-3" d="M93.84,55.53c-.18,0-.35-.02-.53-.05-1.49-.29-2.47-1.74-2.18-3.23,.29-1.49,1.74-2.46,3.23-2.18,1.49,.29,2.47,1.74,2.18,3.23h0c-.14,.72-.55,1.35-1.16,1.76-.46,.31-.99,.47-1.53,.47Zm0-4.51c-.82,0-1.56,.58-1.72,1.42-.18,.95,.44,1.87,1.39,2.06,.46,.09,.93,0,1.32-.27,.39-.26,.65-.66,.74-1.12h0c.18-.95-.44-1.87-1.39-2.06-.11-.02-.22-.03-.33-.03Z"/>
        </g>
      </g>
      <g>
        <g>
          <circle class="cls-4" cx="83.37" cy="66.55" r="2.25"/>
          <path class="cls-3" d="M83.37,69.31c-.17,0-.35-.02-.53-.05-1.49-.29-2.47-1.74-2.18-3.23,.14-.72,.55-1.35,1.16-1.76,.61-.41,1.34-.56,2.07-.42,1.49,.29,2.47,1.74,2.18,3.23h0c-.26,1.31-1.41,2.23-2.7,2.23Zm0-4.51c-.35,0-.68,.1-.98,.3-.39,.26-.65,.66-.74,1.12-.18,.95,.44,1.87,1.39,2.06,.95,.19,1.87-.44,2.06-1.39s-.44-1.87-1.39-2.06c-.11-.02-.23-.03-.34-.03Z"/>
        </g>
        <g>
          <circle class="cls-4" cx="90.87" cy="68.01" r="2.25"/>
          <path class="cls-3" d="M90.88,70.77c-.18,0-.35-.02-.53-.05-.72-.14-1.35-.55-1.76-1.16-.41-.61-.56-1.34-.42-2.07,.14-.72,.55-1.35,1.16-1.76s1.34-.56,2.07-.42c.72,.14,1.35,.55,1.76,1.16,.41,.61,.56,1.34,.42,2.07s-.55,1.35-1.16,1.76c-.46,.31-.99,.47-1.53,.47Zm0-4.51c-.35,0-.68,.1-.98,.3-.39,.26-.65,.66-.74,1.12-.09,.46,0,.93,.27,1.32,.26,.39,.66,.65,1.12,.74,.46,.09,.93,0,1.32-.27,.39-.26,.65-.66,.74-1.12h0c.09-.46,0-.93-.27-1.32-.26-.39-.66-.65-1.12-.74-.11-.02-.23-.03-.34-.03Z"/>
        </g>
      </g>
    </g>
    <g>
      <g>
        <g>
          <path class="cls-4" d="M164.23,94.5l3.65-9.04-3.82-1.54,1.62-4.01,3.82,1.54,2.41-5.95-.96-.39,.91-2.26c0,.66,.39,1.3,1.04,1.56,.85,.34,1.82-.07,2.17-.92s-.07-1.82-.92-2.17c-.65-.26-1.37-.08-1.83,.4l.89-2.21,.96,.39,4.42-10.95c-.35,.13-.74,.14-1.11,0-.78-.32-1.16-1.2-.84-1.98s1.2-1.16,1.98-.84c.37,.15,.65,.43,.8,.77l8.45-20.91-7.68-3.1-23.65,58.53,7.68,3.1Z"/>
          <path class="cls-3" d="M164.51,95.15l-8.6-3.48,24.02-59.46,8.6,3.48-14.08,34.85-.96-.39-.22,.55c.35-.04,.72,0,1.07,.14,.54,.22,.96,.63,1.18,1.16,.23,.53,.23,1.12,.01,1.66-.22,.54-.63,.96-1.16,1.18-.53,.22-1.12,.23-1.66,.01-.35-.14-.65-.36-.87-.64l-.24,.61,.96,.39-2.78,6.88-3.82-1.54-1.25,3.09,3.82,1.54-4.03,9.96Zm-7.3-4.03l6.75,2.73,3.28-8.11-3.82-1.54,2-4.94,3.82,1.54,2.03-5.03-.96-.39,2.64-6.53,.96,.39,3.92-9.71c-.18-.02-.35-.06-.52-.13-1.04-.42-1.54-1.6-1.12-2.64s1.6-1.54,2.64-1.12c.17,.07,.32,.16,.47,.27l7.95-19.67-6.75-2.73-23.27,57.61Zm15.16-18.73v.46c0,.48,.28,.91,.72,1.09,.29,.12,.61,.11,.89,0,.29-.12,.51-.35,.63-.64,.12-.29,.11-.61,0-.89-.12-.29-.35-.51-.64-.63-.44-.18-.95-.07-1.28,.28l-.32,.33Zm5.69-15.89c-.41,0-.79,.24-.95,.64-.21,.52,.04,1.12,.57,1.33,.24,.1,.5,.1,.75,0l1.03-.39-.47-1c-.11-.24-.3-.42-.54-.51-.12-.05-.25-.07-.38-.07Z"/>
        </g>
        <g>
          <circle class="cls-4" cx="182.73" cy="38.03" r="2.25"/>
          <path class="cls-3" d="M182.73,40.78c-.34,0-.69-.06-1.03-.2-.68-.28-1.22-.8-1.5-1.48-.29-.68-.29-1.43-.02-2.11s.8-1.22,1.48-1.5c.68-.29,1.42-.29,2.11-.02,.68,.28,1.22,.8,1.5,1.48,.29,.68,.29,1.43,.02,2.11h0c-.43,1.07-1.47,1.72-2.56,1.72Zm0-4.51c-.23,0-.46,.05-.69,.14-.43,.18-.77,.52-.94,.96-.18,.44-.17,.91,.01,1.34,.18,.43,.52,.77,.96,.94,.89,.36,1.92-.07,2.28-.97h0c.18-.43,.17-.91-.01-1.34-.18-.43-.52-.77-.96-.94-.21-.09-.43-.13-.66-.13Z"/>
        </g>
        <g>
          <circle class="cls-4" cx="176.8" cy="52.7" r="2.25"/>
          <path class="cls-3" d="M176.8,55.45c-.34,0-.69-.06-1.03-.2-1.41-.57-2.09-2.18-1.52-3.59,.57-1.41,2.18-2.09,3.59-1.52,1.41,.57,2.09,2.18,1.52,3.59h0c-.43,1.07-1.47,1.72-2.56,1.72Zm0-4.51c-.69,0-1.35,.42-1.63,1.1-.36,.9,.07,1.92,.97,2.28,.9,.36,1.92-.07,2.28-.97h0c.36-.9-.07-1.92-.97-2.28-.21-.09-.44-.13-.66-.13Z"/>
        </g>
        <g>
          <circle class="cls-4" cx="173.79" cy="60.15" r="2.25"/>
          <path class="cls-3" d="M173.79,62.9c-.35,0-.7-.07-1.03-.2-1.41-.57-2.09-2.18-1.52-3.59,.57-1.41,2.18-2.09,3.59-1.52,.68,.28,1.22,.8,1.5,1.48,.29,.68,.29,1.43,.02,2.11h0c-.28,.68-.8,1.22-1.48,1.5-.35,.15-.71,.22-1.08,.22Zm0-4.51c-.7,0-1.35,.42-1.63,1.1-.36,.9,.07,1.92,.97,2.28,.43,.17,.91,.17,1.34-.01,.43-.18,.77-.52,.94-.96h0c.18-.44,.17-.91-.01-1.34-.18-.43-.52-.77-.96-.94-.21-.09-.44-.13-.65-.13Z"/>
        </g>
        <g>
          <circle class="cls-4" cx="170.78" cy="67.6" r="2.25"/>
          <path class="cls-3" d="M170.79,70.35c-.35,0-.7-.07-1.03-.2-1.41-.57-2.09-2.18-1.52-3.59,.57-1.41,2.18-2.09,3.59-1.52,.68,.28,1.22,.8,1.5,1.48,.29,.68,.29,1.43,.02,2.11h0c-.28,.68-.8,1.22-1.48,1.5-.35,.15-.71,.22-1.08,.22Zm0-4.51c-.7,0-1.35,.42-1.63,1.1-.36,.9,.07,1.92,.97,2.28,.43,.17,.91,.17,1.34-.01,.43-.18,.77-.52,.94-.96h0c.18-.44,.17-.91-.01-1.34-.18-.43-.52-.77-.96-.94-.21-.09-.44-.13-.65-.13Z"/>
        </g>
        <g>
          <circle class="cls-4" cx="167.77" cy="75.05" r="2.25"/>
          <path class="cls-3" d="M167.78,77.8c-.35,0-.7-.07-1.03-.2-.68-.28-1.22-.8-1.5-1.48-.29-.68-.29-1.43-.02-2.11,.57-1.41,2.18-2.09,3.59-1.52,.68,.28,1.22,.8,1.5,1.48,.29,.68,.29,1.43,.02,2.11h0c-.28,.68-.8,1.22-1.48,1.5-.35,.15-.71,.22-1.08,.22Zm0-4.51c-.69,0-1.35,.42-1.63,1.1-.18,.43-.17,.91,.01,1.34,.18,.43,.52,.77,.96,.94,.43,.18,.91,.17,1.34-.01,.43-.18,.77-.52,.94-.96h0c.18-.44,.17-.91-.01-1.34-.18-.43-.52-.77-.96-.94-.21-.09-.44-.13-.65-.13Z"/>
        </g>
        <g>
          <circle class="cls-4" cx="161.96" cy="89.44" r="2.25"/>
          <path class="cls-3" d="M161.96,92.19c-.34,0-.69-.06-1.03-.2-.68-.28-1.22-.8-1.5-1.48-.29-.68-.29-1.43-.02-2.11,.28-.68,.8-1.22,1.48-1.5,.68-.29,1.42-.3,2.11-.02,.68,.28,1.22,.8,1.5,1.48,.29,.68,.29,1.43,.02,2.11h0c-.43,1.07-1.47,1.72-2.56,1.72Zm0-4.51c-.23,0-.46,.05-.69,.14-.43,.18-.77,.52-.94,.96-.18,.44-.17,.91,.01,1.34,.18,.43,.52,.77,.96,.94,.9,.36,1.92-.07,2.28-.97h0c.18-.43,.17-.91-.01-1.34-.18-.43-.52-.77-.96-.94-.21-.09-.43-.13-.66-.13Z"/>
        </g>
      </g>
      <g>
        <g>
          <path class="cls-4" d="M5.43,.5V10.25s4.12,0,4.12,0v4.33H5.43v6.42h1.04s0,2.44,0,2.44c-.24-.62-.84-1.06-1.55-1.06-.92,0-1.67,.75-1.67,1.67,0,.92,.75,1.67,1.67,1.67,.7,0,1.3-.44,1.55-1.06v2.38h-1.04v11.81c.27-.25,.63-.41,1.03-.41,.84,0,1.52,.68,1.52,1.52s-.68,1.52-1.52,1.52c-.4,0-.76-.16-1.03-.41v22.55H13.71s0-63.13,0-63.13H5.43Z"/>
          <path class="cls-3" d="M14.21,64.13H4.93V26.54h1.04v-.6c-.31,.17-.67,.27-1.05,.27-1.19,0-2.17-.97-2.17-2.17s.97-2.17,2.17-2.17c.38,0,.73,.1,1.05,.27v-.65h-1.04v-7.42h4.12v-3.33H4.93V0H14.21V64.13Zm-8.28-1h7.28V1H5.93V9.75h4.12v5.33H5.93v5.42h1.04v7.04h-1.04v10.47c.17-.05,.35-.07,.53-.07,1.12,0,2.02,.91,2.02,2.02s-.91,2.02-2.02,2.02c-.18,0-.36-.02-.53-.07v21.21Zm-.97-23.16l.81,.75c.19,.18,.44,.28,.69,.28,.56,0,1.02-.46,1.02-1.02s-.46-1.02-1.02-1.02c-.25,0-.5,.1-.69,.28l-.81,.75Zm-.04-17.08c-.64,0-1.17,.52-1.17,1.17s.52,1.17,1.17,1.17c.48,0,.91-.29,1.08-.74l.17-.43-.17-.43c-.18-.45-.6-.74-1.08-.74Z"/>
        </g>
        <g>
          <circle class="cls-4" cx="9.43" cy="59.79" r="2.25"/>
          <path class="cls-3" d="M9.43,62.54c-1.52,0-2.75-1.24-2.75-2.75s1.24-2.75,2.75-2.75,2.75,1.24,2.75,2.75-1.24,2.75-2.75,2.75Zm0-4.51c-.97,0-1.75,.79-1.75,1.75s.79,1.75,1.75,1.75,1.75-.79,1.75-1.75-.79-1.75-1.75-1.75Z"/>
        </g>
        <g>
          <circle class="cls-4" cx="9.43" cy="43.97" r="2.25"/>
          <path class="cls-3" d="M9.43,46.72c-1.52,0-2.75-1.24-2.75-2.75s1.24-2.75,2.75-2.75,2.75,1.24,2.75,2.75-1.24,2.75-2.75,2.75Zm0-4.51c-.97,0-1.75,.79-1.75,1.75s.79,1.75,1.75,1.75,1.75-.79,1.75-1.75-.79-1.75-1.75-1.75Z"/>
        </g>
        <g>
          <circle class="cls-4" cx="9.43" cy="35.93" r="2.25"/>
          <path class="cls-3" d="M9.43,38.69c-1.52,0-2.75-1.24-2.75-2.75s1.24-2.75,2.75-2.75,2.75,1.24,2.75,2.75-1.24,2.75-2.75,2.75Zm0-4.51c-.97,0-1.75,.79-1.75,1.75s.79,1.75,1.75,1.75,1.75-.79,1.75-1.75-.79-1.75-1.75-1.75Z"/>
        </g>
        <g>
          <circle class="cls-4" cx="9.43" cy="27.9" r="2.25"/>
          <path class="cls-3" d="M9.43,30.65c-1.52,0-2.75-1.24-2.75-2.75s1.24-2.75,2.75-2.75,2.75,1.24,2.75,2.75-1.24,2.75-2.75,2.75Zm0-4.51c-.97,0-1.75,.79-1.75,1.75s.79,1.75,1.75,1.75,1.75-.79,1.75-1.75-.79-1.75-1.75-1.75Z"/>
        </g>
        <g>
          <circle class="cls-4" cx="9.43" cy="19.86" r="2.25"/>
          <path class="cls-3" d="M9.43,22.62c-1.52,0-2.75-1.24-2.75-2.75s1.24-2.75,2.75-2.75,2.75,1.24,2.75,2.75-1.24,2.75-2.75,2.75Zm0-4.51c-.97,0-1.75,.79-1.75,1.75s.79,1.75,1.75,1.75,1.75-.79,1.75-1.75-.79-1.75-1.75-1.75Z"/>
        </g>
        <g>
          <circle class="cls-4" cx="9.43" cy="4.34" r="2.25"/>
          <path class="cls-3" d="M9.43,7.1c-1.52,0-2.75-1.24-2.75-2.75s1.24-2.75,2.75-2.75,2.75,1.24,2.75,2.75-1.24,2.75-2.75,2.75Zm0-4.51c-.97,0-1.75,.79-1.75,1.75s.79,1.75,1.75,1.75,1.75-.79,1.75-1.75-.79-1.75-1.75-1.75Z"/>
        </g>
        <rect class="cls-1" x="4.88" y="39.47" width=".81" height=".99"/>
      </g>
    </g>
    <g>
      <g>
        <g>
          <rect class="cls-4" x="26.84" y="1.22" width="16.2" height="63.13" transform="translate(1.88 -1.9) rotate(3.19)"/>
          <path class="cls-3" d="M41.74,65.28l-17.17-.96,.03-.5L28.14,.29l17.17,.96-.03,.5-3.54,63.53Zm-16.12-1.9l15.18,.85L44.26,2.19l-15.18-.85-3.46,62.03Z"/>
        </g>
        <g>
          <g>
            <circle class="cls-4" cx="32.66" cy="4.89" r="2.25"/>
            <path class="cls-3" d="M32.67,7.65c-.05,0-.1,0-.16,0-1.52-.08-2.68-1.39-2.6-2.9,.08-1.52,1.37-2.68,2.9-2.6,1.52,.08,2.68,1.39,2.6,2.9h0c-.04,.73-.37,1.41-.91,1.9-.51,.46-1.16,.7-1.83,.7Zm0-4.51c-.92,0-1.7,.72-1.75,1.66-.05,.97,.69,1.8,1.65,1.85,.47,.02,.92-.13,1.27-.44,.35-.31,.56-.74,.58-1.21,.05-.97-.69-1.8-1.65-1.85-.03,0-.07,0-.1,0Z"/>
          </g>
          <g>
            <circle class="cls-4" cx="40.3" cy="5.32" r="2.25"/>
            <path class="cls-3" d="M40.3,8.08c-.05,0-.1,0-.16,0-.73-.04-1.41-.37-1.9-.91-.49-.55-.74-1.26-.7-1.99,.04-.73,.37-1.41,.91-1.9,.55-.49,1.26-.74,1.99-.7,1.52,.08,2.68,1.39,2.6,2.9h0c-.08,1.46-1.3,2.6-2.75,2.6Zm0-4.51c-.43,0-.84,.16-1.17,.45-.35,.31-.56,.74-.58,1.21-.03,.47,.13,.92,.44,1.27,.31,.35,.74,.56,1.21,.58,.94,.04,1.8-.69,1.85-1.65,.03-.47-.13-.92-.44-1.27-.31-.35-.74-.56-1.21-.58-.03,0-.07,0-.1,0Z"/>
          </g>
        </g>
        <g>
          <g>
            <circle class="cls-4" cx="31.78" cy="20.69" r="2.25"/>
            <path class="cls-3" d="M31.78,23.45c-.05,0-.1,0-.16,0-.73-.04-1.41-.37-1.9-.91-.49-.55-.74-1.26-.7-1.99,.04-.73,.37-1.41,.91-1.9,.55-.49,1.25-.73,1.99-.7,1.52,.08,2.68,1.39,2.6,2.9-.08,1.46-1.3,2.6-2.75,2.6Zm0-4.51c-.43,0-.84,.16-1.17,.45-.35,.31-.56,.74-.58,1.21-.03,.47,.13,.92,.44,1.27,.31,.35,.74,.56,1.21,.58,.47,.02,.92-.13,1.27-.44,.35-.31,.56-.74,.58-1.21s-.13-.92-.44-1.27-.74-.56-1.21-.58c-.03,0-.07,0-.1,0Z"/>
          </g>
          <g>
            <circle class="cls-4" cx="39.42" cy="21.12" r="2.25"/>
            <path class="cls-3" d="M39.42,23.87c-.05,0-.1,0-.16,0-.73-.04-1.41-.37-1.9-.91-.49-.55-.74-1.26-.7-1.99s.37-1.41,.91-1.9c.55-.49,1.25-.73,1.99-.7,.73,.04,1.41,.37,1.9,.91,.49,.55,.74,1.25,.7,1.99s-.37,1.41-.91,1.9c-.51,.46-1.16,.7-1.83,.7Zm0-4.51c-.43,0-.84,.16-1.17,.45-.35,.31-.56,.74-.58,1.21s.13,.92,.44,1.27,.74,.56,1.21,.58c.47,.02,.92-.13,1.27-.44,.35-.31,.56-.74,.58-1.21h0c.03-.47-.13-.92-.44-1.27-.31-.35-.74-.56-1.21-.58-.03,0-.07,0-.1,0Z"/>
          </g>
        </g>
        <g>
          <g>
            <circle class="cls-4" cx="31.34" cy="28.72" r="2.25"/>
            <path class="cls-3" d="M31.34,31.47c-.05,0-.1,0-.16,0-.73-.04-1.41-.37-1.9-.91-.49-.55-.74-1.25-.7-1.99,.04-.73,.37-1.41,.91-1.9,.55-.49,1.25-.74,1.99-.7,1.52,.08,2.68,1.39,2.6,2.9h0c-.04,.73-.37,1.41-.91,1.9-.51,.46-1.16,.7-1.83,.7Zm0-4.51c-.43,0-.84,.16-1.17,.45-.35,.31-.56,.74-.58,1.21-.03,.47,.13,.92,.44,1.27,.31,.35,.74,.56,1.21,.58,.48,.02,.92-.13,1.27-.44,.35-.31,.56-.74,.58-1.21,.05-.97-.69-1.8-1.65-1.85-.03,0-.07,0-.1,0Z"/>
          </g>
          <g>
            <circle class="cls-4" cx="38.97" cy="29.14" r="2.25"/>
            <path class="cls-3" d="M38.97,31.9c-.05,0-.1,0-.16,0-.73-.04-1.41-.37-1.9-.91-.49-.55-.74-1.26-.7-1.99,.04-.73,.37-1.41,.91-1.9,.55-.49,1.25-.74,1.99-.7,.73,.04,1.41,.37,1.9,.91,.49,.55,.74,1.26,.7,1.99s-.37,1.41-.91,1.9c-.51,.46-1.16,.7-1.83,.7Zm0-4.51c-.43,0-.84,.16-1.17,.45-.35,.31-.56,.74-.58,1.21-.03,.47,.13,.92,.44,1.27,.31,.35,.74,.56,1.21,.58,.47,.02,.92-.13,1.27-.44,.35-.31,.56-.74,.58-1.21s-.13-.92-.44-1.27c-.31-.35-.74-.56-1.21-.58-.03,0-.07,0-.1,0Z"/>
          </g>
        </g>
        <g>
          <g>
            <circle class="cls-4" cx="30.89" cy="36.74" r="2.25"/>
            <path class="cls-3" d="M30.89,39.49c-.05,0-.1,0-.16,0-.73-.04-1.41-.37-1.9-.91-.49-.55-.74-1.26-.7-1.99,.08-1.52,1.38-2.68,2.9-2.6,.74,.04,1.41,.37,1.9,.91,.49,.55,.74,1.26,.7,1.99-.04,.73-.37,1.41-.91,1.9-.51,.46-1.16,.7-1.83,.7Zm0-4.51c-.92,0-1.7,.72-1.75,1.66-.03,.47,.13,.92,.44,1.27s.74,.56,1.21,.58c.47,.03,.92-.13,1.27-.44,.35-.31,.56-.74,.58-1.21h0c.05-.97-.69-1.8-1.65-1.85-.03,0-.07,0-.1,0Z"/>
          </g>
          <g>
            <circle class="cls-4" cx="38.52" cy="37.16" r="2.25"/>
            <path class="cls-3" d="M38.53,39.92c-.05,0-.1,0-.16,0-1.52-.08-2.68-1.39-2.6-2.9,.04-.73,.37-1.41,.91-1.9,.55-.49,1.25-.73,1.99-.7,.73,.04,1.41,.37,1.9,.91,.49,.55,.74,1.26,.7,1.99h0c-.08,1.46-1.3,2.6-2.75,2.6Zm0-4.51c-.43,0-.84,.16-1.17,.45-.35,.31-.56,.74-.58,1.21-.05,.97,.69,1.8,1.66,1.85,.92,.04,1.79-.69,1.85-1.65,.03-.47-.13-.92-.44-1.27s-.74-.56-1.21-.58c-.03,0-.07,0-.1,0Z"/>
          </g>
        </g>
        <g>
          <g>
            <circle class="cls-4" cx="30.44" cy="44.76" r="2.25"/>
            <path class="cls-3" d="M30.44,47.51c-.05,0-.1,0-.16,0-.73-.04-1.41-.37-1.9-.91-.49-.55-.74-1.26-.7-1.99s.37-1.41,.91-1.9c.55-.49,1.25-.73,1.99-.7,.73,.04,1.41,.37,1.9,.91,.49,.55,.74,1.26,.7,1.99s-.37,1.41-.91,1.9c-.51,.46-1.16,.7-1.83,.7Zm0-4.51c-.43,0-.84,.16-1.17,.45-.35,.31-.56,.74-.58,1.21-.05,.97,.69,1.8,1.66,1.85,.47,.02,.92-.13,1.27-.44,.35-.31,.56-.74,.58-1.21s-.13-.92-.44-1.27c-.31-.35-.74-.56-1.21-.58-.03,0-.07,0-.1,0Z"/>
          </g>
          <g>
            <circle class="cls-4" cx="38.08" cy="45.19" r="2.25"/>
            <path class="cls-3" d="M38.08,47.94c-.05,0-.1,0-.15,0-1.52-.08-2.68-1.39-2.6-2.9,.04-.73,.37-1.41,.91-1.9,.55-.49,1.25-.73,1.99-.7,1.52,.08,2.68,1.39,2.6,2.9h0c-.08,1.46-1.3,2.6-2.75,2.6Zm0-4.51c-.43,0-.84,.16-1.17,.45-.35,.31-.56,.74-.58,1.21-.05,.97,.69,1.8,1.65,1.85,.93,.04,1.8-.69,1.85-1.65s-.69-1.8-1.65-1.85c-.03,0-.07,0-.1,0Z"/>
          </g>
        </g>
        <g>
          <g>
            <circle class="cls-4" cx="29.58" cy="60.26" r="2.25"/>
            <path class="cls-3" d="M29.58,63.01c-.05,0-.1,0-.16,0-.73-.04-1.41-.37-1.9-.91-.49-.55-.74-1.26-.7-1.99,.04-.73,.37-1.41,.91-1.9,.55-.49,1.25-.73,1.99-.7,.73,.04,1.41,.37,1.9,.91,.49,.55,.74,1.26,.7,1.99s-.37,1.41-.91,1.9c-.51,.46-1.16,.7-1.83,.7Zm0-4.51c-.43,0-.84,.16-1.17,.45-.35,.31-.56,.74-.58,1.21-.03,.47,.13,.92,.44,1.27,.31,.35,.74,.56,1.21,.58,.47,.02,.92-.13,1.27-.44,.35-.31,.56-.74,.58-1.21s-.13-.92-.44-1.27-.74-.56-1.21-.58c-.03,0-.07,0-.1,0Z"/>
          </g>
          <g>
            <circle class="cls-4" cx="37.21" cy="60.68" r="2.25"/>
            <path class="cls-3" d="M37.21,63.44c-.05,0-.1,0-.16,0-.73-.04-1.41-.37-1.9-.91-.49-.55-.74-1.26-.7-1.99s.37-1.41,.91-1.9c.55-.49,1.25-.73,1.99-.7,.73,.04,1.41,.37,1.9,.91,.49,.55,.74,1.26,.7,1.99-.04,.73-.37,1.41-.91,1.9-.51,.46-1.16,.7-1.83,.7Zm0-4.51c-.43,0-.84,.16-1.17,.45-.35,.31-.56,.74-.58,1.21s.13,.92,.44,1.27,.74,.56,1.21,.58c.47,.03,.92-.13,1.27-.44,.35-.31,.56-.74,.58-1.21h0c.03-.47-.13-.92-.44-1.27-.31-.35-.74-.56-1.21-.58-.03,0-.07,0-.1,0Z"/>
          </g>
        </g>
      </g>
      <g>
        <g>
          <rect class="cls-4" x="139.73" y="23.24" width="16.2" height="63.13" transform="translate(27.54 -47.12) rotate(19.93)"/>
          <path class="cls-3" d="M144.99,87.88l-16.17-5.86,21.87-60.29,16.17,5.86-21.87,60.29Zm-14.89-6.46l14.29,5.18,21.18-58.41-14.29-5.18-21.18,58.41Z"/>
        </g>
        <g>
          <g>
            <circle class="cls-4" cx="134.79" cy="79.56" r="2.25"/>
            <path class="cls-3" d="M134.79,82.32c-.32,0-.63-.06-.94-.17-1.43-.52-2.17-2.1-1.65-3.53,.52-1.43,2.1-2.17,3.53-1.65,.69,.25,1.24,.76,1.56,1.42s.34,1.41,.09,2.11h0c-.25,.69-.75,1.24-1.42,1.56-.37,.17-.77,.26-1.17,.26Zm0-4.51c-.72,0-1.39,.44-1.65,1.16-.33,.91,.14,1.92,1.05,2.25,.44,.16,.92,.14,1.34-.06,.42-.2,.75-.55,.91-.99h0c.16-.44,.14-.92-.06-1.34-.2-.42-.55-.75-.99-.91-.2-.07-.4-.11-.6-.11Z"/>
          </g>
          <g>
            <circle class="cls-4" cx="141.98" cy="82.17" r="2.25"/>
            <path class="cls-3" d="M141.97,84.92c-.31,0-.63-.05-.94-.17-.69-.25-1.25-.76-1.56-1.42s-.34-1.41-.09-2.11c.25-.69,.75-1.24,1.42-1.56,.67-.31,1.42-.35,2.11-.09,1.43,.52,2.17,2.1,1.65,3.53h0c-.41,1.12-1.47,1.82-2.59,1.82Zm0-4.51c-.25,0-.51,.06-.74,.17-.42,.2-.75,.55-.91,.99-.33,.91,.14,1.92,1.05,2.25,.91,.33,1.92-.14,2.25-1.05h0c.33-.91-.14-1.92-1.05-2.25-.2-.07-.4-.11-.6-.11Z"/>
          </g>
        </g>
        <g>
          <g>
            <circle class="cls-4" cx="140.18" cy="64.69" r="2.25"/>
            <path class="cls-3" d="M140.18,67.44c-.32,0-.63-.06-.94-.17-1.43-.52-2.17-2.1-1.65-3.53,.52-1.43,2.1-2.17,3.53-1.65,.69,.25,1.25,.76,1.56,1.42s.34,1.41,.09,2.11h0c-.25,.69-.75,1.24-1.42,1.56-.37,.17-.77,.26-1.17,.26Zm0-4.51c-.72,0-1.39,.44-1.65,1.16-.33,.91,.14,1.92,1.05,2.25,.44,.16,.92,.14,1.34-.06,.42-.2,.75-.55,.91-.99h0c.33-.91-.14-1.92-1.05-2.25-.2-.07-.4-.11-.6-.11Z"/>
          </g>
          <g>
            <circle class="cls-4" cx="147.37" cy="67.29" r="2.25"/>
            <path class="cls-3" d="M147.37,70.05c-.31,0-.63-.05-.94-.17-.69-.25-1.24-.76-1.56-1.42s-.34-1.41-.09-2.11c.25-.69,.75-1.24,1.42-1.56,.67-.31,1.42-.35,2.11-.09,1.43,.52,2.17,2.1,1.65,3.53h0c-.41,1.12-1.47,1.82-2.59,1.82Zm0-4.51c-.25,0-.51,.06-.74,.17-.42,.2-.75,.55-.91,.99-.16,.44-.14,.92,.06,1.34,.2,.42,.55,.75,.99,.91,.91,.33,1.92-.14,2.25-1.05h0c.33-.91-.14-1.92-1.05-2.25-.2-.07-.4-.11-.6-.11Z"/>
          </g>
        </g>
        <g>
          <g>
            <circle class="cls-4" cx="142.92" cy="57.13" r="2.25"/>
            <path class="cls-3" d="M142.92,59.89c-.32,0-.63-.06-.94-.17-.69-.25-1.25-.76-1.56-1.42s-.34-1.41-.09-2.11c.25-.69,.75-1.24,1.42-1.56,.67-.31,1.41-.34,2.11-.09,.69,.25,1.25,.76,1.56,1.42s.34,1.41,.09,2.11h0c-.25,.69-.75,1.24-1.42,1.56-.37,.17-.77,.26-1.17,.26Zm0-4.51c-.25,0-.51,.06-.74,.17-.42,.2-.75,.55-.91,.99-.16,.44-.14,.92,.06,1.34,.2,.42,.55,.75,.99,.91,.44,.16,.92,.14,1.34-.06,.42-.2,.75-.55,.91-.99h0c.16-.44,.14-.92-.06-1.34-.2-.42-.55-.75-.99-.91-.2-.07-.4-.11-.6-.11Z"/>
          </g>
          <g>
            <circle class="cls-4" cx="150.11" cy="59.74" r="2.25"/>
            <path class="cls-3" d="M150.11,62.5c-.31,0-.63-.05-.94-.17-.69-.25-1.24-.76-1.56-1.42-.31-.67-.34-1.41-.09-2.11,.52-1.43,2.1-2.17,3.53-1.65,1.43,.52,2.17,2.1,1.65,3.53h0c-.41,1.12-1.47,1.82-2.59,1.82Zm0-4.51c-.72,0-1.39,.44-1.65,1.16-.16,.44-.14,.92,.06,1.34,.2,.42,.55,.75,.99,.91,.91,.33,1.92-.14,2.25-1.05h0c.33-.91-.14-1.92-1.05-2.25-.2-.07-.4-.11-.6-.11Z"/>
          </g>
        </g>
        <g>
          <g>
            <circle class="cls-4" cx="145.66" cy="49.58" r="2.25"/>
            <path class="cls-3" d="M145.66,52.33c-.31,0-.63-.05-.94-.17-.69-.25-1.25-.76-1.56-1.42s-.34-1.41-.09-2.11c.25-.69,.75-1.24,1.42-1.56s1.42-.35,2.11-.09c1.43,.52,2.17,2.1,1.65,3.53h0c-.41,1.12-1.47,1.82-2.59,1.82Zm0-4.51c-.25,0-.51,.06-.74,.17-.42,.2-.75,.55-.91,.99-.33,.91,.14,1.92,1.05,2.25,.91,.33,1.92-.14,2.25-1.05h0c.33-.91-.14-1.92-1.05-2.25-.2-.07-.4-.11-.6-.11Z"/>
          </g>
          <g>
            <circle class="cls-4" cx="152.85" cy="52.19" r="2.25"/>
            <path class="cls-3" d="M152.85,54.94c-.31,0-.63-.05-.94-.17-1.43-.52-2.17-2.1-1.65-3.53,.25-.69,.76-1.24,1.42-1.56,.67-.31,1.41-.34,2.11-.09,.69,.25,1.24,.76,1.56,1.42,.31,.67,.34,1.41,.09,2.11-.41,1.12-1.47,1.82-2.59,1.82Zm0-4.51c-.25,0-.51,.06-.74,.17-.42,.2-.75,.55-.91,.99-.33,.91,.14,1.92,1.05,2.25,.91,.33,1.92-.14,2.25-1.05h0c.16-.44,.14-.92-.06-1.34-.2-.42-.55-.75-.99-.91-.2-.07-.4-.11-.6-.11Z"/>
          </g>
        </g>
        <g>
          <g>
            <circle class="cls-4" cx="148.4" cy="42.03" r="2.25"/>
            <path class="cls-3" d="M148.4,44.78c-.31,0-.63-.05-.94-.17-.69-.25-1.24-.76-1.56-1.42-.31-.67-.34-1.41-.09-2.11,.52-1.43,2.1-2.17,3.53-1.65,1.43,.52,2.17,2.1,1.65,3.53h0c-.41,1.12-1.47,1.82-2.59,1.82Zm0-4.51c-.72,0-1.39,.44-1.65,1.16-.16,.44-.14,.92,.06,1.34,.2,.42,.55,.75,.99,.91,.91,.33,1.92-.14,2.25-1.05h0c.33-.91-.14-1.92-1.05-2.25-.2-.07-.4-.11-.6-.11Z"/>
          </g>
          <g>
            <circle class="cls-4" cx="155.59" cy="44.63" r="2.25"/>
            <path class="cls-3" d="M155.59,47.39c-.31,0-.63-.05-.94-.17-.69-.25-1.24-.76-1.56-1.42-.31-.67-.34-1.41-.09-2.11,.52-1.43,2.1-2.17,3.53-1.65,.69,.25,1.24,.76,1.56,1.42,.31,.67,.34,1.41,.09,2.11h0c-.41,1.12-1.47,1.82-2.59,1.82Zm0-4.51c-.72,0-1.39,.44-1.65,1.16-.16,.44-.14,.92,.06,1.34,.2,.42,.55,.75,.99,.91,.91,.33,1.92-.14,2.25-1.05,.16-.44,.14-.92-.06-1.34-.2-.42-.55-.75-.99-.91-.2-.07-.4-.11-.6-.11Z"/>
          </g>
        </g>
        <g>
          <g>
            <circle class="cls-4" cx="153.69" cy="27.43" r="2.25"/>
            <path class="cls-3" d="M153.69,30.19c-.31,0-.63-.05-.94-.17-1.43-.52-2.17-2.1-1.65-3.53,.25-.69,.76-1.24,1.42-1.56,.67-.31,1.41-.34,2.11-.09,.69,.25,1.24,.76,1.56,1.42,.31,.67,.34,1.41,.09,2.11-.41,1.12-1.47,1.82-2.59,1.82Zm0-4.51c-.25,0-.51,.06-.74,.17-.42,.2-.75,.55-.91,.99-.33,.91,.14,1.92,1.05,2.25,.91,.33,1.92-.14,2.25-1.05h0c.16-.44,.14-.92-.06-1.34-.2-.42-.55-.75-.99-.91-.2-.07-.4-.11-.6-.11Z"/>
          </g>
          <g>
            <circle class="cls-4" cx="160.88" cy="30.04" r="2.25"/>
            <path class="cls-3" d="M160.88,32.8c-.31,0-.63-.05-.94-.17-1.43-.52-2.17-2.1-1.65-3.53,.52-1.43,2.1-2.17,3.53-1.65,.69,.25,1.25,.76,1.56,1.42s.34,1.41,.09,2.11c-.41,1.12-1.47,1.82-2.59,1.82Zm0-4.51c-.72,0-1.39,.44-1.65,1.16-.33,.91,.14,1.92,1.05,2.25,.91,.33,1.92-.14,2.25-1.05h0c.16-.44,.14-.92-.06-1.34-.2-.42-.55-.75-.99-.91-.2-.07-.4-.11-.6-.11Z"/>
          </g>
        </g>
      </g>
    </g>
    <g>
      <g>
        <rect class="cls-4" x="55.89" y="4.05" width="16.2" height="63.13" transform="translate(4.83 -7.55) rotate(7.02)"/>
        <path class="cls-3" d="M68.61,68.49l-17.07-2.1,.06-.5L59.37,2.74l17.07,2.1-.06,.5-7.77,63.15Zm-15.96-2.97l15.09,1.86,7.59-61.67-15.08-1.86-7.59,61.67Z"/>
      </g>
      <g>
        <g>
          <circle class="cls-4" cx="63.58" cy="7.63" r="2.25"/>
          <path class="cls-3" d="M63.59,10.39c-.11,0-.23,0-.34-.02-1.51-.19-2.58-1.56-2.4-3.07,.09-.73,.46-1.38,1.04-1.84,.58-.45,1.29-.65,2.03-.56,.73,.09,1.38,.46,1.83,1.04,.45,.58,.65,1.3,.56,2.03h0c-.09,.73-.46,1.38-1.04,1.83-.49,.38-1.08,.58-1.69,.58Zm0-4.51c-.39,0-.76,.13-1.08,.37-.37,.29-.6,.7-.66,1.17-.12,.96,.57,1.84,1.53,1.96,.46,.06,.92-.07,1.29-.36,.37-.29,.6-.7,.66-1.17h0c.06-.47-.07-.93-.36-1.29s-.7-.6-1.17-.66c-.07,0-.15-.01-.22-.01Z"/>
        </g>
        <g>
          <circle class="cls-4" cx="71.17" cy="8.57" r="2.25"/>
          <path class="cls-3" d="M71.17,11.32c-.11,0-.22,0-.34-.02-.73-.09-1.38-.46-1.84-1.04-.45-.58-.65-1.3-.56-2.03,.19-1.51,1.55-2.58,3.07-2.4,.73,.09,1.38,.46,1.83,1.04s.65,1.3,.56,2.03c-.17,1.39-1.36,2.42-2.73,2.42Zm0-4.51c-.87,0-1.63,.65-1.74,1.54-.06,.47,.07,.93,.36,1.29,.29,.37,.7,.6,1.17,.66,.95,.11,1.84-.57,1.96-1.53,.06-.47-.07-.92-.36-1.29-.29-.37-.7-.6-1.17-.66-.07,0-.15-.01-.22-.01Z"/>
        </g>
      </g>
      <g>
        <g>
          <circle class="cls-4" cx="61.65" cy="23.34" r="2.25"/>
          <path class="cls-3" d="M61.65,26.09c-.11,0-.22,0-.34-.02-.73-.09-1.38-.46-1.83-1.04-.45-.58-.65-1.3-.56-2.03,.09-.73,.46-1.38,1.04-1.83s1.3-.65,2.03-.56c1.51,.19,2.58,1.56,2.4,3.07h0c-.17,1.39-1.36,2.42-2.73,2.42Zm0-4.51c-.39,0-.76,.13-1.08,.37-.37,.29-.6,.7-.66,1.17-.06,.47,.07,.93,.36,1.29s.7,.6,1.17,.66c.96,.11,1.84-.57,1.96-1.53h0c.12-.96-.57-1.84-1.53-1.96-.07,0-.15-.01-.22-.01Z"/>
        </g>
        <g>
          <circle class="cls-4" cx="69.24" cy="24.27" r="2.25"/>
          <path class="cls-3" d="M69.24,27.03c-.11,0-.23,0-.34-.02-1.51-.19-2.58-1.56-2.4-3.07,.19-1.51,1.58-2.58,3.07-2.4,.73,.09,1.38,.46,1.83,1.04,.45,.58,.65,1.3,.56,2.03h0c-.09,.73-.46,1.38-1.04,1.83-.49,.38-1.08,.58-1.69,.58Zm0-4.51c-.87,0-1.63,.65-1.74,1.54-.12,.96,.57,1.84,1.53,1.96,.46,.06,.92-.07,1.29-.36,.37-.29,.6-.7,.66-1.17h0c.06-.47-.07-.93-.36-1.29-.29-.37-.7-.6-1.17-.66-.07,0-.14-.01-.21-.01Z"/>
        </g>
      </g>
      <g>
        <g>
          <circle class="cls-4" cx="60.67" cy="31.31" r="2.25"/>
          <path class="cls-3" d="M60.67,34.07c-.11,0-.23,0-.34-.02-.73-.09-1.38-.46-1.83-1.04s-.65-1.3-.56-2.03c.19-1.51,1.56-2.59,3.07-2.4,.73,.09,1.38,.46,1.83,1.04s.65,1.3,.56,2.03c-.09,.73-.46,1.38-1.04,1.83-.49,.38-1.08,.58-1.69,.58Zm0-4.51c-.87,0-1.63,.65-1.74,1.54-.06,.47,.07,.92,.36,1.29,.29,.37,.7,.6,1.17,.66,.47,.06,.92-.07,1.29-.36,.37-.29,.6-.7,.66-1.17,.06-.47-.07-.92-.36-1.29-.29-.37-.7-.6-1.17-.66-.07,0-.15-.01-.22-.01Z"/>
        </g>
        <g>
          <circle class="cls-4" cx="68.26" cy="32.25" r="2.25"/>
          <path class="cls-3" d="M68.26,35c-.11,0-.22,0-.34-.02-.73-.09-1.38-.46-1.83-1.04s-.65-1.3-.56-2.03c.19-1.51,1.58-2.59,3.07-2.4,1.51,.19,2.58,1.56,2.4,3.07-.17,1.39-1.36,2.42-2.73,2.42Zm0-4.51c-.87,0-1.63,.65-1.74,1.54-.06,.47,.07,.92,.36,1.29,.29,.37,.7,.6,1.17,.66,.97,.11,1.84-.57,1.96-1.53,.12-.96-.57-1.84-1.53-1.96-.07,0-.14-.01-.21-.01Z"/>
        </g>
      </g>
      <g>
        <g>
          <circle class="cls-4" cx="59.68" cy="39.29" r="2.25"/>
          <path class="cls-3" d="M59.69,42.04c-.11,0-.22,0-.34-.02-.73-.09-1.38-.46-1.83-1.04s-.65-1.3-.56-2.03c.09-.73,.46-1.38,1.04-1.83,.58-.45,1.3-.65,2.03-.56,.73,.09,1.38,.46,1.83,1.04s.65,1.3,.56,2.03c-.17,1.39-1.36,2.42-2.73,2.42Zm0-4.51c-.39,0-.76,.13-1.08,.37-.37,.29-.6,.7-.66,1.17-.06,.47,.07,.92,.36,1.29,.29,.37,.7,.6,1.17,.66,.96,.12,1.84-.57,1.96-1.53,.06-.47-.07-.92-.36-1.29-.29-.37-.7-.6-1.17-.66-.07,0-.15-.01-.22-.01Z"/>
        </g>
        <g>
          <circle class="cls-4" cx="67.27" cy="40.22" r="2.25"/>
          <path class="cls-3" d="M67.28,42.97c-.11,0-.22,0-.34-.02-.73-.09-1.38-.46-1.83-1.04s-.65-1.3-.56-2.03c.19-1.51,1.57-2.59,3.07-2.4,.73,.09,1.38,.46,1.84,1.04s.65,1.3,.56,2.03c-.17,1.39-1.36,2.42-2.73,2.42Zm0-4.51c-.87,0-1.63,.65-1.74,1.54-.06,.47,.07,.92,.36,1.29,.29,.37,.7,.6,1.17,.66,.97,.11,1.84-.57,1.96-1.53,.06-.47-.07-.92-.36-1.29-.29-.37-.7-.6-1.17-.66-.07,0-.14-.01-.21-.01Z"/>
        </g>
      </g>
      <g>
        <g>
          <circle class="cls-4" cx="58.7" cy="47.26" r="2.25"/>
          <path class="cls-3" d="M58.71,50.02c-.11,0-.23,0-.34-.02-.73-.09-1.38-.46-1.83-1.04-.45-.58-.65-1.3-.56-2.03,.09-.73,.46-1.38,1.04-1.83,.58-.45,1.3-.65,2.03-.56,.73,.09,1.38,.46,1.83,1.04,.45,.58,.65,1.3,.56,2.03h0c-.09,.73-.46,1.38-1.04,1.83-.49,.38-1.08,.58-1.69,.58Zm0-4.51c-.39,0-.76,.13-1.08,.37-.37,.29-.6,.7-.66,1.17-.06,.47,.07,.93,.36,1.29s.7,.6,1.17,.66c.46,.06,.93-.07,1.29-.36s.6-.7,.66-1.17h0c.06-.47-.07-.93-.36-1.29-.29-.37-.7-.6-1.17-.66-.07,0-.14-.01-.22-.01Z"/>
        </g>
        <g>
          <circle class="cls-4" cx="66.29" cy="48.19" r="2.25"/>
          <path class="cls-3" d="M66.3,50.95c-.11,0-.23,0-.34-.02-1.51-.19-2.58-1.56-2.4-3.07,.19-1.51,1.58-2.58,3.07-2.4,.73,.09,1.38,.46,1.83,1.04,.45,.58,.65,1.3,.56,2.03h0c-.09,.73-.46,1.38-1.04,1.83-.49,.38-1.08,.58-1.69,.58Zm0-4.51c-.87,0-1.63,.65-1.74,1.54-.12,.96,.57,1.84,1.53,1.96,.47,.05,.92-.07,1.29-.36,.37-.29,.6-.7,.66-1.17h0c.06-.47-.07-.93-.36-1.29-.29-.37-.7-.6-1.17-.66-.07,0-.14-.01-.21-.01Z"/>
        </g>
      </g>
      <g>
        <g>
          <circle class="cls-4" cx="56.81" cy="62.67" r="2.25"/>
          <path class="cls-3" d="M56.81,65.42c-.11,0-.23,0-.34-.02-.73-.09-1.38-.46-1.83-1.04s-.65-1.3-.56-2.03c.19-1.51,1.58-2.58,3.07-2.4,1.51,.19,2.58,1.56,2.4,3.07h0c-.09,.73-.46,1.38-1.04,1.83-.49,.38-1.08,.58-1.69,.58Zm0-4.51c-.87,0-1.63,.65-1.74,1.54-.06,.47,.07,.92,.36,1.29,.29,.37,.7,.6,1.17,.66,.47,.06,.92-.07,1.29-.36,.37-.29,.6-.7,.66-1.17,.12-.96-.57-1.84-1.53-1.96-.07,0-.14-.01-.21-.01Z"/>
        </g>
        <g>
          <circle class="cls-4" cx="64.4" cy="63.6" r="2.25"/>
          <path class="cls-3" d="M64.4,66.36c-.11,0-.23,0-.34-.02-.73-.09-1.38-.46-1.83-1.04s-.65-1.3-.56-2.03c.19-1.51,1.58-2.58,3.07-2.4,1.51,.19,2.58,1.56,2.4,3.07h0c-.09,.73-.46,1.38-1.04,1.83-.49,.38-1.08,.58-1.69,.58Zm0-4.51c-.87,0-1.63,.65-1.74,1.54-.06,.47,.07,.92,.36,1.29,.29,.37,.7,.6,1.17,.66,.47,.06,.92-.07,1.29-.36,.37-.29,.6-.7,.66-1.17h0c.12-.96-.57-1.84-1.53-1.96-.07,0-.14-.01-.21-.01Z"/>
        </g>
      </g>
    </g>
    <g>
      <g>
        <rect class="cls-4" x="111.95" y="14.91" width="16.2" height="63.13" transform="translate(17.03 -30.71) rotate(15.68)"/>
        <path class="cls-3" d="M119.66,79.67l-16.56-4.65L120.43,13.28l16.56,4.65-17.33,61.74Zm-15.33-5.34l14.63,4.11,16.79-59.82-14.63-4.11-16.79,59.82Z"/>
      </g>
      <g>
        <g>
          <circle class="cls-4" cx="108.87" cy="72.13" r="2.25"/>
          <path class="cls-3" d="M108.87,74.89c-.25,0-.5-.03-.74-.1-1.46-.41-2.32-1.93-1.91-3.4,.41-1.46,1.94-2.32,3.4-1.91,1.46,.41,2.32,1.93,1.91,3.4h0c-.34,1.21-1.45,2.01-2.65,2.01Zm0-4.51c-.77,0-1.47,.51-1.69,1.28-.26,.93,.28,1.9,1.21,2.16,.93,.26,1.9-.28,2.16-1.22,.26-.93-.28-1.9-1.21-2.16-.16-.04-.32-.07-.47-.07Z"/>
        </g>
        <g>
          <circle class="cls-4" cx="116.23" cy="74.2" r="2.25"/>
          <path class="cls-3" d="M116.23,76.96c-.25,0-.5-.03-.74-.1-1.46-.41-2.32-1.93-1.91-3.4,.41-1.46,1.94-2.32,3.4-1.91,.71,.2,1.3,.66,1.66,1.3s.45,1.38,.25,2.09h0c-.34,1.21-1.45,2.01-2.65,2.01Zm0-4.51c-.77,0-1.47,.51-1.69,1.28-.26,.93,.28,1.9,1.21,2.16,.93,.26,1.9-.28,2.16-1.22h0c.13-.45,.07-.92-.16-1.33-.23-.41-.6-.7-1.06-.83-.16-.04-.32-.07-.47-.07Z"/>
        </g>
      </g>
      <g>
        <g>
          <circle class="cls-4" cx="113.15" cy="56.9" r="2.25"/>
          <path class="cls-3" d="M113.15,59.66c-.25,0-.5-.03-.75-.1-.71-.2-1.3-.66-1.66-1.3s-.45-1.38-.25-2.09c.2-.71,.66-1.3,1.3-1.66,.64-.36,1.38-.45,2.09-.25,1.46,.41,2.32,1.93,1.91,3.4h0c-.2,.71-.66,1.3-1.3,1.66-.42,.23-.88,.35-1.34,.35Zm0-4.51c-.3,0-.59,.08-.86,.23-.41,.23-.7,.6-.83,1.06-.13,.45-.07,.93,.16,1.33,.23,.41,.6,.7,1.06,.83,.45,.13,.92,.07,1.33-.16,.41-.23,.7-.6,.83-1.06h0c.26-.93-.28-1.9-1.21-2.16-.16-.04-.32-.07-.48-.07Z"/>
        </g>
        <g>
          <circle class="cls-4" cx="120.51" cy="58.97" r="2.25"/>
          <path class="cls-3" d="M120.51,61.72c-.25,0-.5-.03-.74-.1-.71-.2-1.3-.66-1.66-1.3s-.45-1.38-.25-2.09c.41-1.46,1.94-2.32,3.4-1.91,1.46,.41,2.32,1.93,1.91,3.4h0c-.34,1.21-1.45,2.01-2.65,2.01Zm0-4.51c-.77,0-1.47,.51-1.69,1.28-.13,.45-.07,.92,.16,1.33,.23,.41,.6,.7,1.06,.83,.93,.26,1.9-.28,2.16-1.21h0c.26-.93-.28-1.9-1.21-2.16-.16-.04-.32-.07-.47-.07Z"/>
        </g>
      </g>
      <g>
        <g>
          <circle class="cls-4" cx="115.32" cy="49.16" r="2.25"/>
          <path class="cls-3" d="M115.32,51.92c-.25,0-.5-.03-.75-.1-1.46-.41-2.32-1.93-1.91-3.4,.41-1.46,1.93-2.32,3.4-1.91,.71,.2,1.3,.66,1.66,1.3s.45,1.39,.25,2.09c-.2,.71-.66,1.3-1.3,1.66-.42,.23-.88,.35-1.34,.35Zm0-4.51c-.77,0-1.47,.51-1.69,1.28-.26,.93,.28,1.9,1.21,2.16,.45,.13,.93,.07,1.33-.16,.41-.23,.7-.6,.83-1.06h0c.13-.45,.07-.93-.16-1.33s-.6-.7-1.06-.83c-.16-.04-.32-.07-.47-.07Z"/>
        </g>
        <g>
          <circle class="cls-4" cx="122.68" cy="51.23" r="2.25"/>
          <path class="cls-3" d="M122.69,53.99c-.25,0-.5-.03-.75-.1-.71-.2-1.3-.66-1.66-1.3s-.45-1.38-.25-2.09c.2-.71,.66-1.3,1.3-1.66,.64-.36,1.39-.45,2.09-.25,.71,.2,1.3,.66,1.66,1.3s.45,1.39,.25,2.09c-.2,.71-.66,1.3-1.3,1.66-.42,.23-.88,.35-1.34,.35Zm0-4.51c-.3,0-.59,.08-.86,.23-.41,.23-.7,.6-.83,1.06-.13,.45-.07,.93,.16,1.33,.23,.41,.6,.7,1.05,.83,.45,.13,.93,.07,1.33-.16,.41-.23,.7-.6,.83-1.06h0c.13-.45,.07-.93-.16-1.33s-.6-.7-1.06-.83c-.16-.04-.32-.07-.48-.07Z"/>
        </g>
      </g>
      <g>
        <g>
          <circle class="cls-4" cx="117.49" cy="41.43" r="2.25"/>
          <path class="cls-3" d="M117.49,44.18c-.25,0-.5-.03-.74-.1-.71-.2-1.3-.66-1.66-1.3s-.45-1.38-.25-2.09c.41-1.46,1.94-2.32,3.4-1.91,1.46,.41,2.32,1.93,1.91,3.4h0c-.34,1.21-1.45,2.01-2.65,2.01Zm0-4.51c-.77,0-1.47,.51-1.69,1.28-.13,.45-.07,.92,.16,1.33,.23,.41,.6,.7,1.06,.83,.94,.26,1.9-.28,2.16-1.21h0c.26-.93-.28-1.9-1.21-2.16-.16-.04-.32-.07-.47-.07Z"/>
        </g>
        <g>
          <circle class="cls-4" cx="124.85" cy="43.49" r="2.25"/>
          <path class="cls-3" d="M124.85,46.25c-.25,0-.5-.03-.74-.1-.71-.2-1.3-.66-1.66-1.3s-.45-1.38-.25-2.09c.41-1.46,1.93-2.32,3.4-1.91s2.32,1.93,1.91,3.4h0c-.34,1.21-1.45,2.01-2.65,2.01Zm0-4.51c-.77,0-1.47,.51-1.69,1.28-.13,.45-.07,.92,.16,1.33,.23,.41,.6,.7,1.06,.83,.93,.26,1.9-.28,2.16-1.21h0c.26-.93-.28-1.9-1.21-2.16-.16-.04-.32-.07-.47-.07Z"/>
        </g>
      </g>
      <g>
        <g>
          <circle class="cls-4" cx="119.66" cy="33.69" r="2.25"/>
          <path class="cls-3" d="M119.67,36.45c-.25,0-.5-.03-.75-.1-1.46-.41-2.32-1.93-1.91-3.4,.41-1.46,1.93-2.32,3.4-1.91,.71,.2,1.3,.66,1.66,1.3s.45,1.38,.25,2.09h0c-.2,.71-.66,1.3-1.3,1.66-.42,.23-.88,.35-1.35,.35Zm0-4.51c-.77,0-1.47,.51-1.69,1.28-.26,.93,.28,1.9,1.22,2.16,.45,.13,.92,.07,1.33-.16,.41-.23,.7-.6,.83-1.06h0c.13-.45,.07-.93-.16-1.33s-.6-.7-1.06-.83c-.16-.04-.32-.07-.47-.07Z"/>
        </g>
        <g>
          <circle class="cls-4" cx="127.02" cy="35.76" r="2.25"/>
          <path class="cls-3" d="M127.03,38.52c-.25,0-.5-.03-.75-.1-.71-.2-1.3-.66-1.66-1.3s-.45-1.38-.25-2.09c.2-.71,.66-1.3,1.3-1.66,.64-.36,1.38-.45,2.09-.25,.71,.2,1.3,.66,1.66,1.3s.45,1.38,.25,2.09h0c-.2,.71-.66,1.3-1.3,1.66-.42,.23-.88,.35-1.34,.35Zm0-4.51c-.3,0-.59,.08-.86,.23-.41,.23-.7,.6-.83,1.06-.13,.45-.07,.93,.16,1.33,.23,.41,.6,.7,1.06,.83,.45,.13,.93,.07,1.33-.16,.41-.23,.7-.6,.83-1.06h0c.13-.45,.07-.93-.16-1.33s-.6-.7-1.06-.83c-.16-.04-.32-.07-.48-.07Z"/>
        </g>
      </g>
      <g>
        <g>
          <circle class="cls-4" cx="123.86" cy="18.75" r="2.25"/>
          <path class="cls-3" d="M123.86,21.5c-.25,0-.5-.03-.75-.1-.71-.2-1.3-.66-1.66-1.3s-.45-1.38-.25-2.09c.41-1.46,1.94-2.32,3.4-1.91,1.46,.41,2.32,1.93,1.91,3.4h0c-.2,.71-.66,1.3-1.3,1.66-.42,.23-.88,.35-1.34,.35Zm0-4.51c-.77,0-1.47,.51-1.69,1.28-.13,.45-.07,.92,.16,1.33,.23,.41,.6,.7,1.06,.83,.93,.26,1.9-.28,2.16-1.22,.26-.93-.28-1.9-1.21-2.16-.16-.04-.32-.07-.47-.07Z"/>
        </g>
        <g>
          <circle class="cls-4" cx="131.22" cy="20.81" r="2.25"/>
          <path class="cls-3" d="M131.22,23.57c-.25,0-.5-.03-.75-.1-1.46-.41-2.32-1.93-1.91-3.4,.41-1.46,1.94-2.32,3.4-1.91,1.46,.41,2.32,1.93,1.91,3.4h0c-.2,.71-.66,1.3-1.3,1.66-.42,.23-.88,.35-1.34,.35Zm0-4.51c-.77,0-1.47,.51-1.69,1.28-.26,.93,.28,1.9,1.21,2.16,.94,.26,1.9-.28,2.16-1.22,.26-.93-.28-1.9-1.21-2.16-.16-.04-.32-.07-.47-.07Z"/>
        </g>
      </g>
    </g>
    <g>
      <g>
        <path class="cls-5" d="M9.13,16.8c61.12-.53,121.69,11.85,177.76,36.34,.25-.57,.5-1.14,.75-1.72C131.34,26.82,70.5,14.4,9.12,14.93c0,.62,.01,1.25,.02,1.87Z"/>
        <path class="cls-3" d="M187.15,53.8l-.46-.2C130.36,28.99,70.65,16.79,9.14,17.3h-.5s-.03-2.87-.03-2.87h.5c61.87-.55,122.02,11.76,178.73,36.53l.46,.2-1.15,2.63ZM12.96,16.28c60.11,0,118.51,12.17,173.68,36.2l.35-.8C130.69,27.16,71.01,14.95,9.62,15.42v.87c1.12,0,2.23-.01,3.34-.01Z"/>
      </g>
      <g>
        <path class="cls-5" d="M182.04,42.57C124.59,18.8,62.73,7.39,.51,9.13c.02,.62,.03,1.25,.05,1.87,61.96-1.73,123.55,9.63,180.76,33.3,.24-.58,.48-1.15,.72-1.73Z"/>
        <path class="cls-3" d="M181.6,44.95l-.46-.19C123.58,20.95,62.83,9.76,.58,11.5H.08s-.08-2.83-.08-2.83l.5-.04c62.67-1.75,123.81,9.51,181.74,33.48l.46,.19-1.1,2.65ZM13.13,10.32c57.84,0,114.27,11.19,167.93,33.32l.33-.81C123.89,19.12,63.21,7.94,1.03,9.61l.02,.87c4.03-.11,8.06-.16,12.08-.16Z"/>
      </g>
      <g>
        <path class="cls-2" d="M181.33,44.3C124.11,20.63,62.52,9.27,.56,11c.02,.62,.03,1.24,.05,1.87,2.83-.08,5.66-.13,8.48-.15,0,.74,.01,1.48,.02,2.22,61.38-.53,122.22,11.9,178.52,36.5,.28-.65,.57-1.3,.85-1.95-2.63-1.15-5.27-2.27-7.92-3.37,.25-.6,.5-1.2,.75-1.8Z"/>
        <path class="cls-3" d="M187.9,52.08l-.46-.2C130.86,27.16,70.84,14.89,9.12,15.43h-.5s-.02-2.21-.02-2.21c-2.64,.03-5.32,.08-7.97,.15H.13s-.08-2.85-.08-2.85H.55c62.41-1.76,123.29,9.46,180.97,33.33l.46,.19-.75,1.8c2.5,1.04,5.01,2.11,7.46,3.18l.46,.2-1.25,2.87ZM12.96,14.41c60.37,0,119.02,12.22,174.42,36.35l.45-1.04c-2.45-1.07-4.95-2.13-7.45-3.16l-.46-.19,.75-1.8C123.42,20.96,62.99,9.83,1.08,11.48l.02,.87c2.66-.07,5.35-.12,7.99-.14h.5s.02,2.21,.02,2.21c1.11,0,2.23-.01,3.35-.01Z"/>
      </g>
      <g>
        <path class="cls-5" d="M9.25,56.5c55.42-.48,110.34,10.74,161.18,32.95,.25-.57,.5-1.14,.75-1.72C120.1,65.41,64.91,54.14,9.23,54.62c0,.62,.01,1.25,.02,1.87Z"/>
        <path class="cls-3" d="M170.68,90.1l-.46-.2C120.21,68.05,67.23,56.98,12.72,56.98c-1.16,0-2.31,0-3.46,.02h-.5s-.02-2.87-.02-2.87h.5c56.13-.46,110.7,10.67,162.15,33.14l.46,.2-1.15,2.63ZM12.72,55.98c54.49,0,107.44,11.03,157.45,32.81l.35-.8C120.4,66.16,67.32,55.11,12.71,55.11c-.99,0-1.98,0-2.98,.01v.87c1,0,1.99-.01,2.98-.01Z"/>
      </g>
      <g>
        <path class="cls-5" d="M166.31,79.19C114.12,57.59,57.93,47.23,1.41,48.81c.02,.62,.03,1.25,.05,1.87,56.26-1.57,112.18,8.74,164.13,30.24,.24-.58,.48-1.15,.72-1.73Z"/>
        <path class="cls-3" d="M165.86,81.57l-.46-.19C113.15,59.76,58.01,49.6,1.47,51.18h-.5s-.08-2.86-.08-2.86h.5c56.92-1.6,112.48,8.63,165.1,30.4l.46,.19-1.1,2.65ZM12.87,50.02c52.51,0,103.73,10.16,152.45,30.24l.33-.81C113.45,57.93,58.38,47.79,1.92,49.29l.02,.87c3.65-.1,7.29-.15,10.92-.15Z"/>
      </g>
      <g>
        <path class="cls-2" d="M165.59,80.92C113.64,59.42,57.72,49.11,1.46,50.68c.02,.62,.03,1.24,.05,1.87,2.57-.07,5.13-.12,7.7-.14,0,.74,.01,1.48,.02,2.22,55.68-.48,110.87,10.79,161.95,33.11,.28-.65,.57-1.3,.85-1.95-2.39-1.04-4.78-2.06-7.18-3.06,.25-.6,.5-1.2,.75-1.8Z"/>
        <path class="cls-3" d="M171.43,88.39l-.46-.2C119.66,65.77,65.21,54.66,9.24,55.12h-.5s-.02-2.21-.02-2.21c-2.39,.02-4.8,.07-7.19,.14h-.5s-.08-2.85-.08-2.85h.5c56.65-1.6,111.95,8.59,164.34,30.26l.46,.19-.75,1.8c2.24,.93,4.5,1.89,6.73,2.87l.46,.2-1.25,2.87ZM12.71,54.11c54.75,0,107.95,11.08,158.2,32.96l.45-1.04c-2.23-.97-4.49-1.93-6.72-2.85l-.46-.19,.75-1.8C112.98,59.76,58.16,49.66,1.97,51.17l.02,.87c2.4-.06,4.82-.11,7.21-.13h.5s.02,2.21,.02,2.21c.99,0,2-.01,2.99-.01Z"/>
      </g>
    </g>
  </g>
  <rect class="cls-1" x="178.59" y="57.53" width="1.23" height=".99" transform="translate(31.75 -59.2) rotate(20.54)"/>
</svg>