<?xml version="1.0" encoding="UTF-8"?>
<svg id="Livello_1" data-name="Livello 1" xmlns="http://www.w3.org/2000/svg" viewBox="0 0 40.13 64.13">
  <defs>
    <style>
      .cls-1 {
        fill: #fff;
      }

      .cls-2 {
        fill: #d7d5d6;
      }

      .cls-3 {
        fill: #3f4541;
      }

      .cls-4 {
        fill: #707472;
      }

      .cls-5 {
        fill: #606663;
      }
    </style>
  </defs>
  <g>
    <path class="cls-4" d="M36.21,63.63v-9.75h-4.12s0-4.33,0-4.33h4.12v-6.42h-1.04s0-2.44,0-2.44c.24,.62,.84,1.06,1.55,1.06,.92,0,1.67-.75,1.67-1.67s-.75-1.67-1.67-1.67c-.7,0-1.3,.44-1.55,1.06v-2.38s1.04,0,1.04,0v-11.81c-.27,.25-.63,.41-1.03,.41-.84,0-1.52-.68-1.52-1.52s.68-1.52,1.52-1.52c.4,0,.76,.16,1.03,.41V.5h-8.28V63.63h8.28Z"/>
    <path class="cls-3" d="M36.71,64.13h-9.28V0h9.28V37.59h-1.04v.6c.31-.17,.67-.27,1.05-.27,1.19,0,2.17,.97,2.17,2.17s-.97,2.17-2.17,2.17c-.38,0-.73-.1-1.05-.27v.65h1.04v7.42h-4.12v3.33h4.12v10.75Zm-8.28-1h7.28v-8.75h-4.12v-5.33h4.12v-5.42h-1.04v-7.04h1.04v-10.47c-.17,.05-.35,.07-.53,.07-1.12,0-2.02-.91-2.02-2.02s.91-2.02,2.02-2.02c.18,0,.36,.02,.53,.07V1h-7.28V63.13Zm7.04-23.05l.17,.43c.18,.45,.6,.74,1.08,.74,.64,0,1.17-.52,1.17-1.17s-.52-1.17-1.17-1.17c-.48,0-.91,.29-1.08,.74l-.17,.43Zm-.29-16.94c-.56,0-1.02,.46-1.02,1.02s.46,1.02,1.02,1.02c.25,0,.5-.1,.69-.28l.81-.75-.81-.75c-.19-.18-.44-.28-.69-.28Z"/>
  </g>
  <g>
    <path class="cls-4" d="M4.06,.5V10.25h4.12v4.33H4.06v6.42h1.04v2.44c-.24-.62-.84-1.06-1.55-1.06-.92,0-1.67,.75-1.67,1.67s.75,1.67,1.67,1.67c.7,0,1.3-.44,1.55-1.06v2.38h-1.04v11.81c.27-.25,.63-.41,1.03-.41,.84,0,1.52,.68,1.52,1.52s-.68,1.52-1.52,1.52c-.4,0-.76-.16-1.03-.41v22.55H12.34V.5H4.06Z"/>
    <path class="cls-3" d="M12.84,64.13H3.56V26.54h1.04v-.6c-.31,.17-.67,.27-1.05,.27-1.19,0-2.17-.97-2.17-2.17s.97-2.17,2.17-2.17c.38,0,.73,.1,1.05,.27v-.65h-1.04v-7.42H7.69v-3.33H3.56V0H12.84V64.13Zm-8.28-1h7.28V1H4.56V9.75h4.12v5.33H4.56v5.42h1.04v7.04h-1.04v10.47c.17-.05,.35-.07,.53-.07,1.12,0,2.02,.91,2.02,2.02s-.91,2.02-2.02,2.02c-.18,0-.36-.02-.53-.07v21.21Zm-.97-23.16l.81,.75c.19,.18,.44,.28,.69,.28,.56,0,1.02-.46,1.02-1.02s-.46-1.02-1.02-1.02c-.25,0-.5,.1-.69,.28l-.81,.75Zm-.04-17.08c-.64,0-1.17,.52-1.17,1.17s.52,1.17,1.17,1.17c.48,0,.9-.29,1.08-.74l.17-.43-.17-.43c-.18-.45-.6-.74-1.08-.74Z"/>
  </g>
  <g>
    <circle class="cls-4" cx="32.2" cy="4.34" r="2.25"/>
    <path class="cls-3" d="M32.21,7.1c-1.52,0-2.75-1.24-2.75-2.75s1.24-2.75,2.75-2.75,2.75,1.24,2.75,2.75-1.24,2.75-2.75,2.75Zm0-4.51c-.97,0-1.75,.79-1.75,1.75s.79,1.75,1.75,1.75,1.75-.79,1.75-1.75-.79-1.75-1.75-1.75Z"/>
  </g>
  <g>
    <circle class="cls-4" cx="32.2" cy="20.16" r="2.25"/>
    <path class="cls-3" d="M32.21,22.92c-1.52,0-2.75-1.24-2.75-2.75s1.24-2.75,2.75-2.75,2.75,1.24,2.75,2.75-1.24,2.75-2.75,2.75Zm0-4.51c-.97,0-1.75,.79-1.75,1.75s.79,1.75,1.75,1.75,1.75-.79,1.75-1.75-.79-1.75-1.75-1.75Z"/>
  </g>
  <g>
    <circle class="cls-4" cx="32.2" cy="28.2" r="2.25"/>
    <path class="cls-3" d="M32.21,30.95c-1.52,0-2.75-1.24-2.75-2.75s1.24-2.75,2.75-2.75,2.75,1.24,2.75,2.75-1.24,2.75-2.75,2.75Zm0-4.51c-.97,0-1.75,.79-1.75,1.75s.79,1.75,1.75,1.75,1.75-.79,1.75-1.75-.79-1.75-1.75-1.75Z"/>
  </g>
  <g>
    <circle class="cls-4" cx="32.2" cy="36.23" r="2.25"/>
    <path class="cls-3" d="M32.21,38.99c-1.52,0-2.75-1.24-2.75-2.75s1.24-2.75,2.75-2.75,2.75,1.24,2.75,2.75-1.24,2.75-2.75,2.75Zm0-4.51c-.97,0-1.75,.79-1.75,1.75s.79,1.75,1.75,1.75,1.75-.79,1.75-1.75-.79-1.75-1.75-1.75Z"/>
  </g>
  <g>
    <circle class="cls-4" cx="32.2" cy="44.27" r="2.25"/>
    <path class="cls-3" d="M32.21,47.02c-1.52,0-2.75-1.24-2.75-2.75s1.24-2.75,2.75-2.75,2.75,1.24,2.75,2.75-1.24,2.75-2.75,2.75Zm0-4.51c-.97,0-1.75,.79-1.75,1.75s.79,1.75,1.75,1.75,1.75-.79,1.75-1.75-.79-1.75-1.75-1.75Z"/>
  </g>
  <g>
    <circle class="cls-4" cx="32.2" cy="59.79" r="2.25"/>
    <path class="cls-3" d="M32.21,62.54c-1.52,0-2.75-1.24-2.75-2.75s1.24-2.75,2.75-2.75,2.75,1.24,2.75,2.75-1.24,2.75-2.75,2.75Zm0-4.51c-.97,0-1.75,.79-1.75,1.75s.79,1.75,1.75,1.75,1.75-.79,1.75-1.75-.79-1.75-1.75-1.75Z"/>
  </g>
  <g>
    <circle class="cls-4" cx="8.07" cy="59.79" r="2.25"/>
    <path class="cls-3" d="M8.07,62.54c-1.52,0-2.75-1.24-2.75-2.75s1.24-2.75,2.75-2.75,2.75,1.24,2.75,2.75-1.24,2.75-2.75,2.75Zm0-4.51c-.97,0-1.75,.79-1.75,1.75s.79,1.75,1.75,1.75,1.75-.79,1.75-1.75-.79-1.75-1.75-1.75Z"/>
  </g>
  <g>
    <circle class="cls-4" cx="8.07" cy="43.97" r="2.25"/>
    <path class="cls-3" d="M8.07,46.72c-1.52,0-2.75-1.24-2.75-2.75s1.24-2.75,2.75-2.75,2.75,1.24,2.75,2.75-1.24,2.75-2.75,2.75Zm0-4.51c-.97,0-1.75,.79-1.75,1.75s.79,1.75,1.75,1.75,1.75-.79,1.75-1.75-.79-1.75-1.75-1.75Z"/>
  </g>
  <g>
    <circle class="cls-4" cx="8.07" cy="35.93" r="2.25"/>
    <path class="cls-3" d="M8.07,38.69c-1.52,0-2.75-1.24-2.75-2.75s1.24-2.75,2.75-2.75,2.75,1.24,2.75,2.75-1.24,2.75-2.75,2.75Zm0-4.51c-.97,0-1.75,.79-1.75,1.75s.79,1.75,1.75,1.75,1.75-.79,1.75-1.75-.79-1.75-1.75-1.75Z"/>
  </g>
  <g>
    <circle class="cls-4" cx="8.07" cy="27.9" r="2.25"/>
    <path class="cls-3" d="M8.07,30.65c-1.52,0-2.75-1.24-2.75-2.75s1.24-2.75,2.75-2.75,2.75,1.24,2.75,2.75-1.24,2.75-2.75,2.75Zm0-4.51c-.97,0-1.75,.79-1.75,1.75s.79,1.75,1.75,1.75,1.75-.79,1.75-1.75-.79-1.75-1.75-1.75Z"/>
  </g>
  <g>
    <circle class="cls-4" cx="8.07" cy="19.86" r="2.25"/>
    <path class="cls-3" d="M8.07,22.62c-1.52,0-2.75-1.24-2.75-2.75s1.24-2.75,2.75-2.75,2.75,1.24,2.75,2.75-1.24,2.75-2.75,2.75Zm0-4.51c-.97,0-1.75,.79-1.75,1.75s.79,1.75,1.75,1.75,1.75-.79,1.75-1.75-.79-1.75-1.75-1.75Z"/>
  </g>
  <g>
    <circle class="cls-4" cx="8.07" cy="4.34" r="2.25"/>
    <path class="cls-3" d="M8.07,7.1c-1.52,0-2.75-1.24-2.75-2.75s1.24-2.75,2.75-2.75,2.75,1.24,2.75,2.75-1.24,2.75-2.75,2.75Zm0-4.51c-.97,0-1.75,.79-1.75,1.75s.79,1.75,1.75,1.75,1.75-.79,1.75-1.75-.79-1.75-1.75-1.75Z"/>
  </g>
  <g>
    <rect class="cls-5" x="8.79" y="14.41" width="30.84" height="1.87"/>
    <path class="cls-3" d="M40.13,16.78H8.29v-2.87h31.84v2.87Zm-30.84-1h29.84v-.87H9.29v.87Z"/>
  </g>
  <g>
    <rect class="cls-5" x=".5" y="8.45" width="30.72" height="1.87"/>
    <path class="cls-3" d="M31.72,10.82H0v-2.87H31.72v2.87ZM1,9.82H30.72v-.87H1v.87Z"/>
  </g>
  <g>
    <polygon class="cls-2" points="31.22 10.32 .5 10.32 .5 12.19 8.79 12.19 8.79 14.41 39.63 14.41 39.63 12.28 31.22 12.28 31.22 10.32"/>
    <path class="cls-3" d="M40.13,14.91H8.29v-2.22H0v-2.87H31.72v1.95h8.41v3.13Zm-30.84-1h29.84v-1.13h-8.41v-1.95H1v.87H9.29v2.22Z"/>
  </g>
  <rect class="cls-1" x="3.52" y="39.47" width=".81" height=".99"/>
  <g>
    <rect class="cls-5" x="8.79" y="54.95" width="30.84" height="1.87"/>
    <path class="cls-3" d="M40.13,57.32H8.29v-2.87h31.84v2.87Zm-30.84-1h29.84v-.87H9.29v.87Z"/>
  </g>
  <g>
    <rect class="cls-5" x=".5" y="48.99" width="30.72" height="1.87"/>
    <path class="cls-3" d="M31.72,51.37H0v-2.87H31.72v2.87Zm-30.72-1H30.72v-.87H1v.87Z"/>
  </g>
  <g>
    <polygon class="cls-2" points="31.22 50.87 .5 50.87 .5 52.74 8.79 52.74 8.79 54.95 39.63 54.95 39.63 52.82 31.22 52.82 31.22 50.87"/>
    <path class="cls-3" d="M40.13,55.45H8.29v-2.22H0v-2.87H31.72v1.95h8.41v3.13Zm-30.84-1h29.84v-1.13h-8.41v-1.95H1v.87H9.29v2.22Z"/>
  </g>
  <rect class="cls-1" x="35.99" y="23.66" width=".81" height=".99"/>
</svg>