<?xml version="1.0" encoding="UTF-8"?>
<svg id="Livello_1" data-name="Livello 1" xmlns="http://www.w3.org/2000/svg" viewBox="0 0 265.07 112.02">
  <defs>
    <style>
      .cls-1 {
        fill: #fff;
      }

      .cls-2 {
        fill: #ffd400;
      }

      .cls-3 {
        fill: #dcdadb;
      }

      .cls-4 {
        fill: #d7d5d6;
      }

      .cls-5 {
        fill: #3f4541;
      }

      .cls-6 {
        fill: #707472;
      }

      .cls-7 {
        fill: #6d5d03;
      }

      .cls-8 {
        fill: #606663;
      }
    </style>
  </defs>
  <g>
    <polygon class="cls-6" points="204.53 47.82 188.33 70.86 188.33 .5 204.53 .5 204.53 47.82"/>
    <path class="cls-5" d="M187.83,72.44V0h17.2V47.98l-17.2,24.46Zm1-71.44V69.28l15.2-21.62V1h-15.2Z"/>
  </g>
  <g>
    <path class="cls-6" d="M161.54,110.09l5.51-8.04-3.4-2.33,2.45-3.57,3.4,2.33,3.63-5.3-.86-.59,1.38-2.01c-.15,.65,.1,1.35,.68,1.75,.76,.52,1.8,.33,2.32-.43s.33-1.8-.43-2.32c-.58-.4-1.32-.38-1.87,0l1.35-1.97,.86,.59,6.68-9.74c-.37,.05-.75-.02-1.08-.25-.69-.48-.87-1.42-.4-2.12s1.42-.87,2.12-.4c.33,.23,.54,.56,.62,.92l16.32-23.32-10.4,.05-35.69,52.07,6.83,4.68Z"/>
    <path class="cls-5" d="M161.67,110.78l-7.65-5.25,36.12-52.7,11.63-.05-17.5,25.01h.01s-7.6,11.09-7.6,11.09l-.86-.59-.34,.49c.36,.03,.71,.16,1.02,.37,.98,.68,1.24,2.03,.56,3.01-.68,.99-2.03,1.24-3.01,.56-.31-.21-.55-.49-.71-.81l-.37,.54,.86,.59-4.2,6.12-3.4-2.33-1.88,2.75,3.4,2.33-6.08,8.87Zm-6.26-5.5l6,4.11,4.94-7.21-3.4-2.33,3.01-4.4,3.4,2.33,3.06-4.47-.86-.59,3.98-5.81,.86,.59,5.92-8.64c-.17-.06-.33-.14-.48-.24-.92-.63-1.16-1.89-.53-2.81,.63-.92,1.89-1.16,2.81-.53,.15,.1,.29,.23,.4,.37l15.29-21.85-9.17,.04-35.26,51.45Zm18.84-15.03l-.1,.45c-.11,.47,.08,.95,.47,1.22,.53,.36,1.26,.23,1.62-.3,.36-.53,.23-1.26-.3-1.62-.4-.27-.91-.27-1.31,0l-.38,.26Zm8.76-14.32c-.33,0-.65,.16-.85,.45-.32,.47-.2,1.1,.27,1.42,.21,.14,.47,.2,.73,.16l1.09-.16-.24-1.08c-.06-.26-.21-.48-.42-.62-.18-.12-.38-.18-.58-.18Z"/>
  </g>
  <g>
    <circle class="cls-6" cx="191.75" cy="59.27" r="2.25"/>
    <path class="cls-5" d="M191.75,62.02c-.54,0-1.08-.16-1.55-.48-.61-.42-1.02-1.04-1.15-1.77s.02-1.46,.44-2.06c.86-1.25,2.58-1.57,3.83-.72,1.25,.86,1.57,2.58,.72,3.83h0c-.53,.78-1.4,1.2-2.28,1.2Zm0-4.51c-.56,0-1.11,.27-1.45,.76-.27,.39-.36,.85-.28,1.31,.09,.46,.35,.86,.73,1.13,.8,.55,1.89,.34,2.44-.46,.55-.8,.34-1.89-.46-2.44-.3-.21-.65-.31-.99-.31Z"/>
  </g>
  <g>
    <circle class="cls-6" cx="182.81" cy="72.32" r="2.25"/>
    <path class="cls-5" d="M182.8,75.07c-.54,0-1.08-.16-1.55-.48-1.25-.86-1.57-2.58-.71-3.83,.42-.61,1.04-1.02,1.77-1.15,.72-.14,1.46,.02,2.06,.44,1.25,.86,1.57,2.58,.72,3.83h0c-.53,.78-1.4,1.2-2.28,1.2Zm0-4.51c-.11,0-.22,.01-.33,.03-.46,.09-.86,.35-1.13,.73-.55,.8-.34,1.89,.46,2.44,.8,.55,1.89,.34,2.44-.46h0c.55-.8,.34-1.89-.46-2.44-.3-.2-.64-.31-.99-.31Z"/>
  </g>
  <g>
    <circle class="cls-6" cx="178.27" cy="78.95" r="2.25"/>
    <path class="cls-5" d="M178.26,81.7c-.55,0-1.09-.17-1.55-.48-.61-.42-1.02-1.04-1.15-1.77-.14-.72,.02-1.46,.44-2.06,.86-1.25,2.58-1.57,3.83-.72,1.25,.86,1.57,2.58,.71,3.83h0c-.42,.61-1.04,1.02-1.77,1.15-.17,.03-.34,.05-.51,.05Zm0-4.51c-.56,0-1.11,.27-1.45,.76-.27,.39-.36,.85-.28,1.31s.35,.86,.73,1.12c.39,.27,.86,.36,1.31,.28,.46-.09,.86-.35,1.12-.73h0c.55-.8,.34-1.89-.46-2.44-.3-.21-.65-.31-.99-.31Z"/>
  </g>
  <g>
    <circle class="cls-6" cx="173.72" cy="85.57" r="2.25"/>
    <path class="cls-5" d="M173.72,88.33c-.54,0-1.08-.16-1.55-.48-1.25-.86-1.57-2.58-.71-3.83,.42-.61,1.04-1.02,1.77-1.15,.72-.13,1.46,.02,2.06,.44,1.25,.86,1.57,2.58,.72,3.83h0c-.53,.78-1.4,1.2-2.28,1.2Zm0-4.51c-.11,0-.22,.01-.33,.03-.46,.09-.86,.35-1.13,.73-.55,.8-.34,1.89,.46,2.44,.8,.55,1.89,.34,2.44-.46h0c.55-.8,.34-1.89-.46-2.44-.3-.2-.64-.31-.99-.31Z"/>
  </g>
  <g>
    <circle class="cls-6" cx="169.18" cy="92.2" r="2.25"/>
    <path class="cls-5" d="M169.18,94.96c-.55,0-1.09-.17-1.55-.48-1.25-.86-1.57-2.58-.72-3.83,.86-1.25,2.58-1.57,3.83-.72,1.25,.86,1.57,2.58,.71,3.83h0c-.42,.61-1.04,1.02-1.77,1.15-.17,.03-.34,.05-.51,.05Zm0-4.51c-.56,0-1.11,.27-1.45,.76-.55,.8-.34,1.89,.46,2.44,.39,.27,.85,.36,1.31,.28,.46-.09,.86-.35,1.13-.73,.55-.8,.34-1.89-.46-2.44-.3-.21-.65-.31-.99-.31Z"/>
  </g>
  <g>
    <circle class="cls-6" cx="160.41" cy="104.66" r="2.25"/>
    <path class="cls-5" d="M160.4,107.41c-.55,0-1.09-.17-1.55-.48-1.25-.86-1.57-2.58-.72-3.83,.86-1.25,2.58-1.57,3.83-.71,.61,.42,1.02,1.04,1.15,1.77s-.02,1.46-.44,2.06-1.04,1.02-1.77,1.15c-.17,.03-.34,.05-.51,.05Zm0-4.51c-.56,0-1.11,.27-1.45,.76-.55,.8-.34,1.89,.46,2.44,.39,.27,.85,.36,1.31,.28,.46-.09,.86-.35,1.12-.73,.27-.39,.36-.85,.28-1.31-.09-.46-.35-.86-.73-1.12-.3-.21-.65-.31-.99-.31Z"/>
  </g>
  <rect class="cls-1" x="183.57" y="77.16" width=".81" height=".99" transform="translate(76.12 -90.4) rotate(34.42)"/>
  <g>
    <path class="cls-6" d="M260.1,63.63v-9.75h-4.12s0-4.33,0-4.33h4.12v-6.42h-1.04s0-2.44,0-2.44c.24,.62,.84,1.06,1.55,1.06,.92,0,1.67-.75,1.67-1.67s-.75-1.67-1.67-1.67c-.7,0-1.3,.44-1.55,1.06v-2.38s1.04,0,1.04,0v-11.81c-.27,.25-.63,.41-1.03,.41-.84,0-1.52-.68-1.52-1.52s.68-1.52,1.52-1.52c.4,0,.76,.16,1.03,.41V.5h-8.28V63.63h8.28Z"/>
    <path class="cls-5" d="M260.6,64.13h-9.28V0h9.28V37.59h-1.04v.6c.31-.17,.67-.27,1.05-.27,1.19,0,2.17,.97,2.17,2.17s-.97,2.17-2.17,2.17c-.38,0-.73-.1-1.05-.27v.65h1.04v7.42h-4.12v3.33h4.12v10.75Zm-8.28-1h7.28v-8.75h-4.12v-5.33h4.12v-5.42h-1.04v-7.04h1.04v-10.47c-.17,.05-.35,.07-.53,.07-1.12,0-2.02-.91-2.02-2.02s.91-2.02,2.02-2.02c.18,0,.36,.02,.53,.07V1h-7.28V63.13Zm7.04-23.05l.17,.43c.18,.45,.6,.74,1.08,.74,.64,0,1.17-.52,1.17-1.17s-.52-1.17-1.17-1.17c-.48,0-.9,.29-1.08,.74l-.17,.43Zm-.29-16.94c-.56,0-1.02,.46-1.02,1.02s.46,1.02,1.02,1.02c.25,0,.5-.1,.69-.28l.81-.75-.81-.75c-.19-.18-.44-.28-.69-.28Z"/>
  </g>
  <g>
    <path class="cls-6" d="M4.06,.5V10.25h4.12v4.33H4.06v6.42h1.04v2.44c-.24-.62-.84-1.06-1.55-1.06-.92,0-1.67,.75-1.67,1.67s.75,1.67,1.67,1.67c.7,0,1.3-.44,1.55-1.06v2.38h-1.04v11.81c.27-.25,.63-.41,1.03-.41,.84,0,1.52,.68,1.52,1.52s-.68,1.52-1.52,1.52c-.4,0-.76-.16-1.03-.41v22.55H12.34V.5H4.06Z"/>
    <path class="cls-5" d="M12.84,64.13H3.56V26.54h1.04v-.6c-.31,.17-.67,.27-1.05,.27-1.19,0-2.17-.97-2.17-2.17s.97-2.17,2.17-2.17c.38,0,.73,.1,1.05,.27v-.65h-1.04v-7.42H7.69v-3.33H3.56V0H12.84V64.13Zm-8.28-1h7.28V1H4.56V9.75h4.12v5.33H4.56v5.42h1.04v7.04h-1.04v10.47c.17-.05,.35-.07,.53-.07,1.12,0,2.02,.91,2.02,2.02s-.91,2.02-2.02,2.02c-.18,0-.36-.02-.53-.07v21.21Zm-.97-23.16l.81,.75c.19,.18,.44,.28,.69,.28,.56,0,1.02-.46,1.02-1.02s-.46-1.02-1.02-1.02c-.25,0-.5,.1-.69,.28l-.81,.75Zm-.04-17.08c-.64,0-1.17,.52-1.17,1.17s.52,1.17,1.17,1.17c.48,0,.9-.29,1.08-.74l.17-.43-.17-.43c-.18-.45-.6-.74-1.08-.74Z"/>
  </g>
  <rect class="cls-8" x="41.74" y="22.89" width="18.96" height="29.95"/>
  <g>
    <rect class="cls-6" x="220.44" y=".5" width="16.2" height="63.13"/>
    <path class="cls-5" d="M237.14,64.13h-17.2V0h17.2V64.13Zm-16.2-1h15.2V1h-15.2V63.13Z"/>
  </g>
  <g>
    <rect class="cls-6" x="156.22" y=".5" width="16.2" height="51.59"/>
    <path class="cls-5" d="M172.92,52.59h-17.2V0h17.2V52.59Zm-16.2-1h15.2V1h-15.2V51.59Z"/>
  </g>
  <g>
    <rect class="cls-8" x="20.38" y=".5" width="23.65" height="111.02"/>
    <path class="cls-5" d="M44.53,112.02H19.88V0h24.65V112.02Zm-23.65-1h22.65V1H20.88V111.02Z"/>
  </g>
  <g>
    <polygon class="cls-6" points="124.11 .5 124.11 44.47 107.83 82.86 122.73 89.21 139.7 49.18 140.31 47.76 140.31 40.5 140.31 .5 124.11 .5"/>
    <path class="cls-5" d="M123,89.86l-15.82-6.74,16.43-38.75V0h17.2l-.04,47.96-17.77,41.91Zm-14.51-7.27l13.98,5.96,17.34-40.89V1h-15.2V44.57l-.04,.09-16.08,37.93Z"/>
  </g>
  <g>
    <polygon class="cls-6" points="108.2 .5 92 .5 92 36.81 80.55 73.97 96.01 78.81 108.2 39.25 108.2 .5"/>
    <path class="cls-5" d="M96.34,79.44l-16.41-5.14,11.57-37.55V0h17.2l-.02,39.4-12.34,40.04Zm-15.16-5.8l14.5,4.55,12.02-39.01V1h-15.2l-.02,35.96-11.3,36.68Z"/>
  </g>
  <g>
    <polygon class="cls-6" points="59.88 .5 59.88 31.39 53.03 68.27 68.94 71.3 75.86 34.08 76.08 32.88 76.08 30.52 76.08 .5 59.88 .5"/>
    <path class="cls-5" d="M69.34,71.89l-16.9-3.22,6.94-37.36V0s17.19,0,17.19,0V32.88l-.23,1.29-7.01,37.72Zm-15.73-4.02l14.93,2.85,7.05-37.92v-2.27s0-29.52,0-29.52h-15.2V31.39l-6.77,36.48Z"/>
  </g>
  <g>
    <g>
      <circle class="cls-6" cx="224.72" cy="4.34" r="2.25"/>
      <path class="cls-5" d="M224.72,7.1c-1.52,0-2.75-1.24-2.75-2.75s1.24-2.75,2.75-2.75,2.75,1.24,2.75,2.75-1.24,2.75-2.75,2.75Zm0-4.51c-.97,0-1.75,.79-1.75,1.75s.79,1.75,1.75,1.75,1.75-.79,1.75-1.75-.79-1.75-1.75-1.75Z"/>
    </g>
    <g>
      <circle class="cls-6" cx="232.36" cy="4.34" r="2.25"/>
      <path class="cls-5" d="M232.36,7.1c-1.52,0-2.75-1.24-2.75-2.75s1.24-2.75,2.75-2.75,2.75,1.24,2.75,2.75-1.24,2.75-2.75,2.75Zm0-4.51c-.97,0-1.75,.79-1.75,1.75s.79,1.75,1.75,1.75,1.75-.79,1.75-1.75-.79-1.75-1.75-1.75Z"/>
    </g>
  </g>
  <g>
    <g>
      <circle class="cls-6" cx="224.72" cy="20.16" r="2.25"/>
      <path class="cls-5" d="M224.72,22.92c-1.52,0-2.75-1.24-2.75-2.75s1.24-2.75,2.75-2.75,2.75,1.24,2.75,2.75-1.24,2.75-2.75,2.75Zm0-4.51c-.97,0-1.75,.79-1.75,1.75s.79,1.75,1.75,1.75,1.75-.79,1.75-1.75-.79-1.75-1.75-1.75Z"/>
    </g>
    <g>
      <circle class="cls-6" cx="232.36" cy="20.16" r="2.25"/>
      <path class="cls-5" d="M232.36,22.92c-1.52,0-2.75-1.24-2.75-2.75s1.24-2.75,2.75-2.75,2.75,1.24,2.75,2.75-1.24,2.75-2.75,2.75Zm0-4.51c-.97,0-1.75,.79-1.75,1.75s.79,1.75,1.75,1.75,1.75-.79,1.75-1.75-.79-1.75-1.75-1.75Z"/>
    </g>
  </g>
  <g>
    <g>
      <circle class="cls-6" cx="224.72" cy="28.2" r="2.25"/>
      <path class="cls-5" d="M224.72,30.95c-1.52,0-2.75-1.24-2.75-2.75s1.24-2.75,2.75-2.75,2.75,1.24,2.75,2.75-1.24,2.75-2.75,2.75Zm0-4.51c-.97,0-1.75,.79-1.75,1.75s.79,1.75,1.75,1.75,1.75-.79,1.75-1.75-.79-1.75-1.75-1.75Z"/>
    </g>
    <g>
      <circle class="cls-6" cx="232.36" cy="28.2" r="2.25"/>
      <path class="cls-5" d="M232.36,30.95c-1.52,0-2.75-1.24-2.75-2.75s1.24-2.75,2.75-2.75,2.75,1.24,2.75,2.75-1.24,2.75-2.75,2.75Zm0-4.51c-.97,0-1.75,.79-1.75,1.75s.79,1.75,1.75,1.75,1.75-.79,1.75-1.75-.79-1.75-1.75-1.75Z"/>
    </g>
  </g>
  <g>
    <g>
      <circle class="cls-6" cx="224.72" cy="36.23" r="2.25"/>
      <path class="cls-5" d="M224.72,38.99c-1.52,0-2.75-1.24-2.75-2.75s1.24-2.75,2.75-2.75,2.75,1.24,2.75,2.75-1.24,2.75-2.75,2.75Zm0-4.51c-.97,0-1.75,.79-1.75,1.75s.79,1.75,1.75,1.75,1.75-.79,1.75-1.75-.79-1.75-1.75-1.75Z"/>
    </g>
    <g>
      <circle class="cls-6" cx="232.36" cy="36.23" r="2.25"/>
      <path class="cls-5" d="M232.36,38.99c-1.52,0-2.75-1.24-2.75-2.75s1.24-2.75,2.75-2.75,2.75,1.24,2.75,2.75-1.24,2.75-2.75,2.75Zm0-4.51c-.97,0-1.75,.79-1.75,1.75s.79,1.75,1.75,1.75,1.75-.79,1.75-1.75-.79-1.75-1.75-1.75Z"/>
    </g>
  </g>
  <g>
    <g>
      <circle class="cls-6" cx="224.72" cy="44.27" r="2.25"/>
      <path class="cls-5" d="M224.72,47.02c-1.52,0-2.75-1.24-2.75-2.75s1.24-2.75,2.75-2.75,2.75,1.24,2.75,2.75-1.24,2.75-2.75,2.75Zm0-4.51c-.97,0-1.75,.79-1.75,1.75s.79,1.75,1.75,1.75,1.75-.79,1.75-1.75-.79-1.75-1.75-1.75Z"/>
    </g>
    <g>
      <circle class="cls-6" cx="232.36" cy="44.27" r="2.25"/>
      <path class="cls-5" d="M232.36,47.02c-1.52,0-2.75-1.24-2.75-2.75s1.24-2.75,2.75-2.75,2.75,1.24,2.75,2.75-1.24,2.75-2.75,2.75Zm0-4.51c-.97,0-1.75,.79-1.75,1.75s.79,1.75,1.75,1.75,1.75-.79,1.75-1.75-.79-1.75-1.75-1.75Z"/>
    </g>
  </g>
  <g>
    <g>
      <circle class="cls-6" cx="224.72" cy="59.79" r="2.25"/>
      <path class="cls-5" d="M224.72,62.54c-1.52,0-2.75-1.24-2.75-2.75s1.24-2.75,2.75-2.75,2.75,1.24,2.75,2.75-1.24,2.75-2.75,2.75Zm0-4.51c-.97,0-1.75,.79-1.75,1.75s.79,1.75,1.75,1.75,1.75-.79,1.75-1.75-.79-1.75-1.75-1.75Z"/>
    </g>
    <g>
      <circle class="cls-6" cx="232.36" cy="59.79" r="2.25"/>
      <path class="cls-5" d="M232.36,62.54c-1.52,0-2.75-1.24-2.75-2.75s1.24-2.75,2.75-2.75,2.75,1.24,2.75,2.75-1.24,2.75-2.75,2.75Zm0-4.51c-.97,0-1.75,.79-1.75,1.75s.79,1.75,1.75,1.75,1.75-.79,1.75-1.75-.79-1.75-1.75-1.75Z"/>
    </g>
  </g>
  <g>
    <g>
      <circle class="cls-6" cx="192.6" cy="4.34" r="2.25"/>
      <path class="cls-5" d="M192.6,7.1c-1.52,0-2.75-1.24-2.75-2.75s1.24-2.75,2.75-2.75,2.75,1.24,2.75,2.75-1.24,2.75-2.75,2.75Zm0-4.51c-.97,0-1.75,.79-1.75,1.75s.79,1.75,1.75,1.75,1.75-.79,1.75-1.75-.79-1.75-1.75-1.75Z"/>
    </g>
    <g>
      <circle class="cls-6" cx="200.25" cy="4.34" r="2.25"/>
      <path class="cls-5" d="M200.25,7.1c-1.52,0-2.75-1.24-2.75-2.75s1.24-2.75,2.75-2.75,2.75,1.24,2.75,2.75-1.24,2.75-2.75,2.75Zm0-4.51c-.97,0-1.75,.79-1.75,1.75s.79,1.75,1.75,1.75,1.75-.79,1.75-1.75-.79-1.75-1.75-1.75Z"/>
    </g>
  </g>
  <g>
    <g>
      <circle class="cls-6" cx="192.6" cy="20.16" r="2.25"/>
      <path class="cls-5" d="M192.6,22.92c-1.52,0-2.75-1.24-2.75-2.75s1.24-2.75,2.75-2.75,2.75,1.24,2.75,2.75-1.24,2.75-2.75,2.75Zm0-4.51c-.97,0-1.75,.79-1.75,1.75s.79,1.75,1.75,1.75,1.75-.79,1.75-1.75-.79-1.75-1.75-1.75Z"/>
    </g>
    <g>
      <circle class="cls-6" cx="200.25" cy="20.16" r="2.25"/>
      <path class="cls-5" d="M200.25,22.92c-1.52,0-2.75-1.24-2.75-2.75s1.24-2.75,2.75-2.75,2.75,1.24,2.75,2.75-1.24,2.75-2.75,2.75Zm0-4.51c-.97,0-1.75,.79-1.75,1.75s.79,1.75,1.75,1.75,1.75-.79,1.75-1.75-.79-1.75-1.75-1.75Z"/>
    </g>
  </g>
  <g>
    <g>
      <circle class="cls-6" cx="192.6" cy="28.2" r="2.25"/>
      <path class="cls-5" d="M192.6,30.95c-1.52,0-2.75-1.24-2.75-2.75s1.24-2.75,2.75-2.75,2.75,1.24,2.75,2.75-1.24,2.75-2.75,2.75Zm0-4.51c-.97,0-1.75,.79-1.75,1.75s.79,1.75,1.75,1.75,1.75-.79,1.75-1.75-.79-1.75-1.75-1.75Z"/>
    </g>
    <g>
      <circle class="cls-6" cx="200.25" cy="28.2" r="2.25"/>
      <path class="cls-5" d="M200.25,30.95c-1.52,0-2.75-1.24-2.75-2.75s1.24-2.75,2.75-2.75,2.75,1.24,2.75,2.75-1.24,2.75-2.75,2.75Zm0-4.51c-.97,0-1.75,.79-1.75,1.75s.79,1.75,1.75,1.75,1.75-.79,1.75-1.75-.79-1.75-1.75-1.75Z"/>
    </g>
  </g>
  <g>
    <g>
      <circle class="cls-6" cx="192.6" cy="36.23" r="2.25"/>
      <path class="cls-5" d="M192.6,38.99c-1.52,0-2.75-1.24-2.75-2.75s1.24-2.75,2.75-2.75,2.75,1.24,2.75,2.75-1.24,2.75-2.75,2.75Zm0-4.51c-.97,0-1.75,.79-1.75,1.75s.79,1.75,1.75,1.75,1.75-.79,1.75-1.75-.79-1.75-1.75-1.75Z"/>
    </g>
    <g>
      <circle class="cls-6" cx="200.25" cy="36.23" r="2.25"/>
      <path class="cls-5" d="M200.25,38.99c-1.52,0-2.75-1.24-2.75-2.75s1.24-2.75,2.75-2.75,2.75,1.24,2.75,2.75-1.24,2.75-2.75,2.75Zm0-4.51c-.97,0-1.75,.79-1.75,1.75s.79,1.75,1.75,1.75,1.75-.79,1.75-1.75-.79-1.75-1.75-1.75Z"/>
    </g>
  </g>
  <g>
    <g>
      <circle class="cls-6" cx="192.6" cy="44.27" r="2.25"/>
      <path class="cls-5" d="M192.6,47.02c-1.52,0-2.75-1.24-2.75-2.75s1.24-2.75,2.75-2.75,2.75,1.24,2.75,2.75-1.24,2.75-2.75,2.75Zm0-4.51c-.97,0-1.75,.79-1.75,1.75s.79,1.75,1.75,1.75,1.75-.79,1.75-1.75-.79-1.75-1.75-1.75Z"/>
    </g>
    <g>
      <circle class="cls-6" cx="200.25" cy="44.27" r="2.25"/>
      <path class="cls-5" d="M200.25,47.02c-1.52,0-2.75-1.24-2.75-2.75s1.24-2.75,2.75-2.75,2.75,1.24,2.75,2.75-1.24,2.75-2.75,2.75Zm0-4.51c-.97,0-1.75,.79-1.75,1.75s.79,1.75,1.75,1.75,1.75-.79,1.75-1.75-.79-1.75-1.75-1.75Z"/>
    </g>
  </g>
  <g>
    <g>
      <circle class="cls-6" cx="160.49" cy="4.34" r="2.25"/>
      <path class="cls-5" d="M160.49,7.1c-1.52,0-2.75-1.24-2.75-2.75s1.24-2.75,2.75-2.75,2.75,1.24,2.75,2.75-1.24,2.75-2.75,2.75Zm0-4.51c-.97,0-1.75,.79-1.75,1.75s.79,1.75,1.75,1.75,1.75-.79,1.75-1.75-.79-1.75-1.75-1.75Z"/>
    </g>
    <g>
      <circle class="cls-6" cx="168.14" cy="4.34" r="2.25"/>
      <path class="cls-5" d="M168.14,7.1c-1.52,0-2.75-1.24-2.75-2.75s1.24-2.75,2.75-2.75,2.75,1.24,2.75,2.75-1.24,2.75-2.75,2.75Zm0-4.51c-.97,0-1.75,.79-1.75,1.75s.79,1.75,1.75,1.75,1.75-.79,1.75-1.75-.79-1.75-1.75-1.75Z"/>
    </g>
  </g>
  <g>
    <g>
      <circle class="cls-6" cx="160.49" cy="20.16" r="2.25"/>
      <path class="cls-5" d="M160.49,22.92c-1.52,0-2.75-1.24-2.75-2.75s1.24-2.75,2.75-2.75,2.75,1.24,2.75,2.75-1.24,2.75-2.75,2.75Zm0-4.51c-.97,0-1.75,.79-1.75,1.75s.79,1.75,1.75,1.75,1.75-.79,1.75-1.75-.79-1.75-1.75-1.75Z"/>
    </g>
    <g>
      <circle class="cls-6" cx="168.14" cy="20.16" r="2.25"/>
      <path class="cls-5" d="M168.14,22.92c-1.52,0-2.75-1.24-2.75-2.75s1.24-2.75,2.75-2.75,2.75,1.24,2.75,2.75-1.24,2.75-2.75,2.75Zm0-4.51c-.97,0-1.75,.79-1.75,1.75s.79,1.75,1.75,1.75,1.75-.79,1.75-1.75-.79-1.75-1.75-1.75Z"/>
    </g>
  </g>
  <g>
    <g>
      <circle class="cls-6" cx="160.49" cy="28.2" r="2.25"/>
      <path class="cls-5" d="M160.49,30.95c-1.52,0-2.75-1.24-2.75-2.75s1.24-2.75,2.75-2.75,2.75,1.24,2.75,2.75-1.24,2.75-2.75,2.75Zm0-4.51c-.97,0-1.75,.79-1.75,1.75s.79,1.75,1.75,1.75,1.75-.79,1.75-1.75-.79-1.75-1.75-1.75Z"/>
    </g>
    <g>
      <circle class="cls-6" cx="168.14" cy="28.2" r="2.25"/>
      <path class="cls-5" d="M168.14,30.95c-1.52,0-2.75-1.24-2.75-2.75s1.24-2.75,2.75-2.75,2.75,1.24,2.75,2.75-1.24,2.75-2.75,2.75Zm0-4.51c-.97,0-1.75,.79-1.75,1.75s.79,1.75,1.75,1.75,1.75-.79,1.75-1.75-.79-1.75-1.75-1.75Z"/>
    </g>
  </g>
  <g>
    <g>
      <circle class="cls-6" cx="160.49" cy="36.23" r="2.25"/>
      <path class="cls-5" d="M160.49,38.99c-1.52,0-2.75-1.24-2.75-2.75s1.24-2.75,2.75-2.75,2.75,1.24,2.75,2.75-1.24,2.75-2.75,2.75Zm0-4.51c-.97,0-1.75,.79-1.75,1.75s.79,1.75,1.75,1.75,1.75-.79,1.75-1.75-.79-1.75-1.75-1.75Z"/>
    </g>
    <g>
      <circle class="cls-6" cx="168.14" cy="36.23" r="2.25"/>
      <path class="cls-5" d="M168.14,38.99c-1.52,0-2.75-1.24-2.75-2.75s1.24-2.75,2.75-2.75,2.75,1.24,2.75,2.75-1.24,2.75-2.75,2.75Zm0-4.51c-.97,0-1.75,.79-1.75,1.75s.79,1.75,1.75,1.75,1.75-.79,1.75-1.75-.79-1.75-1.75-1.75Z"/>
    </g>
  </g>
  <g>
    <g>
      <circle class="cls-6" cx="160.49" cy="44.27" r="2.25"/>
      <path class="cls-5" d="M160.49,47.02c-1.52,0-2.75-1.24-2.75-2.75s1.24-2.75,2.75-2.75,2.75,1.24,2.75,2.75-1.24,2.75-2.75,2.75Zm0-4.51c-.97,0-1.75,.79-1.75,1.75s.79,1.75,1.75,1.75,1.75-.79,1.75-1.75-.79-1.75-1.75-1.75Z"/>
    </g>
    <g>
      <circle class="cls-6" cx="168.14" cy="44.27" r="2.25"/>
      <path class="cls-5" d="M168.14,47.02c-1.52,0-2.75-1.24-2.75-2.75s1.24-2.75,2.75-2.75,2.75,1.24,2.75,2.75-1.24,2.75-2.75,2.75Zm0-4.51c-.97,0-1.75,.79-1.75,1.75s.79,1.75,1.75,1.75,1.75-.79,1.75-1.75-.79-1.75-1.75-1.75Z"/>
    </g>
  </g>
  <g>
    <g>
      <circle class="cls-6" cx="128.38" cy="4.34" r="2.25"/>
      <path class="cls-5" d="M128.38,7.1c-1.52,0-2.75-1.24-2.75-2.75s1.24-2.75,2.75-2.75,2.75,1.24,2.75,2.75-1.24,2.75-2.75,2.75Zm0-4.51c-.97,0-1.75,.79-1.75,1.75s.79,1.75,1.75,1.75,1.75-.79,1.75-1.75-.79-1.75-1.75-1.75Z"/>
    </g>
    <g>
      <circle class="cls-6" cx="136.03" cy="4.34" r="2.25"/>
      <path class="cls-5" d="M136.03,7.1c-1.52,0-2.75-1.24-2.75-2.75s1.24-2.75,2.75-2.75,2.75,1.24,2.75,2.75-1.24,2.75-2.75,2.75Zm0-4.51c-.97,0-1.75,.79-1.75,1.75s.79,1.75,1.75,1.75,1.75-.79,1.75-1.75-.79-1.75-1.75-1.75Z"/>
    </g>
  </g>
  <g>
    <g>
      <circle class="cls-6" cx="128.38" cy="20.16" r="2.25"/>
      <path class="cls-5" d="M128.38,22.92c-1.52,0-2.75-1.24-2.75-2.75s1.24-2.75,2.75-2.75,2.75,1.24,2.75,2.75-1.24,2.75-2.75,2.75Zm0-4.51c-.97,0-1.75,.79-1.75,1.75s.79,1.75,1.75,1.75,1.75-.79,1.75-1.75-.79-1.75-1.75-1.75Z"/>
    </g>
    <g>
      <circle class="cls-6" cx="136.03" cy="20.16" r="2.25"/>
      <path class="cls-5" d="M136.03,22.92c-1.52,0-2.75-1.24-2.75-2.75s1.24-2.75,2.75-2.75,2.75,1.24,2.75,2.75-1.24,2.75-2.75,2.75Zm0-4.51c-.97,0-1.75,.79-1.75,1.75s.79,1.75,1.75,1.75,1.75-.79,1.75-1.75-.79-1.75-1.75-1.75Z"/>
    </g>
  </g>
  <g>
    <g>
      <circle class="cls-6" cx="128.38" cy="28.2" r="2.25"/>
      <path class="cls-5" d="M128.38,30.95c-1.52,0-2.75-1.24-2.75-2.75s1.24-2.75,2.75-2.75,2.75,1.24,2.75,2.75-1.24,2.75-2.75,2.75Zm0-4.51c-.97,0-1.75,.79-1.75,1.75s.79,1.75,1.75,1.75,1.75-.79,1.75-1.75-.79-1.75-1.75-1.75Z"/>
    </g>
    <g>
      <circle class="cls-6" cx="136.03" cy="28.2" r="2.25"/>
      <path class="cls-5" d="M136.03,30.95c-1.52,0-2.75-1.24-2.75-2.75s1.24-2.75,2.75-2.75,2.75,1.24,2.75,2.75-1.24,2.75-2.75,2.75Zm0-4.51c-.97,0-1.75,.79-1.75,1.75s.79,1.75,1.75,1.75,1.75-.79,1.75-1.75-.79-1.75-1.75-1.75Z"/>
    </g>
  </g>
  <g>
    <g>
      <circle class="cls-6" cx="128.38" cy="36.23" r="2.25"/>
      <path class="cls-5" d="M128.38,38.99c-1.52,0-2.75-1.24-2.75-2.75s1.24-2.75,2.75-2.75,2.75,1.24,2.75,2.75-1.24,2.75-2.75,2.75Zm0-4.51c-.97,0-1.75,.79-1.75,1.75s.79,1.75,1.75,1.75,1.75-.79,1.75-1.75-.79-1.75-1.75-1.75Z"/>
    </g>
    <g>
      <circle class="cls-6" cx="136.03" cy="36.23" r="2.25"/>
      <path class="cls-5" d="M136.03,38.99c-1.52,0-2.75-1.24-2.75-2.75s1.24-2.75,2.75-2.75,2.75,1.24,2.75,2.75-1.24,2.75-2.75,2.75Zm0-4.51c-.97,0-1.75,.79-1.75,1.75s.79,1.75,1.75,1.75,1.75-.79,1.75-1.75-.79-1.75-1.75-1.75Z"/>
    </g>
  </g>
  <g>
    <g>
      <circle class="cls-6" cx="96.27" cy="4.34" r="2.25"/>
      <path class="cls-5" d="M96.27,7.1c-1.52,0-2.75-1.24-2.75-2.75s1.24-2.75,2.75-2.75,2.75,1.24,2.75,2.75-1.24,2.75-2.75,2.75Zm0-4.51c-.97,0-1.75,.79-1.75,1.75s.79,1.75,1.75,1.75,1.75-.79,1.75-1.75-.79-1.75-1.75-1.75Z"/>
    </g>
    <g>
      <circle class="cls-6" cx="103.92" cy="4.34" r="2.25"/>
      <path class="cls-5" d="M103.92,7.1c-1.52,0-2.75-1.24-2.75-2.75s1.24-2.75,2.75-2.75,2.75,1.24,2.75,2.75-1.24,2.75-2.75,2.75Zm0-4.51c-.97,0-1.75,.79-1.75,1.75s.79,1.75,1.75,1.75,1.75-.79,1.75-1.75-.79-1.75-1.75-1.75Z"/>
    </g>
  </g>
  <g>
    <g>
      <circle class="cls-6" cx="64.16" cy="4.34" r="2.25"/>
      <path class="cls-5" d="M64.16,7.1c-1.52,0-2.75-1.24-2.75-2.75s1.24-2.75,2.75-2.75,2.75,1.24,2.75,2.75-1.24,2.75-2.75,2.75Zm0-4.51c-.97,0-1.75,.79-1.75,1.75s.79,1.75,1.75,1.75,1.75-.79,1.75-1.75-.79-1.75-1.75-1.75Z"/>
    </g>
    <g>
      <circle class="cls-6" cx="71.81" cy="4.34" r="2.25"/>
      <path class="cls-5" d="M71.81,7.1c-1.52,0-2.75-1.24-2.75-2.75s1.24-2.75,2.75-2.75,2.75,1.24,2.75,2.75-1.24,2.75-2.75,2.75Zm0-4.51c-.97,0-1.75,.79-1.75,1.75s.79,1.75,1.75,1.75,1.75-.79,1.75-1.75-.79-1.75-1.75-1.75Z"/>
    </g>
  </g>
  <g>
    <g>
      <circle class="cls-6" cx="24.57" cy="4.34" r="2.25"/>
      <path class="cls-5" d="M24.57,7.1c-1.52,0-2.75-1.24-2.75-2.75s1.24-2.75,2.75-2.75,2.75,1.24,2.75,2.75-1.24,2.75-2.75,2.75Zm0-4.51c-.97,0-1.75,.79-1.75,1.75s.79,1.75,1.75,1.75,1.75-.79,1.75-1.75-.79-1.75-1.75-1.75Z"/>
    </g>
    <g>
      <circle class="cls-6" cx="40.03" cy="4.34" r="2.25"/>
      <path class="cls-5" d="M40.03,7.1c-1.52,0-2.75-1.24-2.75-2.75s1.24-2.75,2.75-2.75,2.75,1.24,2.75,2.75-1.24,2.75-2.75,2.75Zm0-4.51c-.97,0-1.75,.79-1.75,1.75s.79,1.75,1.75,1.75,1.75-.79,1.75-1.75-.79-1.75-1.75-1.75Z"/>
    </g>
  </g>
  <g>
    <rect class="cls-6" x="20.38" y="54.48" width="23.65" height="57.04"/>
    <path class="cls-5" d="M44.53,112.02H19.88V53.98h24.65v58.04Zm-23.65-1h22.65V54.98H20.88v56.04Z"/>
  </g>
  <g>
    <rect class="cls-6" x="35.81" y="56.19" width=".79" height="55.34"/>
    <rect class="cls-5" x="35.31" y="55.69" width="1.79" height="56.34"/>
  </g>
  <g>
    <rect class="cls-6" x="27.81" y="54.94" width=".79" height="56.58"/>
    <rect class="cls-5" x="27.31" y="54.44" width="1.79" height="57.58"/>
  </g>
  <g>
    <circle class="cls-6" cx="24.34" cy="68.1" r="2.25"/>
    <path class="cls-5" d="M24.34,70.86c-1.52,0-2.75-1.24-2.75-2.75s1.24-2.75,2.75-2.75,2.75,1.24,2.75,2.75-1.24,2.75-2.75,2.75Zm0-4.51c-.97,0-1.75,.79-1.75,1.75s.79,1.75,1.75,1.75,1.75-.79,1.75-1.75-.79-1.75-1.75-1.75Z"/>
  </g>
  <g>
    <circle class="cls-6" cx="32.22" cy="68.1" r="2.25"/>
    <path class="cls-5" d="M32.22,70.86c-1.52,0-2.75-1.24-2.75-2.75s1.24-2.75,2.75-2.75,2.75,1.24,2.75,2.75-1.24,2.75-2.75,2.75Zm0-4.51c-.97,0-1.75,.79-1.75,1.75s.79,1.75,1.75,1.75,1.75-.79,1.75-1.75-.79-1.75-1.75-1.75Z"/>
  </g>
  <g>
    <circle class="cls-6" cx="40.1" cy="68.1" r="2.25"/>
    <path class="cls-5" d="M40.1,70.86c-1.52,0-2.75-1.24-2.75-2.75s1.24-2.75,2.75-2.75,2.75,1.24,2.75,2.75-1.24,2.75-2.75,2.75Zm0-4.51c-.97,0-1.75,.79-1.75,1.75s.79,1.75,1.75,1.75,1.75-.79,1.75-1.75-.79-1.75-1.75-1.75Z"/>
  </g>
  <g>
    <circle class="cls-6" cx="24.34" cy="75.93" r="2.25"/>
    <path class="cls-5" d="M24.34,78.68c-1.52,0-2.75-1.24-2.75-2.75s1.24-2.75,2.75-2.75,2.75,1.24,2.75,2.75-1.24,2.75-2.75,2.75Zm0-4.51c-.97,0-1.75,.79-1.75,1.75s.79,1.75,1.75,1.75,1.75-.79,1.75-1.75-.79-1.75-1.75-1.75Z"/>
  </g>
  <g>
    <circle class="cls-6" cx="32.22" cy="75.93" r="2.25"/>
    <path class="cls-5" d="M32.22,78.68c-1.52,0-2.75-1.24-2.75-2.75s1.24-2.75,2.75-2.75,2.75,1.24,2.75,2.75-1.24,2.75-2.75,2.75Zm0-4.51c-.97,0-1.75,.79-1.75,1.75s.79,1.75,1.75,1.75,1.75-.79,1.75-1.75-.79-1.75-1.75-1.75Z"/>
  </g>
  <g>
    <circle class="cls-6" cx="40.1" cy="75.93" r="2.25"/>
    <path class="cls-5" d="M40.1,78.68c-1.52,0-2.75-1.24-2.75-2.75s1.24-2.75,2.75-2.75,2.75,1.24,2.75,2.75-1.24,2.75-2.75,2.75Zm0-4.51c-.97,0-1.75,.79-1.75,1.75s.79,1.75,1.75,1.75,1.75-.79,1.75-1.75-.79-1.75-1.75-1.75Z"/>
  </g>
  <g>
    <circle class="cls-6" cx="24.34" cy="83.75" r="2.25"/>
    <path class="cls-5" d="M24.34,86.51c-1.52,0-2.75-1.24-2.75-2.75s1.24-2.75,2.75-2.75,2.75,1.24,2.75,2.75-1.24,2.75-2.75,2.75Zm0-4.51c-.97,0-1.75,.79-1.75,1.75s.79,1.75,1.75,1.75,1.75-.79,1.75-1.75-.79-1.75-1.75-1.75Z"/>
  </g>
  <g>
    <circle class="cls-6" cx="32.22" cy="83.75" r="2.25"/>
    <path class="cls-5" d="M32.22,86.51c-1.52,0-2.75-1.24-2.75-2.75s1.24-2.75,2.75-2.75,2.75,1.24,2.75,2.75-1.24,2.75-2.75,2.75Zm0-4.51c-.97,0-1.75,.79-1.75,1.75s.79,1.75,1.75,1.75,1.75-.79,1.75-1.75-.79-1.75-1.75-1.75Z"/>
  </g>
  <g>
    <circle class="cls-6" cx="40.1" cy="83.75" r="2.25"/>
    <path class="cls-5" d="M40.1,86.51c-1.52,0-2.75-1.24-2.75-2.75s1.24-2.75,2.75-2.75,2.75,1.24,2.75,2.75-1.24,2.75-2.75,2.75Zm0-4.51c-.97,0-1.75,.79-1.75,1.75s.79,1.75,1.75,1.75,1.75-.79,1.75-1.75-.79-1.75-1.75-1.75Z"/>
  </g>
  <g>
    <circle class="cls-6" cx="24.34" cy="91.58" r="2.25"/>
    <path class="cls-5" d="M24.34,94.33c-1.52,0-2.75-1.24-2.75-2.75s1.24-2.75,2.75-2.75,2.75,1.24,2.75,2.75-1.24,2.75-2.75,2.75Zm0-4.51c-.97,0-1.75,.79-1.75,1.75s.79,1.75,1.75,1.75,1.75-.79,1.75-1.75-.79-1.75-1.75-1.75Z"/>
  </g>
  <g>
    <circle class="cls-6" cx="32.22" cy="91.58" r="2.25"/>
    <path class="cls-5" d="M32.22,94.33c-1.52,0-2.75-1.24-2.75-2.75s1.24-2.75,2.75-2.75,2.75,1.24,2.75,2.75-1.24,2.75-2.75,2.75Zm0-4.51c-.97,0-1.75,.79-1.75,1.75s.79,1.75,1.75,1.75,1.75-.79,1.75-1.75-.79-1.75-1.75-1.75Z"/>
  </g>
  <g>
    <circle class="cls-6" cx="40.1" cy="91.58" r="2.25"/>
    <path class="cls-5" d="M40.1,94.33c-1.52,0-2.75-1.24-2.75-2.75s1.24-2.75,2.75-2.75,2.75,1.24,2.75,2.75-1.24,2.75-2.75,2.75Zm0-4.51c-.97,0-1.75,.79-1.75,1.75s.79,1.75,1.75,1.75,1.75-.79,1.75-1.75-.79-1.75-1.75-1.75Z"/>
  </g>
  <g>
    <circle class="cls-6" cx="24.34" cy="99.4" r="2.25"/>
    <path class="cls-5" d="M24.34,102.16c-1.52,0-2.75-1.24-2.75-2.75s1.24-2.75,2.75-2.75,2.75,1.24,2.75,2.75-1.24,2.75-2.75,2.75Zm0-4.51c-.97,0-1.75,.79-1.75,1.75s.79,1.75,1.75,1.75,1.75-.79,1.75-1.75-.79-1.75-1.75-1.75Z"/>
  </g>
  <g>
    <circle class="cls-6" cx="24.34" cy="107.23" r="2.25"/>
    <path class="cls-5" d="M24.34,109.98c-1.52,0-2.75-1.24-2.75-2.75s1.24-2.75,2.75-2.75,2.75,1.24,2.75,2.75-1.24,2.75-2.75,2.75Zm0-4.51c-.97,0-1.75,.79-1.75,1.75s.79,1.75,1.75,1.75,1.75-.79,1.75-1.75-.79-1.75-1.75-1.75Z"/>
  </g>
  <g>
    <circle class="cls-6" cx="32.22" cy="107.23" r="2.25"/>
    <path class="cls-5" d="M32.22,109.98c-1.52,0-2.75-1.24-2.75-2.75s1.24-2.75,2.75-2.75,2.75,1.24,2.75,2.75-1.24,2.75-2.75,2.75Zm0-4.51c-.97,0-1.75,.79-1.75,1.75s.79,1.75,1.75,1.75,1.75-.79,1.75-1.75-.79-1.75-1.75-1.75Z"/>
  </g>
  <g>
    <circle class="cls-6" cx="40.1" cy="107.23" r="2.25"/>
    <path class="cls-5" d="M40.1,109.98c-1.52,0-2.75-1.24-2.75-2.75s1.24-2.75,2.75-2.75,2.75,1.24,2.75,2.75-1.24,2.75-2.75,2.75Zm0-4.51c-.97,0-1.75,.79-1.75,1.75s.79,1.75,1.75,1.75,1.75-.79,1.75-1.75-.79-1.75-1.75-1.75Z"/>
  </g>
  <g>
    <circle class="cls-6" cx="256.1" cy="4.34" r="2.25"/>
    <path class="cls-5" d="M256.1,7.1c-1.52,0-2.75-1.24-2.75-2.75s1.24-2.75,2.75-2.75,2.75,1.24,2.75,2.75-1.24,2.75-2.75,2.75Zm0-4.51c-.97,0-1.75,.79-1.75,1.75s.79,1.75,1.75,1.75,1.75-.79,1.75-1.75-.79-1.75-1.75-1.75Z"/>
  </g>
  <g>
    <circle class="cls-6" cx="256.1" cy="20.16" r="2.25"/>
    <path class="cls-5" d="M256.1,22.92c-1.52,0-2.75-1.24-2.75-2.75s1.24-2.75,2.75-2.75,2.75,1.24,2.75,2.75-1.24,2.75-2.75,2.75Zm0-4.51c-.97,0-1.75,.79-1.75,1.75s.79,1.75,1.75,1.75,1.75-.79,1.75-1.75-.79-1.75-1.75-1.75Z"/>
  </g>
  <g>
    <circle class="cls-6" cx="256.1" cy="28.2" r="2.25"/>
    <path class="cls-5" d="M256.1,30.95c-1.52,0-2.75-1.24-2.75-2.75s1.24-2.75,2.75-2.75,2.75,1.24,2.75,2.75-1.24,2.75-2.75,2.75Zm0-4.51c-.97,0-1.75,.79-1.75,1.75s.79,1.75,1.75,1.75,1.75-.79,1.75-1.75-.79-1.75-1.75-1.75Z"/>
  </g>
  <g>
    <circle class="cls-6" cx="256.1" cy="36.23" r="2.25"/>
    <path class="cls-5" d="M256.1,38.99c-1.52,0-2.75-1.24-2.75-2.75s1.24-2.75,2.75-2.75,2.75,1.24,2.75,2.75-1.24,2.75-2.75,2.75Zm0-4.51c-.97,0-1.75,.79-1.75,1.75s.79,1.75,1.75,1.75,1.75-.79,1.75-1.75-.79-1.75-1.75-1.75Z"/>
  </g>
  <g>
    <circle class="cls-6" cx="256.1" cy="44.27" r="2.25"/>
    <path class="cls-5" d="M256.1,47.02c-1.52,0-2.75-1.24-2.75-2.75s1.24-2.75,2.75-2.75,2.75,1.24,2.75,2.75-1.24,2.75-2.75,2.75Zm0-4.51c-.97,0-1.75,.79-1.75,1.75s.79,1.75,1.75,1.75,1.75-.79,1.75-1.75-.79-1.75-1.75-1.75Z"/>
  </g>
  <g>
    <circle class="cls-6" cx="256.1" cy="59.79" r="2.25"/>
    <path class="cls-5" d="M256.1,62.54c-1.52,0-2.75-1.24-2.75-2.75s1.24-2.75,2.75-2.75,2.75,1.24,2.75,2.75-1.24,2.75-2.75,2.75Zm0-4.51c-.97,0-1.75,.79-1.75,1.75s.79,1.75,1.75,1.75,1.75-.79,1.75-1.75-.79-1.75-1.75-1.75Z"/>
  </g>
  <g>
    <circle class="cls-6" cx="8.07" cy="59.79" r="2.25"/>
    <path class="cls-5" d="M8.07,62.54c-1.52,0-2.75-1.24-2.75-2.75s1.24-2.75,2.75-2.75,2.75,1.24,2.75,2.75-1.24,2.75-2.75,2.75Zm0-4.51c-.97,0-1.75,.79-1.75,1.75s.79,1.75,1.75,1.75,1.75-.79,1.75-1.75-.79-1.75-1.75-1.75Z"/>
  </g>
  <g>
    <circle class="cls-6" cx="8.07" cy="43.97" r="2.25"/>
    <path class="cls-5" d="M8.07,46.72c-1.52,0-2.75-1.24-2.75-2.75s1.24-2.75,2.75-2.75,2.75,1.24,2.75,2.75-1.24,2.75-2.75,2.75Zm0-4.51c-.97,0-1.75,.79-1.75,1.75s.79,1.75,1.75,1.75,1.75-.79,1.75-1.75-.79-1.75-1.75-1.75Z"/>
  </g>
  <g>
    <circle class="cls-6" cx="8.07" cy="35.93" r="2.25"/>
    <path class="cls-5" d="M8.07,38.69c-1.52,0-2.75-1.24-2.75-2.75s1.24-2.75,2.75-2.75,2.75,1.24,2.75,2.75-1.24,2.75-2.75,2.75Zm0-4.51c-.97,0-1.75,.79-1.75,1.75s.79,1.75,1.75,1.75,1.75-.79,1.75-1.75-.79-1.75-1.75-1.75Z"/>
  </g>
  <g>
    <circle class="cls-6" cx="8.07" cy="27.9" r="2.25"/>
    <path class="cls-5" d="M8.07,30.65c-1.52,0-2.75-1.24-2.75-2.75s1.24-2.75,2.75-2.75,2.75,1.24,2.75,2.75-1.24,2.75-2.75,2.75Zm0-4.51c-.97,0-1.75,.79-1.75,1.75s.79,1.75,1.75,1.75,1.75-.79,1.75-1.75-.79-1.75-1.75-1.75Z"/>
  </g>
  <g>
    <circle class="cls-6" cx="8.07" cy="19.86" r="2.25"/>
    <path class="cls-5" d="M8.07,22.62c-1.52,0-2.75-1.24-2.75-2.75s1.24-2.75,2.75-2.75,2.75,1.24,2.75,2.75-1.24,2.75-2.75,2.75Zm0-4.51c-.97,0-1.75,.79-1.75,1.75s.79,1.75,1.75,1.75,1.75-.79,1.75-1.75-.79-1.75-1.75-1.75Z"/>
  </g>
  <g>
    <circle class="cls-6" cx="8.07" cy="4.34" r="2.25"/>
    <path class="cls-5" d="M8.07,7.1c-1.52,0-2.75-1.24-2.75-2.75s1.24-2.75,2.75-2.75,2.75,1.24,2.75,2.75-1.24,2.75-2.75,2.75Zm0-4.51c-.97,0-1.75,.79-1.75,1.75s.79,1.75,1.75,1.75,1.75-.79,1.75-1.75-.79-1.75-1.75-1.75Z"/>
  </g>
  <g>
    <rect class="cls-6" x="28.07" y="5.68" width="8.27" height="5.05"/>
    <path class="cls-5" d="M36.84,11.24h-9.27V5.18h9.27v6.05Zm-8.27-1h7.27V6.18h-7.27v4.05Z"/>
  </g>
  <g>
    <path class="cls-6" d="M29.68,16.33v1.84h-4.82v4.14h2.3v6.89l36.6-3.37s2.83-.92,2.68-3.83"/>
    <path class="cls-5" d="M26.65,29.74v-6.94h-2.3v-5.14h4.82v-1.34h1v2.34h-4.82v3.14h2.3v6.84l36-3.31c.35-.13,2.41-.99,2.29-3.31l1-.05c.14,2.6-1.92,3.97-3.03,4.33l-.11,.02-37.15,3.42Z"/>
  </g>
  <g>
    <polyline class="cls-6" points="24.85 22.3 24.85 24.75 22.56 24.75 22.56 29.34 27.3 29.34"/>
    <polygon class="cls-5" points="27.3 29.84 22.06 29.84 22.06 24.25 24.35 24.25 24.35 22.3 25.35 22.3 25.35 25.25 23.06 25.25 23.06 28.84 27.3 28.84 27.3 29.84"/>
  </g>
  <rect class="cls-5" x="29.25" y="29.19" width="1" height="17.31"/>
  <rect class="cls-5" x="34" y="28.58" width="1" height="17.69"/>
  <rect class="cls-5" x="20.41" y="45.92" width="23.66" height="1"/>
  <g>
    <polyline class="cls-6" points="53.8 46.73 64.06 46.65 66.05 49.48"/>
    <polygon class="cls-5" points="65.64 49.77 63.8 47.15 53.8 47.23 53.8 46.23 64.32 46.15 66.46 49.2 65.64 49.77"/>
  </g>
  <g>
    <line class="cls-6" x1="58.39" y1="52.01" x2="66.2" y2="49.79"/>
    <rect class="cls-5" x="58.24" y="50.4" width="8.12" height="1" transform="translate(-11.54 18.97) rotate(-15.87)"/>
  </g>
  <g>
    <polygon class="cls-6" points="148.12 102.63 133.91 94.85 159.17 48.3 173.38 56.08 148.12 102.63"/>
    <path class="cls-5" d="M148.32,103.31l-15.09-8.26,25.74-47.43,15.09,8.26-25.74,47.43Zm-13.73-8.66l13.33,7.3,24.79-45.67-13.33-7.3-24.79,45.67Z"/>
  </g>
  <g>
    <g>
      <circle class="cls-6" cx="158.53" cy="58.77" r="2.25"/>
      <path class="cls-5" d="M158.53,61.53c-.46,0-.91-.11-1.32-.34-1.33-.73-1.82-2.41-1.09-3.74s2.41-1.82,3.74-1.09c.65,.35,1.11,.94,1.32,1.64,.21,.71,.13,1.45-.23,2.1h0c-.35,.65-.94,1.11-1.64,1.32-.26,.07-.52,.11-.78,.11Zm0-4.51c-.62,0-1.22,.33-1.54,.91-.46,.85-.15,1.92,.7,2.38,.85,.46,1.92,.15,2.38-.7h0c.22-.41,.28-.89,.14-1.33-.13-.45-.43-.82-.84-1.05-.27-.15-.55-.21-.84-.21Z"/>
    </g>
    <g>
      <circle class="cls-6" cx="165.24" cy="62.44" r="2.25"/>
      <path class="cls-5" d="M165.23,65.2c-.46,0-.91-.11-1.32-.34-1.33-.73-1.82-2.41-1.09-3.74,.73-1.33,2.41-1.82,3.74-1.09,.65,.35,1.11,.94,1.32,1.64,.21,.71,.13,1.45-.23,2.1h0c-.35,.65-.94,1.11-1.64,1.32-.26,.07-.52,.11-.78,.11Zm0-4.51c-.62,0-1.22,.33-1.54,.91-.46,.85-.15,1.92,.7,2.38,.41,.23,.89,.28,1.33,.15s.82-.43,1.05-.84h0c.23-.41,.28-.89,.15-1.34-.13-.45-.43-.82-.84-1.05-.27-.15-.55-.21-.84-.21Z"/>
    </g>
  </g>
  <g>
    <g>
      <circle class="cls-6" cx="154.67" cy="65.82" r="2.25"/>
      <path class="cls-5" d="M154.67,68.57c-.45,0-.9-.11-1.32-.34-1.33-.73-1.82-2.41-1.09-3.74,.73-1.33,2.41-1.82,3.74-1.09,.65,.35,1.11,.94,1.32,1.64s.13,1.45-.23,2.1c-.5,.91-1.45,1.43-2.42,1.43Zm0-4.51c-.62,0-1.22,.33-1.54,.91-.46,.85-.15,1.92,.7,2.38,.84,.46,1.92,.15,2.38-.7h0c.23-.41,.28-.89,.15-1.33-.13-.45-.43-.82-.84-1.05-.27-.15-.55-.21-.84-.21Z"/>
    </g>
    <g>
      <circle class="cls-6" cx="161.38" cy="69.49" r="2.25"/>
      <path class="cls-5" d="M161.38,72.25c-.45,0-.9-.11-1.32-.34-1.33-.73-1.82-2.41-1.09-3.74,.35-.65,.94-1.12,1.64-1.32,.71-.21,1.45-.13,2.1,.23,.65,.35,1.11,.94,1.32,1.64s.13,1.45-.23,2.1c-.5,.91-1.45,1.43-2.42,1.43Zm0-4.51c-.17,0-.33,.02-.5,.07-.45,.13-.82,.43-1.05,.84-.46,.85-.15,1.92,.7,2.38,.85,.46,1.92,.15,2.38-.7h0c.23-.41,.28-.89,.15-1.33-.13-.45-.43-.82-.84-1.05-.26-.14-.55-.22-.84-.22Z"/>
    </g>
  </g>
  <g>
    <g>
      <circle class="cls-6" cx="150.81" cy="72.87" r="2.25"/>
      <path class="cls-5" d="M150.81,75.62c-.45,0-.9-.11-1.32-.34-1.33-.73-1.82-2.41-1.09-3.74,.35-.65,.94-1.11,1.64-1.32,.71-.21,1.45-.12,2.1,.23,.65,.35,1.11,.94,1.32,1.64s.13,1.45-.23,2.1c-.5,.91-1.45,1.43-2.42,1.43Zm0-4.51c-.17,0-.33,.02-.49,.07-.45,.13-.82,.43-1.05,.84-.46,.85-.15,1.92,.7,2.38,.41,.22,.88,.27,1.33,.14,.45-.13,.82-.43,1.05-.84,.22-.41,.28-.89,.14-1.33-.13-.45-.43-.82-.84-1.05-.26-.14-.55-.22-.84-.22Z"/>
    </g>
    <g>
      <circle class="cls-6" cx="157.52" cy="76.54" r="2.25"/>
      <path class="cls-5" d="M157.52,79.29c-.45,0-.9-.11-1.32-.34-.65-.35-1.12-.94-1.32-1.64s-.13-1.45,.23-2.1c.35-.65,.94-1.11,1.64-1.32,.71-.21,1.45-.12,2.1,.23,1.33,.73,1.82,2.41,1.09,3.74-.5,.91-1.45,1.43-2.42,1.43Zm0-4.51c-.17,0-.33,.02-.5,.07-.45,.13-.82,.43-1.05,.84-.46,.85-.15,1.92,.7,2.38,.85,.46,1.92,.15,2.38-.7,.46-.85,.15-1.92-.7-2.38-.26-.14-.55-.22-.84-.22Z"/>
    </g>
  </g>
  <g>
    <g>
      <circle class="cls-6" cx="146.96" cy="79.92" r="2.25"/>
      <path class="cls-5" d="M146.95,82.67c-.46,0-.91-.11-1.32-.34-.65-.35-1.11-.94-1.32-1.64s-.13-1.45,.23-2.1c.73-1.33,2.41-1.82,3.74-1.09,1.33,.73,1.82,2.41,1.09,3.74-.35,.65-.94,1.11-1.64,1.32-.26,.07-.52,.11-.78,.11Zm0-4.51c-.62,0-1.22,.33-1.54,.91-.46,.85-.15,1.92,.7,2.38,.41,.23,.89,.28,1.33,.14,.45-.13,.82-.43,1.05-.84,.46-.85,.15-1.92-.7-2.38-.27-.15-.55-.21-.84-.21Z"/>
    </g>
    <g>
      <circle class="cls-6" cx="153.67" cy="83.59" r="2.25"/>
      <path class="cls-5" d="M153.66,86.34c-.45,0-.9-.11-1.32-.34-.65-.35-1.11-.94-1.32-1.64s-.13-1.45,.23-2.1c.73-1.33,2.4-1.82,3.74-1.09,1.33,.73,1.82,2.41,1.09,3.74h0c-.5,.91-1.45,1.43-2.42,1.43Zm0-4.51c-.62,0-1.22,.33-1.54,.91-.46,.85-.15,1.92,.7,2.38,.85,.46,1.92,.15,2.38-.7h0c.46-.85,.15-1.92-.7-2.38-.27-.15-.55-.21-.84-.21Z"/>
    </g>
  </g>
  <g>
    <g>
      <circle class="cls-6" cx="139.5" cy="93.53" r="2.25"/>
      <path class="cls-5" d="M139.5,96.29c-.46,0-.91-.11-1.32-.34-.65-.35-1.11-.94-1.32-1.64s-.13-1.45,.23-2.1c.73-1.33,2.41-1.82,3.74-1.09,1.33,.73,1.82,2.41,1.09,3.74h0c-.35,.65-.94,1.11-1.64,1.32-.26,.07-.52,.11-.78,.11Zm0-4.51c-.62,0-1.22,.33-1.54,.91-.23,.41-.28,.89-.15,1.33,.13,.45,.43,.82,.84,1.05,.85,.47,1.92,.15,2.38-.7h0c.46-.85,.15-1.92-.7-2.38-.27-.15-.55-.21-.84-.21Z"/>
    </g>
    <g>
      <circle class="cls-6" cx="146.21" cy="97.2" r="2.25"/>
      <path class="cls-5" d="M146.21,99.96c-.46,0-.91-.11-1.32-.34-1.33-.73-1.82-2.41-1.09-3.74,.73-1.33,2.41-1.82,3.74-1.09,.65,.35,1.11,.94,1.32,1.64,.21,.71,.13,1.45-.23,2.1h0c-.35,.65-.94,1.11-1.64,1.32-.26,.07-.52,.11-.78,.11Zm0-4.51c-.62,0-1.22,.33-1.54,.91-.46,.85-.15,1.92,.7,2.38,.85,.47,1.92,.15,2.38-.7h0c.22-.41,.28-.89,.14-1.33-.13-.45-.43-.82-.84-1.05-.27-.15-.55-.21-.84-.21Z"/>
    </g>
  </g>
  <g>
    <g>
      <circle class="cls-6" cx="122.5" cy="59.33" r="2.25"/>
      <path class="cls-5" d="M122.5,62.09c-.37,0-.73-.07-1.08-.22-1.4-.6-2.05-2.22-1.46-3.61s2.22-2.05,3.61-1.46c1.4,.6,2.05,2.22,1.45,3.61-.29,.68-.82,1.2-1.51,1.48-.33,.13-.68,.2-1.03,.2Zm0-4.51c-.68,0-1.33,.4-1.62,1.07-.38,.89,.04,1.92,.93,2.3,.43,.18,.91,.19,1.34,.01,.43-.18,.78-.51,.96-.94h0c.38-.89-.04-1.92-.93-2.3-.22-.1-.46-.14-.68-.14Z"/>
    </g>
    <g>
      <circle class="cls-6" cx="129.54" cy="62.33" r="2.25"/>
      <path class="cls-5" d="M129.53,65.08c-.36,0-.72-.07-1.08-.22-1.4-.6-2.05-2.22-1.46-3.61,.59-1.4,2.22-2.05,3.61-1.46,1.4,.6,2.05,2.22,1.46,3.61h0c-.45,1.05-1.47,1.68-2.54,1.68Zm0-4.51c-.68,0-1.33,.4-1.62,1.07-.38,.89,.04,1.92,.93,2.3,.89,.38,1.92-.04,2.3-.93h0c.38-.89-.04-1.92-.93-2.3-.22-.1-.46-.14-.68-.14Z"/>
    </g>
  </g>
  <g>
    <g>
      <circle class="cls-6" cx="119.35" cy="66.72" r="2.25"/>
      <path class="cls-5" d="M119.35,69.48c-.36,0-.72-.07-1.08-.22-.68-.29-1.2-.82-1.48-1.51-.27-.68-.27-1.43,.02-2.11,.29-.68,.82-1.2,1.51-1.48,.68-.27,1.43-.27,2.11,.02,1.4,.6,2.05,2.22,1.46,3.61-.45,1.05-1.47,1.68-2.54,1.68Zm0-4.51c-.22,0-.44,.04-.66,.13-.43,.18-.78,.51-.96,.94s-.19,.91-.01,1.34c.18,.43,.51,.78,.94,.96,.89,.38,1.92-.04,2.3-.93,.38-.89-.04-1.92-.93-2.3-.22-.09-.45-.14-.69-.14Z"/>
    </g>
    <g>
      <circle class="cls-6" cx="126.39" cy="69.72" r="2.25"/>
      <path class="cls-5" d="M126.39,72.47c-.37,0-.73-.07-1.08-.22-.68-.29-1.2-.82-1.48-1.51-.27-.68-.27-1.43,.02-2.11,.6-1.4,2.22-2.05,3.61-1.46,.68,.29,1.2,.82,1.48,1.51,.27,.68,.27,1.43-.02,2.11-.29,.68-.82,1.2-1.51,1.48-.33,.13-.68,.2-1.03,.2Zm0-4.51c-.68,0-1.33,.4-1.62,1.07-.18,.43-.19,.91-.01,1.34,.17,.43,.51,.78,.94,.96,.43,.18,.91,.19,1.34,.01,.43-.18,.78-.51,.96-.94h0c.18-.43,.19-.91,.01-1.34-.18-.44-.51-.78-.94-.96-.22-.1-.46-.14-.68-.14Z"/>
    </g>
  </g>
  <g>
    <g>
      <circle class="cls-6" cx="113.27" cy="81" r="2.25"/>
      <path class="cls-5" d="M113.26,83.76c-.36,0-.72-.07-1.08-.22-1.4-.6-2.05-2.22-1.46-3.61,.59-1.4,2.22-2.05,3.61-1.46,.68,.29,1.2,.82,1.48,1.51,.27,.68,.27,1.43-.02,2.11h0c-.45,1.05-1.47,1.68-2.54,1.68Zm0-4.51c-.68,0-1.33,.4-1.62,1.07-.38,.89,.04,1.92,.93,2.3,.89,.38,1.92-.04,2.3-.93h0c.18-.43,.19-.91,.01-1.34-.18-.43-.51-.78-.94-.96-.22-.1-.46-.14-.69-.14Z"/>
    </g>
    <g>
      <circle class="cls-6" cx="120.31" cy="84" r="2.25"/>
      <path class="cls-5" d="M120.31,86.76c-.37,0-.73-.07-1.08-.22-.68-.29-1.2-.82-1.48-1.51-.27-.68-.27-1.43,.02-2.11,.29-.68,.82-1.2,1.51-1.48,.68-.27,1.43-.27,2.11,.02,1.4,.59,2.05,2.22,1.46,3.61h0c-.29,.68-.82,1.2-1.51,1.48-.33,.13-.68,.2-1.03,.2Zm0-4.51c-.22,0-.44,.04-.66,.13-.44,.17-.78,.51-.96,.94s-.19,.91-.01,1.34c.18,.44,.51,.78,.94,.96,.43,.18,.91,.19,1.34,.01,.43-.18,.78-.51,.96-.94,.38-.89-.04-1.92-.93-2.3-.22-.09-.45-.14-.69-.14Z"/>
    </g>
  </g>
  <g>
    <g>
      <circle class="cls-6" cx="85.78" cy="71.58" r="2.25"/>
      <path class="cls-5" d="M85.78,74.33c-.27,0-.55-.04-.82-.13-1.45-.45-2.26-2-1.81-3.45s2-2.26,3.45-1.81c1.45,.45,2.26,2,1.81,3.45h0c-.37,1.18-1.46,1.93-2.63,1.93Zm0-4.51c-.75,0-1.44,.48-1.68,1.23-.29,.92,.23,1.91,1.15,2.2,.92,.29,1.91-.23,2.2-1.15h0c.29-.92-.23-1.91-1.15-2.2-.17-.05-.35-.08-.52-.08Z"/>
    </g>
    <g>
      <circle class="cls-6" cx="93.08" cy="73.87" r="2.25"/>
      <path class="cls-5" d="M93.07,76.62c-.27,0-.55-.04-.82-.13-.7-.22-1.28-.7-1.62-1.35-.34-.65-.41-1.4-.19-2.1,.45-1.45,2-2.26,3.45-1.81,.7,.22,1.28,.7,1.62,1.35,.34,.65,.41,1.4,.19,2.1-.37,1.18-1.46,1.93-2.63,1.93Zm0-4.51c-.75,0-1.44,.48-1.68,1.23-.14,.45-.1,.92,.12,1.34,.22,.42,.58,.72,1.03,.86,.92,.29,1.91-.23,2.2-1.15h0c.29-.92-.23-1.91-1.15-2.2-.17-.05-.35-.08-.52-.08Z"/>
    </g>
  </g>
  <g>
    <g>
      <circle class="cls-6" cx="57.95" cy="65.29" r="2.25"/>
      <path class="cls-5" d="M57.95,68.05c-.17,0-.34-.02-.52-.05-.72-.14-1.35-.55-1.76-1.16-.41-.61-.56-1.34-.43-2.06,.28-1.49,1.73-2.47,3.22-2.19,1.49,.28,2.47,1.73,2.19,3.22-.25,1.32-1.41,2.24-2.7,2.24Zm0-4.51c-.83,0-1.56,.59-1.72,1.43-.18,.95,.44,1.87,1.39,2.05,.95,.18,1.87-.44,2.05-1.39,.18-.95-.44-1.87-1.39-2.05-.11-.02-.22-.03-.33-.03Z"/>
    </g>
    <g>
      <circle class="cls-6" cx="65.46" cy="66.73" r="2.25"/>
      <path class="cls-5" d="M65.47,69.48c-.17,0-.34-.02-.52-.05-1.49-.28-2.47-1.73-2.19-3.22,.14-.72,.55-1.35,1.16-1.76,.61-.41,1.34-.56,2.06-.43,1.49,.28,2.47,1.73,2.19,3.22-.25,1.32-1.41,2.24-2.71,2.24Zm0-4.51c-.83,0-1.56,.59-1.72,1.43-.18,.95,.44,1.87,1.39,2.05,.96,.18,1.87-.44,2.05-1.39,.18-.95-.44-1.87-1.39-2.05-.11-.02-.22-.03-.33-.03Z"/>
    </g>
  </g>
  <g>
    <circle class="cls-4" cx="69.78" cy="24.05" r="1.63"/>
    <path class="cls-5" d="M69.78,26.17c-1.17,0-2.13-.95-2.13-2.13s.95-2.13,2.13-2.13,2.13,.95,2.13,2.13-.95,2.13-2.13,2.13Zm0-3.25c-.62,0-1.13,.51-1.13,1.13s.51,1.13,1.13,1.13,1.13-.51,1.13-1.13-.51-1.13-1.13-1.13Z"/>
  </g>
  <g>
    <circle class="cls-4" cx="68.15" cy="42.02" r="1.63"/>
    <path class="cls-5" d="M68.15,44.15c-1.17,0-2.13-.95-2.13-2.13s.95-2.13,2.13-2.13,2.13,.95,2.13,2.13-.95,2.13-2.13,2.13Zm0-3.25c-.62,0-1.13,.51-1.13,1.13s.51,1.13,1.13,1.13,1.13-.51,1.13-1.13-.51-1.13-1.13-1.13Z"/>
  </g>
  <g>
    <circle class="cls-4" cx="131.07" cy="44.15" r="1.63"/>
    <path class="cls-5" d="M131.07,46.27c-1.17,0-2.13-.95-2.13-2.13s.95-2.13,2.13-2.13,2.13,.95,2.13,2.13-.95,2.13-2.13,2.13Zm0-3.25c-.62,0-1.13,.51-1.13,1.13s.51,1.13,1.13,1.13,1.13-.51,1.13-1.13-.51-1.13-1.13-1.13Z"/>
  </g>
  <g>
    <circle class="cls-4" cx="196.42" cy="32.12" r="1.63"/>
    <path class="cls-5" d="M196.42,34.24c-1.17,0-2.13-.95-2.13-2.13s.95-2.13,2.13-2.13,2.13,.95,2.13,2.13-.95,2.13-2.13,2.13Zm0-3.25c-.62,0-1.13,.51-1.13,1.13s.51,1.13,1.13,1.13,1.13-.51,1.13-1.13-.51-1.13-1.13-1.13Z"/>
  </g>
  <g>
    <circle class="cls-4" cx="155.92" cy="70.77" r="1.63"/>
    <path class="cls-5" d="M155.92,72.89c-1.17,0-2.13-.95-2.13-2.13s.95-2.13,2.13-2.13,2.13,.95,2.13,2.13-.95,2.13-2.13,2.13Zm0-3.25c-.62,0-1.13,.51-1.13,1.13s.51,1.13,1.13,1.13,1.13-.51,1.13-1.13-.51-1.13-1.13-1.13Z"/>
  </g>
  <g>
    <rect class="cls-8" x="8.79" y="14.41" width="254.74" height="1.87"/>
    <path class="cls-5" d="M264.03,16.78H8.29v-2.87h255.74v2.87ZM9.29,15.78h253.74v-.87H9.29v.87Z"/>
  </g>
  <g>
    <rect class="cls-8" x=".5" y="8.45" width="254.62" height="1.87"/>
    <path class="cls-5" d="M255.62,10.82H0v-2.87H255.62v2.87ZM1,9.82H254.62v-.87H1v.87Z"/>
  </g>
  <g>
    <polygon class="cls-4" points="255.12 10.32 .5 10.32 .5 12.19 8.79 12.19 8.79 14.41 263.53 14.41 263.53 12.28 255.12 12.28 255.12 10.32"/>
    <path class="cls-5" d="M264.03,14.91H8.29v-2.22H0v-2.87H255.62v1.95h8.41v3.13ZM9.29,13.91h253.74v-1.13h-8.41v-1.95H1v.87H9.29v2.22Z"/>
  </g>
  <g>
    <path class="cls-3" d="M57.34,54.53l.93-5.36s-3.18-1.7-5.02-2.19c-1.84-.49-6.93-.49-6.93-.49l-.87,6.24c2.42,.33,5.01,.7,7.73,1.13,1.35,.21,2.74,.44,4.15,.68Z"/>
    <path class="cls-5" d="M57.74,55.11l-.49-.08c-1.41-.24-2.8-.47-4.15-.68-2.54-.4-5.14-.78-7.72-1.13l-.5-.07,1-7.17h.44c.21,0,5.18,0,7.06,.51,1.87,.5,4.99,2.16,5.13,2.23l.32,.17-1.08,6.21Zm-11.72-2.82c2.42,.33,4.86,.69,7.24,1.06,1.2,.19,2.43,.39,3.67,.6l.79-4.51c-.85-.44-3.17-1.6-4.59-1.98-1.45-.39-5.1-.46-6.36-.47l-.74,5.31Z"/>
  </g>
  <rect class="cls-1" x="3.52" y="39.47" width=".81" height=".99"/>
  <rect class="cls-1" x="259.82" y="23.68" width="1.18" height=".99"/>
  <g>
    <g>
      <path class="cls-4" d="M191.05,67.68l1.01-1.43c-4.37-2.88-8.54-5.56-12.63-8.09v-.02c-.19-.12-.4-.24-.6-.36-1.68-1.03-3.35-2.05-5.01-3.04-6.45-3.83-12.84-7.33-19.69-10.71-11.82-5.82-24.99-11.24-42.14-17.28-9.76-3.44-20.27-6.04-30.11-8-4.53-1.01-9.02-1.89-13.37-2.67-.2-.03-.39-.07-.58-.1-.85-.15-1.7-.3-2.53-.44-2.9-.49-5.73-.93-8.43-1.33-3.93-.58-7.61-1.06-10.94-1.46-10.43-1.25-17.4-1.69-17.59-1.7-4.05-.15-21.1-.64-27.92-.93h-.02v1.87H9.38v2.22h.7c7.27,.36,15.57,.74,18.12,.84,.13,0,4.59,.29,11.64,1.04,1.56,.16,3.25,.35,5.05,.57,5.87,.69,12.91,1.65,20.49,2.95,.84,.14,1.68,.29,2.53,.44,4,.72,8.13,1.53,12.3,2.45,9.92,1.95,20.57,4.56,30.44,8.04,16.51,5.81,29.3,11.05,40.75,16.64,7.18,3.5,13.83,7.13,20.55,11.13,2.61,1.56,5.24,3.17,7.91,4.85,.98,.62,1.97,1.25,2.96,1.88,3.36,2.15,6.81,4.41,10.41,6.81,.61,.41,1.25,.86,1.93,1.36l1.3-1.79-5.43-3.72Z"/>
      <path class="cls-5" d="M195.29,73.89l-.4-.29c-.67-.49-1.31-.94-1.91-1.34-3.8-2.53-7.2-4.76-10.41-6.81-.99-.64-1.98-1.26-2.96-1.88-2.76-1.74-5.34-3.32-7.9-4.84-6.94-4.13-13.65-7.77-20.51-11.11-11.51-5.61-24.45-10.89-40.7-16.61-8.73-3.07-18.95-5.77-30.37-8.02-3.96-.87-8.09-1.69-12.29-2.44-.85-.15-1.69-.3-2.53-.44-6.62-1.14-13.5-2.13-20.46-2.95-1.79-.21-3.48-.4-5.04-.57-7.17-.76-11.58-1.03-11.62-1.03-2.64-.1-11.12-.49-18.12-.84h-1.18s0-2.22,0-2.22H0v-2.87H.5c4.43,.19,12.92,.45,19.74,.66,3.68,.12,6.77,.21,8.21,.26,.08,0,7.04,.43,17.63,1.7,3.66,.44,7.34,.93,10.95,1.46,2.84,.42,5.68,.87,8.44,1.33,.84,.14,1.69,.29,2.54,.44l.58,.1c4.57,.82,9.08,1.72,13.39,2.67,11.33,2.26,21.48,4.96,30.17,8.02,16.87,5.94,30.28,11.44,42.2,17.3,6.6,3.25,13.05,6.76,19.73,10.73,1.66,.99,3.33,2.01,5.01,3.04l1.08,.64-.02,.02c3.82,2.37,7.81,4.93,12.18,7.81l.43,.28-1.01,1.44,5.44,3.73-1.9,2.61ZM9.88,13.71h.2c7.03,.35,15.49,.74,18.14,.84,.05,0,4.49,.28,11.68,1.04,1.56,.16,3.26,.35,5.05,.57,6.98,.82,13.88,1.82,20.51,2.96,.84,.14,1.68,.29,2.54,.44,4.22,.75,8.36,1.58,12.32,2.45,11.46,2.25,21.72,4.96,30.5,8.05,16.29,5.73,29.26,11.03,40.81,16.66,6.88,3.36,13.62,7,20.58,11.15,2.56,1.52,5.15,3.11,7.92,4.85,.98,.62,1.97,1.25,2.97,1.88,3.21,2.05,6.62,4.28,10.42,6.82,.49,.33,1.01,.69,1.54,1.07l.71-.97-5.42-3.72,1-1.42c-4.37-2.88-8.36-5.43-12.18-7.8l-.46-.29h0s-.13-.08-.13-.08c-1.68-1.04-3.35-2.05-5.01-3.04-6.65-3.96-13.08-7.45-19.66-10.69-11.88-5.85-25.26-11.33-42.09-17.26-8.65-3.04-18.75-5.73-30.05-7.99-4.31-.96-8.8-1.85-13.36-2.67l-.58-.1c-.85-.15-1.69-.3-2.53-.44-2.76-.47-5.59-.92-8.42-1.33-3.6-.53-7.27-1.02-10.92-1.45-10.56-1.27-17.49-1.69-17.56-1.7-1.43-.05-4.51-.15-8.19-.26-6.57-.21-14.7-.46-19.21-.64v.85H9.88v2.22Z"/>
    </g>
    <g>
      <path class="cls-8" d="M180.64,56.56c-.84-.52-1.68-1.04-2.51-1.54-1.13-.69-2.26-1.38-3.38-2.04-6.31-3.75-12.58-7.19-19.26-10.5-12-5.94-25.37-11.46-42.83-17.6-7.61-2.68-15.6-4.85-23.36-6.61-2.66-.6-5.27-1.15-7.85-1.66-.77-.17-1.54-.35-2.3-.51-3.23-.69-6.43-1.31-9.55-1.87-11.16-2.02-21.33-3.3-28.76-4.08-7.07-.74-11.66-1.03-12.21-1.07h-.11c-3.3-.13-15.06-.47-23.15-.81H.5v1.87s.01,0,.02,0c6.81,.29,23.86,.78,27.92,.93,.19,.01,7.16,.45,17.59,1.7,3.33,.4,7.01,.88,10.94,1.46,2.71,.4,5.53,.84,8.43,1.33,.84,.14,1.68,.29,2.53,.44,.2,.03,.39,.07,.58,.1,4.34,.77,8.84,1.66,13.37,2.67,9.84,1.97,20.35,4.57,30.11,8,17.15,6.04,30.32,11.46,42.14,17.28,6.85,3.37,13.25,6.87,19.69,10.71,1.66,.99,3.33,2,5.01,3.04,.2,.12,.41,.24,.61,.36v.02c4.08,2.53,8.24,5.21,12.61,8.09l1.15-1.64c-4.35-2.87-8.5-5.53-12.57-8.06Z"/>
      <path class="cls-5" d="M192.19,66.94l-.4-.27c-4.54-2.99-8.66-5.64-12.61-8.09l-.46-.29h0s-.13-.08-.13-.08c-1.68-1.04-3.35-2.05-5.01-3.04-6.65-3.96-13.08-7.45-19.66-10.69-11.88-5.85-25.26-11.33-42.09-17.26-8.65-3.04-18.75-5.73-30.05-7.99-4.31-.96-8.8-1.85-13.36-2.67l-.58-.1c-.85-.15-1.69-.3-2.53-.44-2.76-.47-5.59-.91-8.42-1.33-3.6-.53-7.27-1.02-10.92-1.45-10.56-1.27-17.49-1.69-17.56-1.7-1.43-.05-4.51-.15-8.19-.26-6.83-.21-15.32-.48-19.72-.66l-.48-.02-.02-.48v-2.37H5.37c5.64,.24,13.16,.48,18.13,.64,2.24,.07,4.03,.13,5.04,.17h.12c.5,.04,5.09,.32,12.24,1.07,6.75,.71,17.22,1.99,28.79,4.09,3.22,.58,6.44,1.21,9.56,1.88,.45,.1,.91,.2,1.37,.3l.93,.21c2.82,.56,5.39,1.1,7.85,1.66,8.56,1.94,16.44,4.17,23.42,6.63,17.16,6.04,30.79,11.64,42.89,17.63,6.45,3.19,12.76,6.63,19.3,10.51,1.09,.65,2.18,1.31,3.28,1.98l.11,.07c.83,.51,1.67,1.02,2.51,1.54h0c3.97,2.46,8.09,5.1,12.58,8.07l.43,.28-1.73,2.45Zm-12.03-8.92c3.7,2.3,7.56,4.77,11.77,7.55l.58-.82c-4.32-2.84-8.29-5.39-12.13-7.77h0c-.84-.52-1.67-1.03-2.5-1.54l-.11-.07c-1.09-.67-2.18-1.33-3.27-1.97-6.52-3.87-12.81-7.3-19.23-10.48-12.06-5.97-25.66-11.55-42.78-17.58-6.94-2.44-14.78-4.66-23.31-6.6-2.45-.56-5.02-1.1-7.84-1.66l-.95-.21c-.45-.1-.91-.21-1.36-.3-3.12-.66-6.32-1.29-9.53-1.87-11.55-2.09-21.99-3.37-28.72-4.08-7.13-.75-11.69-1.03-12.19-1.06h-.1c-1-.04-2.79-.1-5.02-.17-4.97-.16-12.49-.4-18.12-.64H1v.89c4.54,.19,12.67,.44,19.24,.64,3.68,.11,6.77,.21,8.21,.26,.08,0,7.04,.43,17.63,1.7,3.66,.44,7.34,.93,10.95,1.46,2.84,.42,5.68,.87,8.44,1.33,.84,.14,1.69,.29,2.54,.44l.58,.1c4.57,.82,9.08,1.72,13.39,2.67,11.33,2.26,21.48,4.96,30.17,8.02,16.87,5.94,30.28,11.44,42.2,17.3,6.6,3.25,13.05,6.76,19.73,10.73,1.66,.99,3.33,2.01,5.01,3.04l1.08,.64-.02,.02Z"/>
    </g>
    <g>
      <path class="cls-8" d="M193.24,71.84c-3.6-2.4-7.05-4.66-10.41-6.81-.99-.64-1.98-1.26-2.96-1.88-2.67-1.68-5.29-3.29-7.91-4.85-6.71-4-13.37-7.63-20.55-11.13-11.45-5.58-24.24-10.82-40.75-16.64-9.86-3.47-20.52-6.09-30.44-8.04-4.17-.92-8.29-1.73-12.3-2.45-.85-.15-1.69-.3-2.53-.44-7.58-1.3-14.62-2.26-20.49-2.95-1.8-.21-3.49-.4-5.05-.57-7.05-.75-11.51-1.03-11.64-1.04-2.55-.09-10.85-.48-18.12-.84h-.7v1.87h.26c7.36,.43,15.82,.87,18.48,.96,.65,.04,7.18,.48,16.78,1.62,.53,.06,1.06,.13,1.6,.19,.01,0,.02,0,.04,0,5.54,.68,11.98,1.59,18.85,2.78,.84,.14,1.68,.29,2.53,.45,3.8,.69,7.71,1.46,11.65,2.32,9.91,1.94,20.57,4.54,30.42,8.01,16.2,5.7,28.79,10.85,40.06,16.31,7.34,3.56,14.13,7.26,20.97,11.34,3.02,1.8,6.05,3.67,9.14,5.63,3.85,2.44,7.8,5.02,11.96,7.8,.58,.39,1.21,.83,1.86,1.31l1.18-1.62c-.68-.49-1.32-.95-1.93-1.36Z"/>
      <path class="cls-5" d="M194.11,75.51l-.4-.29c-.65-.47-1.27-.92-1.84-1.3-4.4-2.93-8.31-5.48-11.95-7.79-3.28-2.08-6.27-3.92-9.13-5.63-7.09-4.22-13.94-7.93-20.94-11.32-11.33-5.5-24.04-10.67-40.01-16.29-8.71-3.07-18.92-5.76-30.35-7.99-3.74-.82-7.65-1.6-11.64-2.32-.85-.15-1.69-.3-2.53-.45-6.09-1.05-12.43-1.98-18.83-2.77l-1.64-.2c-9.83-1.17-16.47-1.6-16.75-1.62-2.59-.09-11.05-.52-18.48-.96h-.73s0-2.87,0-2.87h1.2c7.03,.35,15.49,.74,18.14,.84,.05,0,4.49,.28,11.68,1.04,1.56,.16,3.26,.35,5.05,.57,6.98,.82,13.88,1.82,20.51,2.96,.84,.14,1.68,.29,2.54,.44,4.22,.75,8.36,1.58,12.32,2.45,11.46,2.25,21.72,4.96,30.5,8.05,16.29,5.73,29.26,11.03,40.81,16.66,6.88,3.36,13.62,7,20.58,11.15,2.56,1.52,5.15,3.11,7.92,4.85,.98,.62,1.97,1.25,2.97,1.88,3.21,2.05,6.62,4.28,10.42,6.82,.61,.41,1.26,.87,1.95,1.37l.4,.29-1.77,2.43ZM9.88,15.6c7.39,.43,15.69,.86,18.26,.95,.29,.02,6.97,.45,16.82,1.62l1.61,.19c6.45,.79,12.8,1.73,18.91,2.78,.84,.15,1.68,.29,2.54,.45,4,.72,7.93,1.5,11.67,2.32,11.47,2.25,21.73,4.95,30.48,8.03,16,5.63,28.75,10.82,40.11,16.34,7.02,3.41,13.89,7.12,21.01,11.36,2.87,1.71,5.87,3.56,9.16,5.64,3.65,2.31,7.56,4.86,11.97,7.8,.46,.31,.96,.66,1.47,1.03l.59-.81c-.53-.38-1.03-.73-1.51-1.05h0c-3.8-2.53-7.2-4.76-10.41-6.81-.99-.64-1.98-1.26-2.96-1.88-2.76-1.74-5.34-3.32-7.9-4.84-6.94-4.13-13.65-7.77-20.51-11.11-11.51-5.61-24.45-10.89-40.7-16.61-8.73-3.07-18.95-5.77-30.37-8.02-3.96-.87-8.09-1.69-12.29-2.44-.85-.15-1.69-.3-2.53-.44-6.62-1.14-13.5-2.13-20.46-2.95-1.79-.21-3.48-.4-5.04-.57-7.17-.76-11.58-1.03-11.62-1.03-2.64-.1-11.12-.49-18.12-.84h-.18v.89Z"/>
    </g>
  </g>
  <polygon class="cls-5" points="103.38 30.18 102.42 29.89 103.39 26.62 97.67 24.95 98.74 20.65 99.71 20.89 98.87 24.26 104.64 25.94 103.38 30.18"/>
  <g>
    <g>
      <polygon class="cls-8" points="171.77 53.49 151.01 53.49 65.26 53.49 65.26 55.37 151.01 55.37 171.77 55.37 264.57 55.37 264.57 53.49 171.77 53.49"/>
      <path class="cls-5" d="M265.07,55.87H64.76v-2.87h200.31v2.87Zm-199.31-1h198.31v-.87H65.76v.87Z"/>
    </g>
    <g>
      <polygon class="cls-8" points="171.77 47.54 151.01 47.54 65.26 47.54 65.26 49.41 151.01 49.41 171.77 49.41 256.17 49.41 256.17 47.54 171.77 47.54"/>
      <path class="cls-5" d="M256.67,49.91H64.76v-2.87h191.9v2.87Zm-190.9-1H255.67v-.87H65.76v.87Z"/>
    </g>
    <g>
      <polygon class="cls-4" points="256.17 51.36 256.17 49.41 171.77 49.41 151.01 49.41 65.26 49.41 65.26 53.49 151.01 53.49 171.77 53.49 264.57 53.49 264.57 51.36 256.17 51.36"/>
      <path class="cls-5" d="M265.07,53.99H64.76v-5.08h191.9v1.95h8.41v3.13Zm-199.31-1h198.31v-1.13h-8.41v-1.95H65.76v3.08Z"/>
    </g>
  </g>
  <g>
    <g>
      <path class="cls-8" d="M95.26,68c-20.51-7.22-44.45-10.74-58.03-12.27-6.58-.75-10.74-1.03-10.87-1.04-2.38-.09-10.13-.48-16.91-.84h-.65v1.87h.24c6.86,.43,14.76,.87,17.24,.96,1.55,.11,38.62,2.75,68.31,13.2,33.74,11.88,51.86,21.35,74.92,36.33l1.18-1.62c-23.24-15.1-41.46-24.64-75.44-36.6Z"/>
      <path class="cls-5" d="M169.64,106.89l-.4-.26c-22.15-14.39-39.81-23.96-74.82-36.28-29.72-10.46-66.63-13.06-68.18-13.17-2.42-.09-10.31-.52-17.24-.96h-.71s0-2.87,0-2.87h1.15c6.56,.35,14.46,.74,16.93,.84,.05,0,4.19,.28,10.9,1.04,12.77,1.45,37.31,4.97,58.14,12.3,35.32,12.43,53.15,22.1,75.54,36.65l.44,.29-1.77,2.43ZM9.29,55.24c6.89,.43,14.61,.86,17,.95,1.58,.11,38.62,2.72,68.46,13.23,34.89,12.28,52.6,21.83,74.63,36.12l.59-.81c-22.12-14.35-39.89-23.94-74.89-36.26-20.74-7.3-45.19-10.81-57.92-12.25-6.69-.76-10.8-1.03-10.84-1.03-2.46-.1-10.37-.49-16.91-.84h-.13v.89Z"/>
    </g>
    <g>
      <path class="cls-8" d="M53.18,53.85c3.42,.54,7.04,1.16,10.78,1.87,10.55,2.02,22.03,4.77,32.62,8.5,31.7,11.16,49.83,20.23,70.9,33.56l1.15-1.64c-21.23-13.44-39.46-22.57-71.39-33.81-7.61-2.68-15.6-4.85-23.36-6.61-3.02-.69-6-1.31-8.91-1.87-10.41-2.02-19.9-3.3-26.84-4.08-6.6-.74-10.88-1.03-11.4-1.07h-.1c-3.08-.13-14.05-.47-21.6-.81H.5v1.87s.01,0,.02,0c6.36,.29,22.27,.78,26.05,.93,.23,.01,11.47,.77,26.62,3.16Z"/>
      <path class="cls-5" d="M167.62,98.46l-.4-.25c-22.59-14.29-41.11-23.06-70.8-33.51-9.32-3.28-20.27-6.13-32.55-8.48-3.47-.66-7.09-1.29-10.76-1.87-15.29-2.41-26.46-3.14-26.57-3.15-1.34-.05-4.25-.15-7.71-.27-6.35-.21-14.24-.48-18.33-.66l-.48-.02-.02-.48v-2.37H5.04c5.25,.23,12.24,.48,16.87,.63,2.11,.07,3.81,.13,4.76,.17h.11c.19,.02,4.55,.3,11.42,1.07,6.3,.71,16.07,1.99,26.87,4.09,3.02,.59,6.02,1.22,8.93,1.88,8.56,1.94,16.44,4.17,23.42,6.63,29.95,10.54,48.66,19.4,71.49,33.86l.44,.28-1.73,2.45ZM1,49.29c4.23,.18,11.76,.44,17.85,.64,3.47,.12,6.38,.21,7.73,.27,.12,0,11.34,.75,26.67,3.16h0c3.68,.58,7.31,1.21,10.79,1.88,12.33,2.36,23.33,5.22,32.7,8.52,29.59,10.41,48.12,19.17,70.6,33.35l.58-.82c-22.56-14.24-41.16-23.03-70.84-33.48-6.94-2.44-14.78-4.66-23.31-6.6-2.89-.66-5.88-1.29-8.89-1.87-10.77-2.09-20.52-3.37-26.8-4.08-6.85-.77-11.19-1.05-11.37-1.06h-.1c-.94-.04-2.63-.1-4.74-.17-4.63-.16-11.62-.4-16.85-.63H1v.9Z"/>
    </g>
    <g>
      <path class="cls-4" d="M26.36,54.69c.12,0,4.28,.29,10.87,1.04,13.58,1.54,37.52,5.06,58.03,12.27,33.98,11.96,52.2,21.49,75.44,36.6l1.23-1.69-5.43-3.72,.99-1.4c-21.07-13.33-39.2-22.4-70.9-33.56-10.59-3.73-22.08-6.48-32.62-8.5-3.74-.71-7.36-1.33-10.78-1.87-15.15-2.38-26.38-3.14-26.62-3.16-3.78-.15-19.69-.64-26.05-.93h-.02v1.87H8.79v2.22h.65c6.79,.36,14.53,.74,16.91,.84Z"/>
      <path class="cls-5" d="M170.82,105.27l-.4-.26c-22.32-14.51-40.1-24.15-75.33-36.55-20.74-7.3-45.19-10.81-57.92-12.25-6.58-.75-10.67-1.02-10.84-1.03-2.48-.1-10.38-.49-16.91-.84h-1.13s0-2.22,0-2.22H0v-2.87H.5c4.12,.19,12.01,.45,18.35,.66,3.47,.12,6.38,.21,7.73,.27,.12,0,11.34,.75,26.67,3.16,3.68,.58,7.31,1.21,10.79,1.88,12.33,2.36,23.33,5.22,32.7,8.52,29.76,10.48,48.34,19.27,71,33.61l.44,.28-1,1.42,5.44,3.73-1.81,2.49ZM9.29,53.35h.15c6.56,.35,14.46,.74,16.93,.84h.01s4.18,.28,10.89,1.04c12.77,1.45,37.31,4.97,58.14,12.3,35.11,12.36,52.94,21.98,75.15,36.39l.65-.89-5.42-3.72,.98-1.38c-22.39-14.13-40.87-22.85-70.35-33.23-9.32-3.28-20.27-6.13-32.55-8.48-3.47-.66-7.09-1.29-10.76-1.87-15.29-2.41-26.46-3.14-26.57-3.15-1.34-.05-4.25-.15-7.71-.27-6.09-.2-13.61-.46-17.82-.64v.85H9.29v2.22Z"/>
    </g>
  </g>
  <polygon class="cls-5" points="95.46 69.72 94.53 69.37 95.62 66.42 89.65 64.43 91.09 60.28 92.03 60.61 90.92 63.8 96.92 65.8 95.46 69.72"/>
  <g>
    <g>
      <rect class="cls-2" x="29.67" y="94.79" width="7.48" height="9.11" transform="translate(66.83 198.69) rotate(-180)"/>
      <path class="cls-7" d="M37.66,104.4h-8.48v-10.11h8.48v10.11Zm-7.48-1h6.48v-8.11h-6.48v8.11Z"/>
    </g>
    <g>
      <rect class="cls-2" x="29.67" y="94.79" width="7.48" height="9.11" transform="translate(66.83 198.69) rotate(-180)"/>
      <path class="cls-7" d="M37.66,104.4h-8.48v-10.11h8.48v10.11Zm-7.48-1h6.48v-8.11h-6.48v8.11Z"/>
    </g>
    <g>
      <rect class="cls-2" x="27.61" y="96.82" width="2.06" height="4.67"/>
      <path class="cls-7" d="M30.17,101.99h-3.06v-5.67h3.06v5.67Zm-2.06-1h1.06v-3.67h-1.06v3.67Z"/>
    </g>
    <g>
      <rect class="cls-2" x="31.63" y="100.7" width="3.58" height="3.2" transform="translate(66.83 204.59) rotate(-180)"/>
      <path class="cls-7" d="M35.7,104.4h-4.58v-4.2h4.58v4.2Zm-3.58-1h2.58v-2.2h-2.58v2.2Z"/>
    </g>
    <g>
      <rect class="cls-2" x="37.18" y="96.93" width="5.93" height="4.69"/>
      <path class="cls-7" d="M43.61,102.13h-6.93v-5.69h6.93v5.69Zm-5.93-1h4.93v-3.69h-4.93v3.69Z"/>
    </g>
  </g>
</svg>