%TF.GenerationSoftware,KiCad,Pcbnew,7.0.10*%
%TF.CreationDate,2024-01-31T14:07:57+01:00*%
%TF.ProjectId,Switch_PCB_ESP01,53776974-6368-45f5-9043-425f45535030,rev?*%
%TF.SameCoordinates,Original*%
%TF.FileFunction,Copper,L1,Top*%
%TF.FilePolarity,Positive*%
%FSLAX46Y46*%
G04 Gerber Fmt 4.6, Leading zero omitted, Abs format (unit mm)*
G04 Created by KiCad (PCBNEW 7.0.10) date 2024-01-31 14:07:57*
%MOMM*%
%LPD*%
G01*
G04 APERTURE LIST*
%TA.AperFunction,ComponentPad*%
%ADD10C,2.500000*%
%TD*%
%TA.AperFunction,ComponentPad*%
%ADD11R,2.000000X2.000000*%
%TD*%
%TA.AperFunction,ComponentPad*%
%ADD12C,2.000000*%
%TD*%
%TA.AperFunction,ViaPad*%
%ADD13C,2.000000*%
%TD*%
%TA.AperFunction,Conductor*%
%ADD14C,1.500000*%
%TD*%
%TA.AperFunction,Conductor*%
%ADD15C,1.000000*%
%TD*%
G04 APERTURE END LIST*
D10*
%TO.P,J3-GND1,1,Pin_1*%
%TO.N,GND*%
X108182000Y-109510000D03*
%TO.P,J3-GND1,2,Pin_2*%
X111782000Y-109510000D03*
%TD*%
%TO.P,J1-3.3V1,1,Pin_1*%
%TO.N,3.3V*%
X102592000Y-99822000D03*
%TO.P,J1-3.3V1,2,Pin_2*%
X106192000Y-99822000D03*
%TD*%
D11*
%TO.P,J4-Servo1,1,Pin_1*%
%TO.N,GND*%
X115570000Y-147066000D03*
D12*
%TO.P,J4-Servo1,2,Pin_2*%
%TO.N,5V*%
X113030000Y-147066000D03*
%TO.P,J4-Servo1,3,Pin_3*%
%TO.N,/ServoControl*%
X110490000Y-147066000D03*
%TD*%
D11*
%TO.P,Q2,1,S*%
%TO.N,GND*%
X105410000Y-125095000D03*
D12*
%TO.P,Q2,2,G*%
%TO.N,/LevelConverter_0*%
X105410000Y-127635000D03*
%TO.P,Q2,3,D*%
%TO.N,/ServoControl*%
X105410000Y-130175000D03*
%TD*%
%TO.P,R2,1*%
%TO.N,5V*%
X106680000Y-145415000D03*
%TO.P,R2,2*%
%TO.N,/ServoControl*%
X106680000Y-147955000D03*
%TD*%
%TO.P,R1,1*%
%TO.N,5V*%
X102743000Y-145377500D03*
%TO.P,R1,2*%
%TO.N,/LevelConverter_0*%
X102743000Y-142837500D03*
%TD*%
D11*
%TO.P,Q1,1,S*%
%TO.N,GND*%
X111506000Y-126238000D03*
D12*
%TO.P,Q1,2,G*%
%TO.N,D4-Servo*%
X111506000Y-128778000D03*
%TO.P,Q1,3,D*%
%TO.N,/LevelConverter_0*%
X111506000Y-131318000D03*
%TD*%
D10*
%TO.P,J2-5V1,1,Pin_1*%
%TO.N,5V*%
X113792000Y-99822000D03*
%TO.P,J2-5V1,2,Pin_2*%
X117392000Y-99822000D03*
%TD*%
D11*
%TO.P,J0-ESP01S1,1,Pin_1*%
%TO.N,unconnected-(J0-ESP01S1-Pin_1-Pad1)*%
X106426000Y-137541000D03*
D12*
%TO.P,J0-ESP01S1,2,Pin_2*%
%TO.N,3.3V*%
X106426000Y-140081000D03*
%TO.P,J0-ESP01S1,3,Pin_3*%
%TO.N,unconnected-(J0-ESP01S1-Pin_3-Pad3)*%
X108966000Y-137541000D03*
%TO.P,J0-ESP01S1,4,Pin_4*%
%TO.N,unconnected-(J0-ESP01S1-Pin_4-Pad4)*%
X108966000Y-140081000D03*
%TO.P,J0-ESP01S1,5,Pin_5*%
%TO.N,D4-Servo*%
X111506000Y-137541000D03*
%TO.P,J0-ESP01S1,6,Pin_6*%
%TO.N,3.3V*%
X111506000Y-140081000D03*
%TO.P,J0-ESP01S1,7,Pin_7*%
%TO.N,GND*%
X114046000Y-137541000D03*
%TO.P,J0-ESP01S1,8,Pin_8*%
%TO.N,unconnected-(J0-ESP01S1-Pin_8-Pad8)*%
X114046000Y-140081000D03*
%TD*%
D13*
%TO.N,3.3V*%
X102616000Y-108966000D03*
X108966000Y-134874000D03*
%TD*%
D14*
%TO.N,GND*%
X111782000Y-109510000D02*
X111782000Y-125962000D01*
X111782000Y-125962000D02*
X111506000Y-126238000D01*
%TO.N,3.3V*%
X102616000Y-108966000D02*
X102616000Y-99846000D01*
X102616000Y-99846000D02*
X102592000Y-99822000D01*
%TO.N,GND*%
X108182000Y-109510000D02*
X111782000Y-109510000D01*
%TO.N,3.3V*%
X102592000Y-99822000D02*
X106192000Y-99822000D01*
%TO.N,5V*%
X117392000Y-99822000D02*
X113792000Y-99822000D01*
X113030000Y-147066000D02*
X113030000Y-148826000D01*
X118999000Y-148082000D02*
X118999000Y-101429000D01*
X113030000Y-148826000D02*
X113683000Y-149479000D01*
X113683000Y-149479000D02*
X117602000Y-149479000D01*
X117602000Y-149479000D02*
X118999000Y-148082000D01*
X118999000Y-101429000D02*
X117392000Y-99822000D01*
%TO.N,GND*%
X115570000Y-147066000D02*
X116713000Y-145923000D01*
X116713000Y-145923000D02*
X116713000Y-138793787D01*
D15*
%TO.N,/ServoControl*%
X106680000Y-147955000D02*
X109601000Y-147955000D01*
X109601000Y-147955000D02*
X110490000Y-147066000D01*
D14*
%TO.N,5V*%
X106680000Y-145415000D02*
X107680000Y-144415000D01*
X107680000Y-144415000D02*
X111793213Y-144415000D01*
X111793213Y-144415000D02*
X113030000Y-145651787D01*
X113030000Y-145651787D02*
X113030000Y-147066000D01*
%TO.N,3.3V*%
X111506000Y-140081000D02*
X111506000Y-141495213D01*
X110507213Y-142494000D02*
X107696000Y-142494000D01*
X111506000Y-141495213D02*
X110507213Y-142494000D01*
X106426000Y-141224000D02*
X106426000Y-140081000D01*
X107696000Y-142494000D02*
X106426000Y-141224000D01*
%TO.N,GND*%
X111506000Y-126238000D02*
X114006000Y-126238000D01*
X111800000Y-125944000D02*
X111506000Y-126238000D01*
X114006000Y-126238000D02*
X116713000Y-128945000D01*
X116713000Y-128945000D02*
X116713000Y-138793787D01*
X110363000Y-125095000D02*
X111506000Y-126238000D01*
X115460213Y-137541000D02*
X114046000Y-137541000D01*
X105410000Y-125095000D02*
X110363000Y-125095000D01*
X116713000Y-138793787D02*
X115460213Y-137541000D01*
D15*
%TO.N,D4-Servo*%
X113031000Y-128778000D02*
X114300000Y-130047000D01*
X114300000Y-133985000D02*
X111506000Y-136779000D01*
X114300000Y-130047000D02*
X114300000Y-133985000D01*
X111506000Y-128778000D02*
X113031000Y-128778000D01*
X111506000Y-136779000D02*
X111506000Y-137541000D01*
%TO.N,/ServoControl*%
X106680000Y-147955000D02*
X101346000Y-147955000D01*
X101346000Y-147955000D02*
X100838000Y-147447000D01*
X102616000Y-130175000D02*
X105410000Y-130175000D01*
X100838000Y-131953000D02*
X102616000Y-130175000D01*
X100838000Y-147447000D02*
X100838000Y-131953000D01*
D14*
%TO.N,3.3V*%
X104775000Y-134874000D02*
X108966000Y-134874000D01*
X102592000Y-108942000D02*
X102616000Y-108966000D01*
X103888000Y-139303000D02*
X104666000Y-140081000D01*
X103888000Y-135761000D02*
X103888000Y-139303000D01*
X104775000Y-134874000D02*
X103888000Y-135761000D01*
X104666000Y-140081000D02*
X106426000Y-140081000D01*
D15*
%TO.N,/LevelConverter_0*%
X103632000Y-132842000D02*
X109982000Y-132842000D01*
X102238000Y-134236000D02*
X103632000Y-132842000D01*
X109982000Y-132842000D02*
X111506000Y-131318000D01*
X105410000Y-127635000D02*
X106807000Y-127635000D01*
X106807000Y-127635000D02*
X110490000Y-131318000D01*
X110490000Y-131318000D02*
X111506000Y-131318000D01*
X102743000Y-142837500D02*
X102238000Y-142332500D01*
X102238000Y-142332500D02*
X102238000Y-134236000D01*
D14*
%TO.N,5V*%
X106642500Y-145377500D02*
X106680000Y-145415000D01*
X102743000Y-145377500D02*
X106642500Y-145377500D01*
%TD*%
%TA.AperFunction,Conductor*%
%TO.N,5V*%
G36*
X119942539Y-97020185D02*
G01*
X119988294Y-97072989D01*
X119999500Y-97124500D01*
X119999500Y-150875500D01*
X119979815Y-150942539D01*
X119927011Y-150988294D01*
X119875500Y-150999500D01*
X100124500Y-150999500D01*
X100057461Y-150979815D01*
X100011706Y-150927011D01*
X100000500Y-150875500D01*
X100000500Y-148335096D01*
X100020185Y-148268057D01*
X100072989Y-148222302D01*
X100142147Y-148212358D01*
X100205703Y-148241383D01*
X100212181Y-148247415D01*
X100593537Y-148628771D01*
X100601709Y-148637787D01*
X100629432Y-148671568D01*
X100782996Y-148797595D01*
X100929776Y-148876050D01*
X100958196Y-148891241D01*
X101148299Y-148948908D01*
X101148298Y-148948908D01*
X101166024Y-148950653D01*
X101346000Y-148968380D01*
X101389486Y-148964097D01*
X101401640Y-148963500D01*
X104578771Y-148963500D01*
X104610207Y-148967550D01*
X106157271Y-149373018D01*
X106157991Y-149373192D01*
X106158228Y-149373269D01*
X106158422Y-149373320D01*
X106158419Y-149373331D01*
X106176350Y-149379170D01*
X106212404Y-149394105D01*
X106425658Y-149445302D01*
X106443289Y-149449535D01*
X106680000Y-149468165D01*
X106916711Y-149449535D01*
X107147594Y-149394105D01*
X107147597Y-149394103D01*
X107147600Y-149394103D01*
X107183399Y-149379274D01*
X107199416Y-149373885D01*
X107202721Y-149373018D01*
X107202728Y-149373018D01*
X108749792Y-148967550D01*
X108781229Y-148963500D01*
X108828331Y-148963500D01*
X108842216Y-148964280D01*
X108842441Y-148964305D01*
X108842450Y-148964306D01*
X108845068Y-148964085D01*
X108846819Y-148963938D01*
X108857230Y-148963500D01*
X109545358Y-148963500D01*
X109557511Y-148964097D01*
X109559634Y-148964306D01*
X109601000Y-148968380D01*
X109798701Y-148948909D01*
X109988804Y-148891241D01*
X110017224Y-148876050D01*
X110164004Y-148797595D01*
X110317568Y-148671568D01*
X110317599Y-148671529D01*
X110317621Y-148671514D01*
X110321877Y-148667259D01*
X110322683Y-148668065D01*
X110375334Y-148632188D01*
X110385555Y-148629362D01*
X110652401Y-148567749D01*
X110670567Y-148564953D01*
X110726711Y-148560535D01*
X110957594Y-148505105D01*
X111001098Y-148487084D01*
X111013031Y-148482995D01*
X111013009Y-148482926D01*
X111015751Y-148482049D01*
X111017276Y-148481563D01*
X111105308Y-148443925D01*
X111106162Y-148443566D01*
X111176963Y-148414240D01*
X111379416Y-148290176D01*
X111559969Y-148135969D01*
X111694721Y-147978195D01*
X111753228Y-147940002D01*
X111801802Y-147935388D01*
X111806565Y-147935881D01*
X112546922Y-147195523D01*
X112570507Y-147275844D01*
X112648239Y-147396798D01*
X112756900Y-147490952D01*
X112887685Y-147550680D01*
X112897464Y-147552086D01*
X112159942Y-148289609D01*
X112206768Y-148326055D01*
X112206770Y-148326056D01*
X112425385Y-148444364D01*
X112425396Y-148444369D01*
X112660506Y-148525083D01*
X112905707Y-148566000D01*
X113154293Y-148566000D01*
X113399493Y-148525083D01*
X113634603Y-148444369D01*
X113634614Y-148444364D01*
X113853228Y-148326057D01*
X113853231Y-148326055D01*
X113930024Y-148266284D01*
X113995017Y-148240641D01*
X114063558Y-148254207D01*
X114113883Y-148302675D01*
X114115020Y-148304712D01*
X114119109Y-148312202D01*
X114129481Y-148326057D01*
X114206739Y-148429261D01*
X114323796Y-148516889D01*
X114438949Y-148559839D01*
X114454597Y-148565676D01*
X114460799Y-148567989D01*
X114488050Y-148570918D01*
X114521345Y-148574499D01*
X114521362Y-148574500D01*
X116618638Y-148574500D01*
X116618654Y-148574499D01*
X116645692Y-148571591D01*
X116679201Y-148567989D01*
X116685403Y-148565676D01*
X116699186Y-148560535D01*
X116816204Y-148516889D01*
X116898580Y-148455222D01*
X116964043Y-148430806D01*
X117007824Y-148435512D01*
X117049326Y-148447699D01*
X117049330Y-148447700D01*
X117194000Y-148468500D01*
X117194003Y-148468500D01*
X117294851Y-148468500D01*
X117301196Y-148468159D01*
X117349745Y-148465557D01*
X117349752Y-148465556D01*
X117349756Y-148465556D01*
X117356749Y-148464803D01*
X117376103Y-148462723D01*
X117376122Y-148462720D01*
X117430356Y-148453932D01*
X117430358Y-148453931D01*
X117430361Y-148453931D01*
X117567303Y-148402854D01*
X117628626Y-148369369D01*
X117745630Y-148281780D01*
X118067280Y-147960130D01*
X118104017Y-147919232D01*
X118120651Y-147898590D01*
X118152797Y-147854011D01*
X118213514Y-147721063D01*
X118233199Y-147654024D01*
X118233200Y-147654020D01*
X118254000Y-147509350D01*
X118254000Y-127560272D01*
X118240263Y-127442293D01*
X118227172Y-127386839D01*
X118186697Y-127275174D01*
X118001591Y-126904962D01*
X117988500Y-126849508D01*
X117988500Y-106423010D01*
X117988500Y-106423000D01*
X117976764Y-106313843D01*
X117965558Y-106262332D01*
X117965453Y-106262017D01*
X117930893Y-106158179D01*
X117930890Y-106158173D01*
X117851871Y-106035218D01*
X117851865Y-106035211D01*
X117806120Y-105982418D01*
X117806117Y-105982415D01*
X117695664Y-105886705D01*
X117695658Y-105886701D01*
X117562716Y-105825987D01*
X117495671Y-105806300D01*
X117447446Y-105799366D01*
X117351000Y-105785500D01*
X110746500Y-105785500D01*
X110679461Y-105765815D01*
X110633706Y-105713011D01*
X110622500Y-105661500D01*
X110622500Y-99822004D01*
X112037093Y-99822004D01*
X112056692Y-100083545D01*
X112056693Y-100083550D01*
X112115058Y-100339270D01*
X112210883Y-100583426D01*
X112210882Y-100583426D01*
X112342027Y-100810573D01*
X112389874Y-100870571D01*
X113308922Y-99951523D01*
X113332507Y-100031844D01*
X113410239Y-100152798D01*
X113518900Y-100246952D01*
X113649685Y-100306680D01*
X113659466Y-100308086D01*
X112742830Y-101224720D01*
X112914546Y-101341793D01*
X112914550Y-101341795D01*
X113150854Y-101455594D01*
X113150858Y-101455595D01*
X113401494Y-101532907D01*
X113401500Y-101532909D01*
X113660848Y-101571999D01*
X113660857Y-101572000D01*
X113923143Y-101572000D01*
X113923151Y-101571999D01*
X114182499Y-101532909D01*
X114182505Y-101532907D01*
X114433143Y-101455595D01*
X114669445Y-101341798D01*
X114669447Y-101341797D01*
X114841168Y-101224720D01*
X113924533Y-100308086D01*
X113934315Y-100306680D01*
X114065100Y-100246952D01*
X114173761Y-100152798D01*
X114251493Y-100031844D01*
X114275076Y-99951523D01*
X115194125Y-100870572D01*
X115241971Y-100810573D01*
X115373116Y-100583426D01*
X115468941Y-100339269D01*
X115471109Y-100329772D01*
X115505216Y-100268793D01*
X115566877Y-100235935D01*
X115636515Y-100241629D01*
X115692019Y-100284068D01*
X115712891Y-100329772D01*
X115715058Y-100339269D01*
X115810883Y-100583426D01*
X115810882Y-100583426D01*
X115942027Y-100810573D01*
X115989874Y-100870571D01*
X116908922Y-99951523D01*
X116932507Y-100031844D01*
X117010239Y-100152798D01*
X117118900Y-100246952D01*
X117249685Y-100306680D01*
X117259466Y-100308086D01*
X116342830Y-101224720D01*
X116514546Y-101341793D01*
X116514550Y-101341795D01*
X116750854Y-101455594D01*
X116750858Y-101455595D01*
X117001494Y-101532907D01*
X117001500Y-101532909D01*
X117260848Y-101571999D01*
X117260857Y-101572000D01*
X117523143Y-101572000D01*
X117523151Y-101571999D01*
X117782499Y-101532909D01*
X117782505Y-101532907D01*
X118033143Y-101455595D01*
X118269445Y-101341798D01*
X118269447Y-101341797D01*
X118441168Y-101224720D01*
X117524533Y-100308086D01*
X117534315Y-100306680D01*
X117665100Y-100246952D01*
X117773761Y-100152798D01*
X117851493Y-100031844D01*
X117875076Y-99951523D01*
X118794125Y-100870572D01*
X118841971Y-100810573D01*
X118973116Y-100583426D01*
X119068941Y-100339270D01*
X119127306Y-100083550D01*
X119127307Y-100083545D01*
X119146907Y-99822004D01*
X119146907Y-99821995D01*
X119127307Y-99560454D01*
X119127306Y-99560449D01*
X119068941Y-99304729D01*
X118973116Y-99060573D01*
X118973117Y-99060573D01*
X118841972Y-98833426D01*
X118794124Y-98773427D01*
X117875076Y-99692475D01*
X117851493Y-99612156D01*
X117773761Y-99491202D01*
X117665100Y-99397048D01*
X117534315Y-99337320D01*
X117524534Y-99335913D01*
X118441168Y-98419278D01*
X118269454Y-98302206D01*
X118269445Y-98302201D01*
X118033142Y-98188404D01*
X118033144Y-98188404D01*
X117782505Y-98111092D01*
X117782499Y-98111090D01*
X117523151Y-98072000D01*
X117260848Y-98072000D01*
X117001500Y-98111090D01*
X117001494Y-98111092D01*
X116750858Y-98188404D01*
X116750854Y-98188405D01*
X116514547Y-98302205D01*
X116514539Y-98302210D01*
X116342830Y-98419277D01*
X117259466Y-99335913D01*
X117249685Y-99337320D01*
X117118900Y-99397048D01*
X117010239Y-99491202D01*
X116932507Y-99612156D01*
X116908923Y-99692475D01*
X115989874Y-98773427D01*
X115942028Y-98833425D01*
X115810883Y-99060573D01*
X115715059Y-99304728D01*
X115712891Y-99314229D01*
X115678782Y-99375207D01*
X115617121Y-99408065D01*
X115547483Y-99402370D01*
X115491980Y-99359930D01*
X115471109Y-99314229D01*
X115468940Y-99304728D01*
X115373116Y-99060573D01*
X115373117Y-99060573D01*
X115241972Y-98833426D01*
X115194124Y-98773427D01*
X114275076Y-99692475D01*
X114251493Y-99612156D01*
X114173761Y-99491202D01*
X114065100Y-99397048D01*
X113934315Y-99337320D01*
X113924534Y-99335913D01*
X114841168Y-98419278D01*
X114669454Y-98302206D01*
X114669445Y-98302201D01*
X114433142Y-98188404D01*
X114433144Y-98188404D01*
X114182505Y-98111092D01*
X114182499Y-98111090D01*
X113923151Y-98072000D01*
X113660848Y-98072000D01*
X113401500Y-98111090D01*
X113401494Y-98111092D01*
X113150858Y-98188404D01*
X113150854Y-98188405D01*
X112914547Y-98302205D01*
X112914539Y-98302210D01*
X112742830Y-98419277D01*
X113659466Y-99335913D01*
X113649685Y-99337320D01*
X113518900Y-99397048D01*
X113410239Y-99491202D01*
X113332507Y-99612156D01*
X113308923Y-99692475D01*
X112389874Y-98773427D01*
X112342028Y-98833425D01*
X112210883Y-99060573D01*
X112115058Y-99304729D01*
X112056693Y-99560449D01*
X112056692Y-99560454D01*
X112037093Y-99821995D01*
X112037093Y-99822004D01*
X110622500Y-99822004D01*
X110622500Y-97124500D01*
X110642185Y-97057461D01*
X110694989Y-97011706D01*
X110746500Y-97000500D01*
X119875500Y-97000500D01*
X119942539Y-97020185D01*
G37*
%TD.AperFunction*%
%TA.AperFunction,Conductor*%
G36*
X113583599Y-145164897D02*
G01*
X113625095Y-145202556D01*
X113633563Y-145214779D01*
X113636895Y-145219531D01*
X113638469Y-145221749D01*
X113641810Y-145226401D01*
X113669702Y-145264791D01*
X113682281Y-145286391D01*
X113701896Y-145329575D01*
X113704386Y-145334976D01*
X113705507Y-145337372D01*
X113707923Y-145342459D01*
X113728521Y-145385232D01*
X113737041Y-145408732D01*
X113748615Y-145454662D01*
X113748632Y-145454729D01*
X113748665Y-145454855D01*
X113750096Y-145460402D01*
X113750766Y-145462941D01*
X113752234Y-145468378D01*
X113766759Y-145521008D01*
X113770553Y-145541087D01*
X113770720Y-145542683D01*
X113770876Y-145543785D01*
X113770852Y-145543946D01*
X113770956Y-145544937D01*
X113770703Y-145544963D01*
X113760779Y-145612921D01*
X113714908Y-145665624D01*
X113647825Y-145685160D01*
X113607836Y-145678441D01*
X113471705Y-145631707D01*
X113414690Y-145591322D01*
X113388559Y-145526522D01*
X113401610Y-145457882D01*
X113404481Y-145454855D01*
X113404465Y-145454847D01*
X113425998Y-145415000D01*
X113426000Y-145415000D01*
X113401764Y-145298411D01*
X113407393Y-145228769D01*
X113449779Y-145173225D01*
X113515467Y-145149414D01*
X113583599Y-145164897D01*
G37*
%TD.AperFunction*%
%TD*%
%TA.AperFunction,Conductor*%
%TO.N,3.3V*%
G36*
X110052039Y-97020185D02*
G01*
X110097794Y-97072989D01*
X110109000Y-97124500D01*
X110109000Y-106175000D01*
X110089315Y-106242039D01*
X110036511Y-106287794D01*
X109985000Y-106299000D01*
X104775000Y-106299000D01*
X104775000Y-111636000D01*
X104755315Y-111703039D01*
X104702511Y-111748794D01*
X104651000Y-111760000D01*
X100124500Y-111760000D01*
X100057461Y-111740315D01*
X100011706Y-111687511D01*
X100000500Y-111636000D01*
X100000500Y-99822004D01*
X100837093Y-99822004D01*
X100856692Y-100083545D01*
X100856693Y-100083550D01*
X100915058Y-100339270D01*
X101010883Y-100583426D01*
X101010882Y-100583426D01*
X101142027Y-100810573D01*
X101189874Y-100870571D01*
X102108922Y-99951523D01*
X102132507Y-100031844D01*
X102210239Y-100152798D01*
X102318900Y-100246952D01*
X102449685Y-100306680D01*
X102459466Y-100308086D01*
X101542830Y-101224720D01*
X101714546Y-101341793D01*
X101714550Y-101341795D01*
X101950854Y-101455594D01*
X101950858Y-101455595D01*
X102201494Y-101532907D01*
X102201500Y-101532909D01*
X102460848Y-101571999D01*
X102460857Y-101572000D01*
X102723143Y-101572000D01*
X102723151Y-101571999D01*
X102982499Y-101532909D01*
X102982505Y-101532907D01*
X103233143Y-101455595D01*
X103469445Y-101341798D01*
X103469447Y-101341797D01*
X103641168Y-101224720D01*
X102724533Y-100308086D01*
X102734315Y-100306680D01*
X102865100Y-100246952D01*
X102973761Y-100152798D01*
X103051493Y-100031844D01*
X103075076Y-99951523D01*
X103994125Y-100870572D01*
X104041971Y-100810573D01*
X104173116Y-100583426D01*
X104268941Y-100339269D01*
X104271109Y-100329772D01*
X104305216Y-100268793D01*
X104366877Y-100235935D01*
X104436515Y-100241629D01*
X104492019Y-100284068D01*
X104512891Y-100329772D01*
X104515058Y-100339269D01*
X104610883Y-100583426D01*
X104610882Y-100583426D01*
X104742027Y-100810573D01*
X104789874Y-100870571D01*
X105708922Y-99951523D01*
X105732507Y-100031844D01*
X105810239Y-100152798D01*
X105918900Y-100246952D01*
X106049685Y-100306680D01*
X106059466Y-100308086D01*
X105142830Y-101224720D01*
X105314546Y-101341793D01*
X105314550Y-101341795D01*
X105550854Y-101455594D01*
X105550858Y-101455595D01*
X105801494Y-101532907D01*
X105801500Y-101532909D01*
X106060848Y-101571999D01*
X106060857Y-101572000D01*
X106323143Y-101572000D01*
X106323151Y-101571999D01*
X106582499Y-101532909D01*
X106582505Y-101532907D01*
X106833143Y-101455595D01*
X107069445Y-101341798D01*
X107069447Y-101341797D01*
X107241168Y-101224720D01*
X106324533Y-100308086D01*
X106334315Y-100306680D01*
X106465100Y-100246952D01*
X106573761Y-100152798D01*
X106651493Y-100031844D01*
X106675076Y-99951523D01*
X107594125Y-100870572D01*
X107641971Y-100810573D01*
X107773116Y-100583426D01*
X107868941Y-100339270D01*
X107927306Y-100083550D01*
X107927307Y-100083545D01*
X107946907Y-99822004D01*
X107946907Y-99821995D01*
X107927307Y-99560454D01*
X107927306Y-99560449D01*
X107868941Y-99304729D01*
X107773116Y-99060573D01*
X107773117Y-99060573D01*
X107641972Y-98833426D01*
X107594124Y-98773427D01*
X106675076Y-99692475D01*
X106651493Y-99612156D01*
X106573761Y-99491202D01*
X106465100Y-99397048D01*
X106334315Y-99337320D01*
X106324534Y-99335913D01*
X107241168Y-98419278D01*
X107069454Y-98302206D01*
X107069445Y-98302201D01*
X106833142Y-98188404D01*
X106833144Y-98188404D01*
X106582505Y-98111092D01*
X106582499Y-98111090D01*
X106323151Y-98072000D01*
X106060848Y-98072000D01*
X105801500Y-98111090D01*
X105801494Y-98111092D01*
X105550858Y-98188404D01*
X105550854Y-98188405D01*
X105314547Y-98302205D01*
X105314539Y-98302210D01*
X105142830Y-98419277D01*
X106059466Y-99335913D01*
X106049685Y-99337320D01*
X105918900Y-99397048D01*
X105810239Y-99491202D01*
X105732507Y-99612156D01*
X105708923Y-99692475D01*
X104789874Y-98773427D01*
X104742028Y-98833425D01*
X104610883Y-99060573D01*
X104515059Y-99304728D01*
X104512891Y-99314229D01*
X104478782Y-99375207D01*
X104417121Y-99408065D01*
X104347483Y-99402370D01*
X104291980Y-99359930D01*
X104271109Y-99314229D01*
X104268940Y-99304728D01*
X104173116Y-99060573D01*
X104173117Y-99060573D01*
X104041972Y-98833426D01*
X103994124Y-98773427D01*
X103075076Y-99692475D01*
X103051493Y-99612156D01*
X102973761Y-99491202D01*
X102865100Y-99397048D01*
X102734315Y-99337320D01*
X102724534Y-99335913D01*
X103641168Y-98419278D01*
X103469454Y-98302206D01*
X103469445Y-98302201D01*
X103233142Y-98188404D01*
X103233144Y-98188404D01*
X102982505Y-98111092D01*
X102982499Y-98111090D01*
X102723151Y-98072000D01*
X102460848Y-98072000D01*
X102201500Y-98111090D01*
X102201494Y-98111092D01*
X101950858Y-98188404D01*
X101950854Y-98188405D01*
X101714547Y-98302205D01*
X101714539Y-98302210D01*
X101542830Y-98419277D01*
X102459466Y-99335913D01*
X102449685Y-99337320D01*
X102318900Y-99397048D01*
X102210239Y-99491202D01*
X102132507Y-99612156D01*
X102108923Y-99692475D01*
X101189874Y-98773427D01*
X101142028Y-98833425D01*
X101010883Y-99060573D01*
X100915058Y-99304729D01*
X100856693Y-99560449D01*
X100856692Y-99560454D01*
X100837093Y-99821995D01*
X100837093Y-99822004D01*
X100000500Y-99822004D01*
X100000500Y-97124500D01*
X100020185Y-97057461D01*
X100072989Y-97011706D01*
X100124500Y-97000500D01*
X109985000Y-97000500D01*
X110052039Y-97020185D01*
G37*
%TD.AperFunction*%
%TD*%
%TA.AperFunction,Conductor*%
%TO.N,GND*%
G36*
X117418039Y-106318685D02*
G01*
X117463794Y-106371489D01*
X117475000Y-106423000D01*
X117475000Y-127000000D01*
X117727409Y-127504818D01*
X117740500Y-127560272D01*
X117740500Y-147509350D01*
X117720815Y-147576389D01*
X117704181Y-147597031D01*
X117382531Y-147918681D01*
X117321208Y-147952166D01*
X117294850Y-147955000D01*
X117194000Y-147955000D01*
X117126961Y-147935315D01*
X117081206Y-147882511D01*
X117070000Y-147831000D01*
X117070000Y-147316000D01*
X116003686Y-147316000D01*
X116029493Y-147275844D01*
X116070000Y-147137889D01*
X116070000Y-146994111D01*
X116029493Y-146856156D01*
X116003686Y-146816000D01*
X117070000Y-146816000D01*
X117070000Y-146018172D01*
X117069999Y-146018155D01*
X117063598Y-145958627D01*
X117063596Y-145958620D01*
X117013354Y-145823913D01*
X117013350Y-145823906D01*
X116927190Y-145708812D01*
X116927187Y-145708809D01*
X116812093Y-145622649D01*
X116812086Y-145622645D01*
X116677379Y-145572403D01*
X116677372Y-145572401D01*
X116617844Y-145566000D01*
X115820000Y-145566000D01*
X115820000Y-146630498D01*
X115712315Y-146581320D01*
X115605763Y-146566000D01*
X115534237Y-146566000D01*
X115427685Y-146581320D01*
X115320000Y-146630498D01*
X115320000Y-145566000D01*
X114522155Y-145566000D01*
X114462627Y-145572401D01*
X114462614Y-145572404D01*
X114446195Y-145578528D01*
X114376503Y-145583510D01*
X114315181Y-145550023D01*
X114281699Y-145488698D01*
X114279147Y-145470683D01*
X114278031Y-145454124D01*
X114278030Y-145454118D01*
X114276941Y-145449796D01*
X114273681Y-145430606D01*
X114273282Y-145426170D01*
X114273280Y-145426163D01*
X114247265Y-145331901D01*
X114246568Y-145329260D01*
X114222678Y-145234448D01*
X114222677Y-145234446D01*
X114220835Y-145230390D01*
X114214197Y-145212081D01*
X114213013Y-145207792D01*
X114170597Y-145119714D01*
X114169440Y-145117242D01*
X114128994Y-145028197D01*
X114126452Y-145024528D01*
X114116658Y-145007709D01*
X114114726Y-145003696D01*
X114114725Y-145003695D01*
X114114725Y-145003694D01*
X114057238Y-144924571D01*
X114055664Y-144922353D01*
X113999986Y-144841985D01*
X113996832Y-144838831D01*
X113984197Y-144824038D01*
X113981572Y-144820426D01*
X113981573Y-144820426D01*
X113981571Y-144820424D01*
X113910864Y-144752821D01*
X113908920Y-144750919D01*
X113701319Y-144543318D01*
X113667834Y-144481995D01*
X113665000Y-144455637D01*
X113665000Y-143510000D01*
X112545975Y-142390975D01*
X112512490Y-142329652D01*
X112517474Y-142259960D01*
X112527209Y-142239693D01*
X112528259Y-142237935D01*
X112528263Y-142237931D01*
X112530554Y-142234095D01*
X112541817Y-142218225D01*
X112544671Y-142214807D01*
X112592952Y-142129716D01*
X112594268Y-142127456D01*
X112644453Y-142043463D01*
X112646021Y-142039284D01*
X112654264Y-142021663D01*
X112656468Y-142017780D01*
X112688774Y-141925452D01*
X112689664Y-141922995D01*
X112724051Y-141831374D01*
X112724848Y-141826978D01*
X112729815Y-141808165D01*
X112731287Y-141803959D01*
X112738877Y-141756037D01*
X112746232Y-141709602D01*
X112776161Y-141646467D01*
X112835473Y-141609536D01*
X112868705Y-141605000D01*
X115570000Y-141605000D01*
X115570000Y-139065000D01*
X115219227Y-139065000D01*
X115152188Y-139045315D01*
X115124939Y-139021533D01*
X115115969Y-139011031D01*
X114958658Y-138876674D01*
X114920466Y-138818169D01*
X114915429Y-138774701D01*
X114916055Y-138764608D01*
X114336319Y-138184872D01*
X114302834Y-138123549D01*
X114300000Y-138097191D01*
X114300000Y-137852686D01*
X114373641Y-137779045D01*
X114431165Y-137666148D01*
X114438712Y-137618493D01*
X114441647Y-137618072D01*
X114505203Y-137647097D01*
X114511681Y-137653129D01*
X115269434Y-138410882D01*
X115369731Y-138257369D01*
X115469587Y-138029717D01*
X115530612Y-137788738D01*
X115530614Y-137788729D01*
X115551141Y-137541005D01*
X115551141Y-137540994D01*
X115530614Y-137293270D01*
X115530612Y-137293261D01*
X115469587Y-137052282D01*
X115369731Y-136824630D01*
X115269434Y-136671116D01*
X114511681Y-137428871D01*
X114450358Y-137462356D01*
X114438394Y-137461500D01*
X114431165Y-137415852D01*
X114373641Y-137302955D01*
X114300000Y-137229314D01*
X114300000Y-137160000D01*
X114274404Y-137134404D01*
X114240919Y-137073081D01*
X114245903Y-137003389D01*
X114274404Y-136959042D01*
X114916057Y-136317389D01*
X114869229Y-136280943D01*
X114650614Y-136162635D01*
X114650603Y-136162630D01*
X114415493Y-136081916D01*
X114170293Y-136041000D01*
X113969594Y-136041000D01*
X113902555Y-136021315D01*
X113856800Y-135968511D01*
X113846856Y-135899353D01*
X113875881Y-135835797D01*
X113881899Y-135829333D01*
X114973780Y-134737452D01*
X114982776Y-134729299D01*
X115016568Y-134701568D01*
X115142595Y-134548004D01*
X115236241Y-134372804D01*
X115253734Y-134315136D01*
X115293909Y-134182700D01*
X115313380Y-133985000D01*
X115309097Y-133941510D01*
X115308500Y-133929357D01*
X115308500Y-130102641D01*
X115309097Y-130090487D01*
X115311574Y-130065336D01*
X115313380Y-130047000D01*
X115293909Y-129849299D01*
X115236241Y-129659196D01*
X115211012Y-129611996D01*
X115142595Y-129483996D01*
X115016568Y-129330432D01*
X114982784Y-129302706D01*
X114973768Y-129294534D01*
X113783464Y-128104230D01*
X113775291Y-128095213D01*
X113771866Y-128091040D01*
X113767354Y-128085542D01*
X113747567Y-128061430D01*
X113594005Y-127935405D01*
X113593998Y-127935401D01*
X113418807Y-127841760D01*
X113388942Y-127832700D01*
X113388942Y-127832699D01*
X113228703Y-127784091D01*
X113096900Y-127771110D01*
X113031000Y-127764620D01*
X113030999Y-127764620D01*
X113030997Y-127764620D01*
X112992975Y-127768364D01*
X112924330Y-127755344D01*
X112873620Y-127707278D01*
X112856948Y-127639427D01*
X112879605Y-127573332D01*
X112881558Y-127570649D01*
X112949352Y-127480089D01*
X112949354Y-127480086D01*
X112999596Y-127345379D01*
X112999598Y-127345372D01*
X113005999Y-127285844D01*
X113006000Y-127285827D01*
X113006000Y-126488000D01*
X111821686Y-126488000D01*
X111833641Y-126476045D01*
X111891165Y-126363148D01*
X111910986Y-126238000D01*
X111891165Y-126112852D01*
X111833641Y-125999955D01*
X111821686Y-125988000D01*
X113006000Y-125988000D01*
X113006000Y-125190172D01*
X113005999Y-125190155D01*
X112999598Y-125130627D01*
X112999596Y-125130620D01*
X112949354Y-124995913D01*
X112949350Y-124995906D01*
X112863190Y-124880812D01*
X112863187Y-124880809D01*
X112748093Y-124794649D01*
X112748086Y-124794645D01*
X112613379Y-124744403D01*
X112613372Y-124744401D01*
X112553844Y-124738000D01*
X111756000Y-124738000D01*
X111756000Y-125922314D01*
X111744045Y-125910359D01*
X111631148Y-125852835D01*
X111537481Y-125838000D01*
X111474519Y-125838000D01*
X111380852Y-125852835D01*
X111267955Y-125910359D01*
X111256000Y-125922314D01*
X111256000Y-124738000D01*
X110458155Y-124738000D01*
X110398627Y-124744401D01*
X110398620Y-124744403D01*
X110263913Y-124794645D01*
X110263906Y-124794649D01*
X110148812Y-124880809D01*
X110148809Y-124880812D01*
X110062649Y-124995906D01*
X110062645Y-124995913D01*
X110012403Y-125130620D01*
X110012401Y-125130627D01*
X110006000Y-125190155D01*
X110006000Y-125988000D01*
X111190314Y-125988000D01*
X111178359Y-125999955D01*
X111120835Y-126112852D01*
X111101014Y-126238000D01*
X111120835Y-126363148D01*
X111178359Y-126476045D01*
X111190314Y-126488000D01*
X110006000Y-126488000D01*
X110006000Y-127285844D01*
X110012401Y-127345372D01*
X110012403Y-127345379D01*
X110062645Y-127480086D01*
X110062649Y-127480093D01*
X110148809Y-127595187D01*
X110148812Y-127595190D01*
X110271011Y-127686669D01*
X110270022Y-127687989D01*
X110312160Y-127730125D01*
X110327014Y-127798397D01*
X110302599Y-127863863D01*
X110297623Y-127870083D01*
X110281829Y-127888576D01*
X110281821Y-127888586D01*
X110157759Y-128091037D01*
X110157757Y-128091040D01*
X110066895Y-128310402D01*
X110066895Y-128310404D01*
X110011465Y-128541285D01*
X109998424Y-128706987D01*
X109992835Y-128778000D01*
X110011465Y-129014711D01*
X110011466Y-129014715D01*
X110034728Y-129111612D01*
X110031237Y-129181394D01*
X109990573Y-129238211D01*
X109925646Y-129264024D01*
X109857071Y-129250638D01*
X109826473Y-129228239D01*
X107949676Y-127351442D01*
X107944507Y-127345949D01*
X107939103Y-127339844D01*
X107939101Y-127339842D01*
X107939099Y-127339840D01*
X107934636Y-127335698D01*
X107934650Y-127335682D01*
X107928877Y-127330643D01*
X107559464Y-126961230D01*
X107551291Y-126952213D01*
X107547866Y-126948040D01*
X107543354Y-126942542D01*
X107523567Y-126918430D01*
X107370005Y-126792405D01*
X107369998Y-126792401D01*
X107194805Y-126698759D01*
X107004702Y-126641091D01*
X106870772Y-126627900D01*
X106805985Y-126601739D01*
X106765626Y-126544705D01*
X106762509Y-126474904D01*
X106783660Y-126430185D01*
X106853352Y-126337089D01*
X106853354Y-126337086D01*
X106903596Y-126202379D01*
X106903598Y-126202372D01*
X106909999Y-126142844D01*
X106910000Y-126142827D01*
X106910000Y-125345000D01*
X105725686Y-125345000D01*
X105737641Y-125333045D01*
X105795165Y-125220148D01*
X105814986Y-125095000D01*
X105795165Y-124969852D01*
X105737641Y-124856955D01*
X105725686Y-124845000D01*
X106910000Y-124845000D01*
X106910000Y-124047172D01*
X106909999Y-124047155D01*
X106903598Y-123987627D01*
X106903596Y-123987620D01*
X106853354Y-123852913D01*
X106853350Y-123852906D01*
X106767190Y-123737812D01*
X106767187Y-123737809D01*
X106652093Y-123651649D01*
X106652086Y-123651645D01*
X106517379Y-123601403D01*
X106517372Y-123601401D01*
X106457844Y-123595000D01*
X105660000Y-123595000D01*
X105660000Y-124779314D01*
X105648045Y-124767359D01*
X105535148Y-124709835D01*
X105441481Y-124695000D01*
X105378519Y-124695000D01*
X105284852Y-124709835D01*
X105171955Y-124767359D01*
X105160000Y-124779314D01*
X105160000Y-123595000D01*
X104362155Y-123595000D01*
X104302627Y-123601401D01*
X104302620Y-123601403D01*
X104167913Y-123651645D01*
X104167906Y-123651649D01*
X104052812Y-123737809D01*
X104052809Y-123737812D01*
X103966649Y-123852906D01*
X103966645Y-123852913D01*
X103916403Y-123987620D01*
X103916401Y-123987627D01*
X103910000Y-124047155D01*
X103910000Y-124845000D01*
X105094314Y-124845000D01*
X105082359Y-124856955D01*
X105024835Y-124969852D01*
X105005014Y-125095000D01*
X105024835Y-125220148D01*
X105082359Y-125333045D01*
X105094314Y-125345000D01*
X103910000Y-125345000D01*
X103910000Y-126142844D01*
X103916401Y-126202372D01*
X103916403Y-126202379D01*
X103966645Y-126337086D01*
X103966649Y-126337093D01*
X104052809Y-126452187D01*
X104052812Y-126452190D01*
X104175011Y-126543669D01*
X104174022Y-126544989D01*
X104216160Y-126587125D01*
X104231014Y-126655397D01*
X104206599Y-126720863D01*
X104201623Y-126727083D01*
X104185829Y-126745576D01*
X104185821Y-126745586D01*
X104061759Y-126948037D01*
X104061757Y-126948040D01*
X103970895Y-127167402D01*
X103970895Y-127167404D01*
X103915465Y-127398285D01*
X103896835Y-127635000D01*
X103915465Y-127871714D01*
X103970895Y-128102595D01*
X103970895Y-128102597D01*
X104061757Y-128321959D01*
X104061759Y-128321962D01*
X104185820Y-128524410D01*
X104185821Y-128524413D01*
X104340034Y-128704972D01*
X104342049Y-128706987D01*
X104342570Y-128707941D01*
X104343195Y-128708673D01*
X104343041Y-128708804D01*
X104375534Y-128768310D01*
X104370550Y-128838002D01*
X104328678Y-128893935D01*
X104285805Y-128914617D01*
X103340205Y-129162449D01*
X103308768Y-129166500D01*
X102671642Y-129166500D01*
X102659489Y-129165903D01*
X102616000Y-129161620D01*
X102418297Y-129181091D01*
X102285864Y-129221265D01*
X102241716Y-129234657D01*
X102228192Y-129238760D01*
X102053001Y-129332401D01*
X102052994Y-129332405D01*
X101899431Y-129458432D01*
X101871706Y-129492215D01*
X101863535Y-129501229D01*
X100212181Y-131152584D01*
X100150858Y-131186069D01*
X100081166Y-131181085D01*
X100025233Y-131139213D01*
X100000816Y-131073749D01*
X100000500Y-131064903D01*
X100000500Y-112397500D01*
X100020185Y-112330461D01*
X100072989Y-112284706D01*
X100124500Y-112273500D01*
X104650990Y-112273500D01*
X104651000Y-112273500D01*
X104760157Y-112261764D01*
X104811668Y-112250558D01*
X104846440Y-112238984D01*
X104915820Y-112215893D01*
X104915824Y-112215890D01*
X104915827Y-112215890D01*
X105038782Y-112136871D01*
X105091586Y-112091116D01*
X105187297Y-111980661D01*
X105248014Y-111847713D01*
X105267699Y-111780674D01*
X105267700Y-111780670D01*
X105288500Y-111636000D01*
X105288500Y-109510004D01*
X106427093Y-109510004D01*
X106446692Y-109771545D01*
X106446693Y-109771550D01*
X106505058Y-110027270D01*
X106600883Y-110271426D01*
X106600882Y-110271426D01*
X106732027Y-110498573D01*
X106779874Y-110558571D01*
X107698922Y-109639523D01*
X107722507Y-109719844D01*
X107800239Y-109840798D01*
X107908900Y-109934952D01*
X108039685Y-109994680D01*
X108049466Y-109996086D01*
X107132830Y-110912720D01*
X107304546Y-111029793D01*
X107304550Y-111029795D01*
X107540854Y-111143594D01*
X107540858Y-111143595D01*
X107791494Y-111220907D01*
X107791500Y-111220909D01*
X108050848Y-111259999D01*
X108050857Y-111260000D01*
X108313143Y-111260000D01*
X108313151Y-111259999D01*
X108572499Y-111220909D01*
X108572505Y-111220907D01*
X108823143Y-111143595D01*
X109059445Y-111029798D01*
X109059447Y-111029797D01*
X109231168Y-110912720D01*
X108314533Y-109996086D01*
X108324315Y-109994680D01*
X108455100Y-109934952D01*
X108563761Y-109840798D01*
X108641493Y-109719844D01*
X108665076Y-109639523D01*
X109584125Y-110558572D01*
X109631971Y-110498573D01*
X109763116Y-110271426D01*
X109858941Y-110027269D01*
X109861109Y-110017772D01*
X109895216Y-109956793D01*
X109956877Y-109923935D01*
X110026515Y-109929629D01*
X110082019Y-109972068D01*
X110102891Y-110017772D01*
X110105058Y-110027269D01*
X110200883Y-110271426D01*
X110200882Y-110271426D01*
X110332027Y-110498573D01*
X110379874Y-110558571D01*
X111298922Y-109639523D01*
X111322507Y-109719844D01*
X111400239Y-109840798D01*
X111508900Y-109934952D01*
X111639685Y-109994680D01*
X111649466Y-109996086D01*
X110732830Y-110912720D01*
X110904546Y-111029793D01*
X110904550Y-111029795D01*
X111140854Y-111143594D01*
X111140858Y-111143595D01*
X111391494Y-111220907D01*
X111391500Y-111220909D01*
X111650848Y-111259999D01*
X111650857Y-111260000D01*
X111913143Y-111260000D01*
X111913151Y-111259999D01*
X112172499Y-111220909D01*
X112172505Y-111220907D01*
X112423143Y-111143595D01*
X112659445Y-111029798D01*
X112659447Y-111029797D01*
X112831168Y-110912720D01*
X111914533Y-109996086D01*
X111924315Y-109994680D01*
X112055100Y-109934952D01*
X112163761Y-109840798D01*
X112241493Y-109719844D01*
X112265076Y-109639523D01*
X113184125Y-110558572D01*
X113231971Y-110498573D01*
X113363116Y-110271426D01*
X113458941Y-110027270D01*
X113517306Y-109771550D01*
X113517307Y-109771545D01*
X113536907Y-109510004D01*
X113536907Y-109509995D01*
X113517307Y-109248454D01*
X113517306Y-109248449D01*
X113458941Y-108992729D01*
X113363116Y-108748573D01*
X113363117Y-108748573D01*
X113231972Y-108521426D01*
X113184124Y-108461427D01*
X112265076Y-109380475D01*
X112241493Y-109300156D01*
X112163761Y-109179202D01*
X112055100Y-109085048D01*
X111924315Y-109025320D01*
X111914534Y-109023913D01*
X112831168Y-108107278D01*
X112659454Y-107990206D01*
X112659445Y-107990201D01*
X112423142Y-107876404D01*
X112423144Y-107876404D01*
X112172505Y-107799092D01*
X112172499Y-107799090D01*
X111913151Y-107760000D01*
X111650848Y-107760000D01*
X111391500Y-107799090D01*
X111391494Y-107799092D01*
X111140858Y-107876404D01*
X111140854Y-107876405D01*
X110904547Y-107990205D01*
X110904539Y-107990210D01*
X110732830Y-108107277D01*
X111649466Y-109023913D01*
X111639685Y-109025320D01*
X111508900Y-109085048D01*
X111400239Y-109179202D01*
X111322507Y-109300156D01*
X111298923Y-109380475D01*
X110379875Y-108461427D01*
X110379874Y-108461427D01*
X110332028Y-108521425D01*
X110200883Y-108748573D01*
X110105059Y-108992728D01*
X110102891Y-109002229D01*
X110068782Y-109063207D01*
X110007121Y-109096065D01*
X109937483Y-109090370D01*
X109881980Y-109047930D01*
X109861109Y-109002229D01*
X109858940Y-108992728D01*
X109763116Y-108748573D01*
X109763117Y-108748573D01*
X109631972Y-108521426D01*
X109584124Y-108461427D01*
X108665076Y-109380475D01*
X108641493Y-109300156D01*
X108563761Y-109179202D01*
X108455100Y-109085048D01*
X108324315Y-109025320D01*
X108314534Y-109023913D01*
X109231168Y-108107278D01*
X109059454Y-107990206D01*
X109059445Y-107990201D01*
X108823142Y-107876404D01*
X108823144Y-107876404D01*
X108572505Y-107799092D01*
X108572499Y-107799090D01*
X108313151Y-107760000D01*
X108050848Y-107760000D01*
X107791500Y-107799090D01*
X107791494Y-107799092D01*
X107540858Y-107876404D01*
X107540854Y-107876405D01*
X107304547Y-107990205D01*
X107304539Y-107990210D01*
X107132830Y-108107277D01*
X108049466Y-109023913D01*
X108039685Y-109025320D01*
X107908900Y-109085048D01*
X107800239Y-109179202D01*
X107722507Y-109300156D01*
X107698923Y-109380475D01*
X106779874Y-108461427D01*
X106732028Y-108521425D01*
X106600883Y-108748573D01*
X106505058Y-108992729D01*
X106446693Y-109248449D01*
X106446692Y-109248454D01*
X106427093Y-109509995D01*
X106427093Y-109510004D01*
X105288500Y-109510004D01*
X105288500Y-106936500D01*
X105308185Y-106869461D01*
X105360989Y-106823706D01*
X105412500Y-106812500D01*
X109984990Y-106812500D01*
X109985000Y-106812500D01*
X110094157Y-106800764D01*
X110145668Y-106789558D01*
X110180440Y-106777984D01*
X110249820Y-106754893D01*
X110249824Y-106754890D01*
X110249827Y-106754890D01*
X110372782Y-106675871D01*
X110425586Y-106630116D01*
X110521297Y-106519661D01*
X110582014Y-106386713D01*
X110582014Y-106386711D01*
X110582017Y-106386706D01*
X110583560Y-106382569D01*
X110584841Y-106383046D01*
X110619393Y-106329285D01*
X110682950Y-106300262D01*
X110700594Y-106299000D01*
X117351000Y-106299000D01*
X117418039Y-106318685D01*
G37*
%TD.AperFunction*%
%TD*%
%TA.AperFunction,Conductor*%
%TO.N,/ServoControl*%
G36*
X108671267Y-147452711D02*
G01*
X108678400Y-147458123D01*
X108680000Y-147464028D01*
X108680000Y-148445971D01*
X108676573Y-148454244D01*
X108671266Y-148457289D01*
X107072543Y-148876295D01*
X107063672Y-148875077D01*
X107058773Y-148869465D01*
X106680862Y-147959485D01*
X106680854Y-147950535D01*
X107058773Y-147040533D01*
X107065110Y-147034208D01*
X107072542Y-147033704D01*
X108671267Y-147452711D01*
G37*
%TD.AperFunction*%
%TD*%
%TA.AperFunction,Conductor*%
%TO.N,/ServoControl*%
G36*
X109791174Y-146367220D02*
G01*
X109791897Y-146367884D01*
X110489345Y-147064347D01*
X110491892Y-147068159D01*
X110867411Y-147977119D01*
X110867402Y-147986073D01*
X110861064Y-147992400D01*
X110859229Y-147992986D01*
X108872567Y-148451690D01*
X108863735Y-148450212D01*
X108858535Y-148442922D01*
X108858235Y-148440290D01*
X108858235Y-147459275D01*
X108860991Y-147451732D01*
X109774689Y-146368617D01*
X109782641Y-146364505D01*
X109791174Y-146367220D01*
G37*
%TD.AperFunction*%
%TD*%
%TA.AperFunction,Conductor*%
%TO.N,3.3V*%
G36*
X111508863Y-140081188D02*
G01*
X112419134Y-140459220D01*
X112425461Y-140465558D01*
X112425477Y-140474452D01*
X111628774Y-142423466D01*
X111622472Y-142429827D01*
X111613517Y-142429869D01*
X111609671Y-142427312D01*
X110564677Y-141382318D01*
X110561261Y-141374544D01*
X110506520Y-140093188D01*
X110509590Y-140084779D01*
X110517710Y-140081002D01*
X110518183Y-140080991D01*
X111504374Y-140080294D01*
X111508863Y-140081188D01*
G37*
%TD.AperFunction*%
%TD*%
%TA.AperFunction,Conductor*%
%TO.N,3.3V*%
G36*
X107415544Y-140080992D02*
G01*
X107423814Y-140084425D01*
X107427162Y-140091391D01*
X107561694Y-141294065D01*
X107559209Y-141302668D01*
X107558340Y-141303639D01*
X106512883Y-142349096D01*
X106504610Y-142352523D01*
X106496337Y-142349096D01*
X106494261Y-142346281D01*
X105508096Y-140475024D01*
X105507272Y-140466108D01*
X105512993Y-140459219D01*
X105513952Y-140458769D01*
X106423137Y-140081188D01*
X106427624Y-140080294D01*
X107415544Y-140080992D01*
G37*
%TD.AperFunction*%
%TD*%
%TA.AperFunction,Conductor*%
%TO.N,D4-Servo*%
G36*
X112066339Y-135528103D02*
G01*
X112066517Y-135528278D01*
X112760759Y-136222520D01*
X112764186Y-136230793D01*
X112763965Y-136233057D01*
X112507859Y-137531570D01*
X112502896Y-137539024D01*
X112496388Y-137541006D01*
X111510150Y-137541703D01*
X111501875Y-137538282D01*
X111501861Y-137538268D01*
X111406891Y-137443108D01*
X110806974Y-136841990D01*
X110803556Y-136833715D01*
X110806807Y-136825633D01*
X112049798Y-135528454D01*
X112057994Y-135524854D01*
X112066339Y-135528103D01*
G37*
%TD.AperFunction*%
%TD*%
%TA.AperFunction,Conductor*%
%TO.N,D4-Servo*%
G36*
X111899182Y-127859342D02*
G01*
X111899861Y-127859650D01*
X113705815Y-128753093D01*
X113711710Y-128759832D01*
X113711113Y-128768767D01*
X113708899Y-128771852D01*
X113015791Y-129464960D01*
X113009906Y-129468141D01*
X111898168Y-129699902D01*
X111889369Y-129698235D01*
X111884972Y-129692930D01*
X111507152Y-128781777D01*
X111507149Y-128772823D01*
X111883890Y-127865659D01*
X111890228Y-127859333D01*
X111899182Y-127859342D01*
G37*
%TD.AperFunction*%
%TD*%
%TA.AperFunction,Conductor*%
%TO.N,/ServoControl*%
G36*
X106296327Y-147034922D02*
G01*
X106301227Y-147040535D01*
X106679136Y-147950513D01*
X106679145Y-147959467D01*
X106679136Y-147959487D01*
X106301227Y-148869464D01*
X106294889Y-148875791D01*
X106287456Y-148876295D01*
X104688734Y-148457289D01*
X104681600Y-148451876D01*
X104680000Y-148445971D01*
X104680000Y-147464028D01*
X104683427Y-147455755D01*
X104688731Y-147452711D01*
X106287457Y-147033704D01*
X106296327Y-147034922D01*
G37*
%TD.AperFunction*%
%TD*%
%TA.AperFunction,Conductor*%
%TO.N,/ServoControl*%
G36*
X105026327Y-129254922D02*
G01*
X105031227Y-129260535D01*
X105409136Y-130170513D01*
X105409145Y-130179467D01*
X105409136Y-130179487D01*
X105031227Y-131089464D01*
X105024889Y-131095791D01*
X105017456Y-131096295D01*
X103418734Y-130677289D01*
X103411600Y-130671876D01*
X103410000Y-130665971D01*
X103410000Y-129684028D01*
X103413427Y-129675755D01*
X103418731Y-129672711D01*
X105017457Y-129253704D01*
X105026327Y-129254922D01*
G37*
%TD.AperFunction*%
%TD*%
%TA.AperFunction,Conductor*%
%TO.N,3.3V*%
G36*
X108961496Y-133878017D02*
G01*
X108965923Y-133885801D01*
X108966013Y-133887240D01*
X108967000Y-134874000D01*
X108967000Y-134874024D01*
X108966013Y-135860759D01*
X108962578Y-135869028D01*
X108954301Y-135872447D01*
X108952862Y-135872357D01*
X106976249Y-135625281D01*
X106968465Y-135620854D01*
X106966000Y-135613671D01*
X106966000Y-134134328D01*
X106969427Y-134126055D01*
X106976246Y-134122719D01*
X108952862Y-133875642D01*
X108961496Y-133878017D01*
G37*
%TD.AperFunction*%
%TD*%
%TA.AperFunction,Conductor*%
%TO.N,3.3V*%
G36*
X106042563Y-139160794D02*
G01*
X106047070Y-139166171D01*
X106424847Y-140077222D01*
X106424850Y-140086177D01*
X106424844Y-140086191D01*
X106047260Y-140995384D01*
X106040922Y-141001711D01*
X106033393Y-141002189D01*
X103985456Y-140446908D01*
X103978368Y-140441436D01*
X103977226Y-140432554D01*
X103980243Y-140427345D01*
X105024208Y-139383380D01*
X105029960Y-139380230D01*
X106033746Y-139159227D01*
X106042563Y-139160794D01*
G37*
%TD.AperFunction*%
%TD*%
%TA.AperFunction,Conductor*%
%TO.N,/LevelConverter_0*%
G36*
X110591540Y-130939208D02*
G01*
X111502215Y-131315437D01*
X111508553Y-131321764D01*
X111508562Y-131321784D01*
X111884790Y-132232458D01*
X111884781Y-132241412D01*
X111879881Y-132247025D01*
X110453134Y-133081210D01*
X110444263Y-133082428D01*
X110438956Y-133079383D01*
X109744616Y-132385043D01*
X109741189Y-132376770D01*
X109742787Y-132370869D01*
X110576974Y-130944117D01*
X110584108Y-130938705D01*
X110591540Y-130939208D01*
G37*
%TD.AperFunction*%
%TD*%
%TA.AperFunction,Conductor*%
%TO.N,/LevelConverter_0*%
G36*
X105802947Y-126716908D02*
G01*
X105804135Y-126717481D01*
X107573378Y-127700298D01*
X107578946Y-127707311D01*
X107577924Y-127716208D01*
X107575969Y-127718799D01*
X106882557Y-128412211D01*
X106876016Y-128415509D01*
X105423422Y-128632990D01*
X105414733Y-128630826D01*
X105410119Y-128623151D01*
X105409990Y-128621427D01*
X105409294Y-127636624D01*
X105410188Y-127632137D01*
X105787655Y-126723225D01*
X105793993Y-126716899D01*
X105802947Y-126716908D01*
G37*
%TD.AperFunction*%
%TD*%
%TA.AperFunction,Conductor*%
%TO.N,/LevelConverter_0*%
G36*
X110152852Y-130268838D02*
G01*
X111494733Y-130317590D01*
X111502875Y-130321315D01*
X111506007Y-130329274D01*
X111506703Y-131313849D01*
X111503282Y-131322124D01*
X111503268Y-131322138D01*
X110806172Y-132017841D01*
X110797895Y-132021260D01*
X110790754Y-132018819D01*
X109451176Y-130983890D01*
X109446724Y-130976120D01*
X109449070Y-130967478D01*
X109450048Y-130966366D01*
X110144157Y-130272257D01*
X110152429Y-130268831D01*
X110152852Y-130268838D01*
G37*
%TD.AperFunction*%
%TD*%
%TA.AperFunction,Conductor*%
%TO.N,/LevelConverter_0*%
G36*
X102739851Y-140998777D02*
G01*
X102741448Y-141000768D01*
X103659403Y-142443070D01*
X103660955Y-142451889D01*
X103655815Y-142459222D01*
X103654020Y-142460157D01*
X102745160Y-142837602D01*
X102740661Y-142838497D01*
X101754656Y-142837511D01*
X101746387Y-142834076D01*
X101742968Y-142825843D01*
X101738500Y-141179565D01*
X101738500Y-141007050D01*
X101741927Y-140998777D01*
X101750200Y-140995350D01*
X102731578Y-140995350D01*
X102739851Y-140998777D01*
G37*
%TD.AperFunction*%
%TD*%
M02*
