M48
; DRILL file {KiCad 7.0.10} date Wed 31 Jan 2024 02:08:02 PM CET
; FORMAT={-:-/ absolute / metric / decimal}
; #@! TF.CreationDate,2024-01-31T14:08:02+01:00
; #@! TF.GenerationSoftware,Kicad,Pcbnew,7.0.10
; #@! TF.FileFunction,Plated,1,2,PTH
FMAT,2
METRIC
; #@! TA.AperFunction,Plated,PTH,ViaDrill
T1C0.800
; #@! TA.AperFunction,Plated,PTH,ComponentDrill
T2C0.800
; #@! TA.AperFunction,Plated,PTH,ComponentDrill
T3C1.000
%
G90
G05
T1
X102.616Y-108.966
X108.966Y-134.874
T2
X102.743Y-142.838
X102.743Y-145.377
X105.41Y-125.095
X105.41Y-127.635
X105.41Y-130.175
X106.426Y-137.541
X106.426Y-140.081
X106.68Y-145.415
X106.68Y-147.955
X108.966Y-137.541
X108.966Y-140.081
X111.506Y-126.238
X111.506Y-128.778
X111.506Y-131.318
X111.506Y-137.541
X111.506Y-140.081
X114.046Y-137.541
X114.046Y-140.081
T3
X102.592Y-99.822
X106.192Y-99.822
X108.182Y-109.51
X110.49Y-147.066
X111.782Y-109.51
X113.03Y-147.066
X113.792Y-99.822
X115.57Y-147.066
X117.392Y-99.822
M30
